M48
;Layer_Color=9474304
;FILE_FORMAT=4:4
METRIC,LZ
;TYPE=PLATED
T01F00S00C0.7112
T02F00S00C1.0200
T03F00S00C1.2000
%
T01
X-0009652Y-0010414
X-00096307Y-00064486
X-0006235Y-00044541
X-0004235Y-00084541
X-0000235
X000127Y-0011049
X000381Y-0011938
X000635Y-0012573
X0009779Y-0009779
X0009525Y-0006477
X0011938Y-0001524
X0014732Y0001524
X00053058Y00016792
X0004318Y0002667
X0004826Y-0002286
X0002159Y-0005207
X-0002794Y0001778
X-0011303Y-0001016
X-0013589Y0000254
X-0013716Y-0003302
X-0006731Y-0012827
X-0002667Y0004572
X-0000508Y0004699
X0001397Y0004826
X0000254Y0006731
X-0002286
X-0002413Y0008636
X-0000762
X0001524
X0003175Y0011176
X00001802Y0011491
X-00038361Y0012003
X-0004826Y0014224
X-0007366Y0012319
X-0009525Y0011557
X-00100367Y00093943
X-0005207Y0008255
X0004581Y0004945
X0010287Y0004826
X001016Y0003048
X00095613Y0006731
X0005969Y0014224
X-0014235Y00035459
T02
X-001016Y-0002286
Y0000254
Y0002794
T03
X-0001384Y-0006858
X-0003105Y-0003499
X-0001384Y-000014
X0005334
X0007055Y-0003499
X0005334Y-0006858
M30
