G04*
G04 #@! TF.GenerationSoftware,Altium Limited,Altium Designer,25.8.1 (18)*
G04*
G04 Layer_Color=128*
%FSLAX25Y25*%
%MOIN*%
G70*
G04*
G04 #@! TF.SameCoordinates,6E160E92-40C3-423E-B2D9-D39BCFFA93BC*
G04*
G04*
G04 #@! TF.FilePolarity,Positive*
G04*
G01*
G75*
G04:AMPARAMS|DCode=17|XSize=39.37mil|YSize=39.37mil|CornerRadius=19.68mil|HoleSize=0mil|Usage=FLASHONLY|Rotation=60.000|XOffset=0mil|YOffset=0mil|HoleType=Round|Shape=RoundedRectangle|*
%AMROUNDEDRECTD17*
21,1,0.03937,0.00000,0,0,60.0*
21,1,0.00000,0.03937,0,0,60.0*
1,1,0.03937,0.00000,0.00000*
1,1,0.03937,0.00000,0.00000*
1,1,0.03937,0.00000,0.00000*
1,1,0.03937,0.00000,0.00000*
%
%ADD17ROUNDEDRECTD17*%
G04:AMPARAMS|DCode=19|XSize=39.37mil|YSize=39.37mil|CornerRadius=19.68mil|HoleSize=0mil|Usage=FLASHONLY|Rotation=0.000|XOffset=0mil|YOffset=0mil|HoleType=Round|Shape=RoundedRectangle|*
%AMROUNDEDRECTD19*
21,1,0.03937,0.00000,0,0,0.0*
21,1,0.00000,0.03937,0,0,0.0*
1,1,0.03937,0.00000,0.00000*
1,1,0.03937,0.00000,0.00000*
1,1,0.03937,0.00000,0.00000*
1,1,0.03937,0.00000,0.00000*
%
%ADD19ROUNDEDRECTD19*%
G04:AMPARAMS|DCode=20|XSize=39.37mil|YSize=39.37mil|CornerRadius=19.68mil|HoleSize=0mil|Usage=FLASHONLY|Rotation=300.000|XOffset=0mil|YOffset=0mil|HoleType=Round|Shape=RoundedRectangle|*
%AMROUNDEDRECTD20*
21,1,0.03937,0.00000,0,0,300.0*
21,1,0.00000,0.03937,0,0,300.0*
1,1,0.03937,0.00000,0.00000*
1,1,0.03937,0.00000,0.00000*
1,1,0.03937,0.00000,0.00000*
1,1,0.03937,0.00000,0.00000*
%
%ADD20ROUNDEDRECTD20*%
%ADD21R,0.02520X0.03504*%
%ADD36R,0.07480X0.01575*%
%ADD37R,0.05700X0.04200*%
%ADD38R,0.02598X0.03937*%
%ADD39R,0.04799X0.03598*%
G04:AMPARAMS|DCode=40|XSize=29.92mil|YSize=26mil|CornerRadius=3.25mil|HoleSize=0mil|Usage=FLASHONLY|Rotation=90.000|XOffset=0mil|YOffset=0mil|HoleType=Round|Shape=RoundedRectangle|*
%AMROUNDEDRECTD40*
21,1,0.02992,0.01950,0,0,90.0*
21,1,0.02342,0.02600,0,0,90.0*
1,1,0.00650,0.00975,0.01171*
1,1,0.00650,0.00975,-0.01171*
1,1,0.00650,-0.00975,-0.01171*
1,1,0.00650,-0.00975,0.01171*
%
%ADD40ROUNDEDRECTD40*%
%ADD41R,0.03543X0.01968*%
%ADD42R,0.03740X0.03150*%
%ADD43R,0.04300X0.05500*%
%ADD44R,0.03347X0.01181*%
G04:AMPARAMS|DCode=45|XSize=21.65mil|YSize=19.68mil|CornerRadius=2.46mil|HoleSize=0mil|Usage=FLASHONLY|Rotation=0.000|XOffset=0mil|YOffset=0mil|HoleType=Round|Shape=RoundedRectangle|*
%AMROUNDEDRECTD45*
21,1,0.02165,0.01476,0,0,0.0*
21,1,0.01673,0.01968,0,0,0.0*
1,1,0.00492,0.00837,-0.00738*
1,1,0.00492,-0.00837,-0.00738*
1,1,0.00492,-0.00837,0.00738*
1,1,0.00492,0.00837,0.00738*
%
%ADD45ROUNDEDRECTD45*%
%ADD47R,0.22441X0.22441*%
%ADD48R,0.02985X0.03197*%
%ADD49R,0.03568X0.03563*%
%ADD50R,0.03543X0.03150*%
%ADD51R,0.03174X0.03379*%
%ADD52R,0.01181X0.03347*%
%ADD61R,0.02362X0.01968*%
D17*
X-32520Y56339D02*
D03*
X32520Y-56339D02*
D03*
X-0Y56339D02*
D03*
Y-56150D02*
D03*
D19*
X-32520Y-56339D02*
D03*
X32520Y56339D02*
D03*
X48780Y28150D02*
D03*
X-48780Y-28150D02*
D03*
D20*
X-65039Y-0D02*
D03*
X65039D02*
D03*
X-48780Y28150D02*
D03*
X48780Y-28190D02*
D03*
D21*
X23000Y32000D02*
D03*
X17488D02*
D03*
X23000Y37000D02*
D03*
X17488D02*
D03*
D36*
X30500Y24276D02*
D03*
Y19552D02*
D03*
Y29000D02*
D03*
D37*
X37500Y6150D02*
D03*
Y-1150D02*
D03*
D38*
X43520Y-146D02*
D03*
X51000Y-10500D02*
D03*
X43520D02*
D03*
X47260Y-146D02*
D03*
X51000D02*
D03*
D39*
X30000Y8000D02*
D03*
Y-4900D02*
D03*
D40*
X52512Y6000D02*
D03*
X47000D02*
D03*
D41*
X-23000Y52000D02*
D03*
X-13945D02*
D03*
D42*
X35000Y43000D02*
D03*
X-48500Y5000D02*
D03*
Y79D02*
D03*
X35000Y38079D02*
D03*
D43*
X25788Y43000D02*
D03*
X23650Y50000D02*
D03*
X16350D02*
D03*
X18488Y43000D02*
D03*
D44*
X11583Y25016D02*
D03*
Y23047D02*
D03*
Y21079D02*
D03*
Y30921D02*
D03*
Y28953D02*
D03*
Y26984D02*
D03*
X-15583Y36827D02*
D03*
Y34858D02*
D03*
Y32890D02*
D03*
Y30921D02*
D03*
Y28953D02*
D03*
Y26984D02*
D03*
Y25016D02*
D03*
Y23047D02*
D03*
Y21079D02*
D03*
Y19110D02*
D03*
Y17142D02*
D03*
Y15173D02*
D03*
X11583D02*
D03*
Y17142D02*
D03*
Y19110D02*
D03*
Y32890D02*
D03*
Y34858D02*
D03*
Y36827D02*
D03*
D45*
X2500Y-23728D02*
D03*
Y-27272D02*
D03*
D47*
X-2000Y26000D02*
D03*
D48*
X10469Y-2000D02*
D03*
X5531D02*
D03*
D49*
X18500Y-14771D02*
D03*
Y-19500D02*
D03*
D50*
X45307Y12000D02*
D03*
X52000D02*
D03*
D51*
X40000Y-17500D02*
D03*
X35267D02*
D03*
D52*
X8827Y39583D02*
D03*
X6858D02*
D03*
X4890D02*
D03*
X2921D02*
D03*
X953D02*
D03*
X-1016D02*
D03*
X-2984D02*
D03*
X-4953D02*
D03*
X-6921D02*
D03*
X-8890D02*
D03*
X-10858D02*
D03*
X-12827D02*
D03*
Y12417D02*
D03*
X-10858D02*
D03*
X-8890D02*
D03*
X-6921D02*
D03*
X-4953D02*
D03*
X-2984D02*
D03*
X-1016D02*
D03*
X953D02*
D03*
X2921D02*
D03*
X4890D02*
D03*
X6858D02*
D03*
X8827D02*
D03*
D61*
X4437Y-17240D02*
D03*
X-3437Y-13500D02*
D03*
X4437Y-9760D02*
D03*
M02*
