G04*
G04 #@! TF.GenerationSoftware,Altium Limited,Altium Designer,25.8.1 (18)*
G04*
G04 Layer_Physical_Order=1*
G04 Layer_Color=255*
%FSLAX25Y25*%
%MOIN*%
G70*
G04*
G04 #@! TF.SameCoordinates,6E160E92-40C3-423E-B2D9-D39BCFFA93BC*
G04*
G04*
G04 #@! TF.FilePolarity,Positive*
G04*
G01*
G75*
%ADD14C,0.01000*%
G04:AMPARAMS|DCode=17|XSize=39.37mil|YSize=39.37mil|CornerRadius=19.68mil|HoleSize=0mil|Usage=FLASHONLY|Rotation=60.000|XOffset=0mil|YOffset=0mil|HoleType=Round|Shape=RoundedRectangle|*
%AMROUNDEDRECTD17*
21,1,0.03937,0.00000,0,0,60.0*
21,1,0.00000,0.03937,0,0,60.0*
1,1,0.03937,0.00000,0.00000*
1,1,0.03937,0.00000,0.00000*
1,1,0.03937,0.00000,0.00000*
1,1,0.03937,0.00000,0.00000*
%
%ADD17ROUNDEDRECTD17*%
%ADD18R,0.02362X0.03150*%
G04:AMPARAMS|DCode=19|XSize=39.37mil|YSize=39.37mil|CornerRadius=19.68mil|HoleSize=0mil|Usage=FLASHONLY|Rotation=0.000|XOffset=0mil|YOffset=0mil|HoleType=Round|Shape=RoundedRectangle|*
%AMROUNDEDRECTD19*
21,1,0.03937,0.00000,0,0,0.0*
21,1,0.00000,0.03937,0,0,0.0*
1,1,0.03937,0.00000,0.00000*
1,1,0.03937,0.00000,0.00000*
1,1,0.03937,0.00000,0.00000*
1,1,0.03937,0.00000,0.00000*
%
%ADD19ROUNDEDRECTD19*%
G04:AMPARAMS|DCode=20|XSize=39.37mil|YSize=39.37mil|CornerRadius=19.68mil|HoleSize=0mil|Usage=FLASHONLY|Rotation=300.000|XOffset=0mil|YOffset=0mil|HoleType=Round|Shape=RoundedRectangle|*
%AMROUNDEDRECTD20*
21,1,0.03937,0.00000,0,0,300.0*
21,1,0.00000,0.03937,0,0,300.0*
1,1,0.03937,0.00000,0.00000*
1,1,0.03937,0.00000,0.00000*
1,1,0.03937,0.00000,0.00000*
1,1,0.03937,0.00000,0.00000*
%
%ADD20ROUNDEDRECTD20*%
%ADD21R,0.02520X0.03504*%
%ADD22R,0.03150X0.03740*%
%ADD23R,0.03150X0.03150*%
%ADD29C,0.06181*%
%ADD30R,0.06181X0.06181*%
%ADD33R,0.07087X0.07087*%
%ADD34C,0.07087*%
%ADD35C,0.05000*%
G36*
X34209Y59264D02*
X37921Y52851D01*
X37363Y52508D01*
X36141Y52032D01*
X34854Y51782D01*
X33543Y51764D01*
X32250Y51980D01*
X31016Y52423D01*
X29881Y53078D01*
X28880Y53926D01*
X28046Y54937D01*
X27406Y56082D01*
X26980Y57322D01*
X26781Y58618D01*
X26799Y59273D01*
Y59273D01*
X34209Y59264D01*
D02*
G37*
G36*
X-26781Y58618D02*
X-26980Y57322D01*
X-27406Y56082D01*
X-28046Y54937D01*
X-28880Y53926D01*
X-29881Y53078D01*
X-31016Y52423D01*
X-32250Y51980D01*
X-33543Y51764D01*
X-34854Y51782D01*
X-36141Y52032D01*
X-37363Y52508D01*
X-37921Y52851D01*
Y52851D01*
X-34209Y59264D01*
X-26799Y59273D01*
X-26781Y58618D01*
D02*
G37*
G36*
X26246Y58535D02*
X26445Y57240D01*
X26471Y57196D01*
X26468Y57146D01*
X26894Y55906D01*
X26928Y55868D01*
X26934Y55817D01*
X27574Y54673D01*
X27614Y54642D01*
X27629Y54593D01*
X28398Y53659D01*
X27278Y52539D01*
X27057Y52208D01*
X26979Y51818D01*
Y51559D01*
X23995Y48575D01*
X23517D01*
X22296Y49796D01*
X21965Y50017D01*
X21575Y50094D01*
X12625D01*
X12235Y50017D01*
X11904Y49796D01*
X6652Y44544D01*
X6509Y44330D01*
X4699Y42520D01*
X3664D01*
X3170Y43520D01*
X3330Y43727D01*
X3632Y44457D01*
X3735Y45240D01*
X3632Y46023D01*
X3330Y46753D01*
X3089Y47067D01*
X3266Y48021D01*
X3396Y48221D01*
X4358Y48537D01*
X4392Y48566D01*
X4437Y48570D01*
X5970Y49361D01*
X5999Y49396D01*
X6043Y49406D01*
X7432Y50430D01*
X7455Y50469D01*
X7497Y50486D01*
X8705Y51717D01*
X8722Y51759D01*
X8761Y51783D01*
X9760Y53189D01*
X9770Y53233D01*
X9804Y53263D01*
X10568Y54809D01*
X10571Y54854D01*
X10599Y54889D01*
X11109Y56537D01*
X11105Y56582D01*
X11128Y56621D01*
X11370Y58328D01*
X12162Y58842D01*
X25301D01*
X26246Y58535D01*
D02*
G37*
G36*
X10819Y59267D02*
X10835Y58405D01*
X10592Y56697D01*
X10082Y55049D01*
X9318Y53502D01*
X8319Y52096D01*
X7111Y50866D01*
X5722Y49842D01*
X4189Y49051D01*
X2550Y48513D01*
X847Y48240D01*
X-878Y48241D01*
X-2581Y48514D01*
X-4219Y49054D01*
X-5752Y49846D01*
X-7140Y50870D01*
X-8348Y52101D01*
X-9346Y53508D01*
X-10109Y55055D01*
X-10617Y56703D01*
X-10859Y58411D01*
X-10843Y59274D01*
X-10843Y59274D01*
X10819Y59267D01*
D02*
G37*
G36*
X30745Y51954D02*
X30796Y51948D01*
X30833Y51913D01*
X32067Y51471D01*
X32118Y51473D01*
X32161Y51446D01*
X33454Y51230D01*
X33503Y51242D01*
X33550Y51223D01*
X34861Y51240D01*
X34908Y51261D01*
X34958Y51250D01*
X36244Y51501D01*
X36287Y51529D01*
X36337Y51528D01*
X37559Y52004D01*
X38300Y51344D01*
X44874Y39957D01*
X44812Y39016D01*
X43453Y37953D01*
X43431Y37914D01*
X43390Y37895D01*
X42217Y36631D01*
X42201Y36588D01*
X42164Y36563D01*
X41205Y35129D01*
X41197Y35085D01*
X41164Y35054D01*
X40444Y33486D01*
X40443Y33441D01*
X40415Y33405D01*
X39953Y31743D01*
X39958Y31699D01*
X39936Y31659D01*
X39743Y29945D01*
X39755Y29902D01*
X39740Y29859D01*
X39821Y28136D01*
X39840Y28095D01*
X39831Y28051D01*
X40183Y26362D01*
X40209Y26325D01*
X40207Y26280D01*
X40822Y24668D01*
X40853Y24635D01*
X40859Y24591D01*
X41721Y23097D01*
X41726Y22822D01*
X41653Y22673D01*
X40788Y21988D01*
X40500Y22026D01*
X39717Y21923D01*
X38987Y21621D01*
X38360Y21140D01*
X37879Y20513D01*
X37577Y19783D01*
X37474Y19000D01*
X37577Y18217D01*
X37879Y17487D01*
X38360Y16860D01*
X38987Y16379D01*
X39717Y16077D01*
X40500Y15974D01*
X41283Y16077D01*
X42013Y16379D01*
X42640Y16860D01*
X43121Y17487D01*
X43423Y18217D01*
X43526Y19000D01*
X43423Y19783D01*
X43392Y19858D01*
X44140Y20427D01*
X44211Y20463D01*
X44271Y20423D01*
X45722Y19491D01*
X45767Y19483D01*
X45798Y19450D01*
X47379Y18760D01*
X47424Y18759D01*
X47460Y18732D01*
X49130Y18300D01*
X49174Y18306D01*
X49214Y18285D01*
X50932Y18123D01*
X50975Y18136D01*
X51018Y18122D01*
X52739Y18233D01*
X52779Y18253D01*
X52824Y18246D01*
X54506Y18628D01*
X54543Y18654D01*
X54588Y18654D01*
X56188Y19298D01*
X57037Y18889D01*
X63612Y7502D01*
X63804Y6531D01*
X62781Y5711D01*
X62757Y5667D01*
X62712Y5644D01*
X62691Y5620D01*
X61432Y5571D01*
X61024Y5988D01*
X61026Y6000D01*
X60923Y6783D01*
X60620Y7513D01*
X60140Y8140D01*
X59513Y8620D01*
X58783Y8923D01*
X58000Y9026D01*
X57217Y8923D01*
X56487Y8620D01*
X55860Y8140D01*
X55379Y7513D01*
X55077Y6783D01*
X54974Y6000D01*
X55077Y5217D01*
X55379Y4487D01*
X55451Y4393D01*
X47923Y-3135D01*
X47783Y-3077D01*
X47000Y-2974D01*
X46217Y-3077D01*
X45487Y-3379D01*
X44860Y-3860D01*
X44379Y-4487D01*
X44077Y-5217D01*
X43974Y-6000D01*
X44077Y-6783D01*
X44379Y-7513D01*
X44860Y-8140D01*
X45487Y-8620D01*
X46217Y-8923D01*
X47000Y-9026D01*
X47783Y-8923D01*
X48513Y-8620D01*
X49140Y-8140D01*
X49621Y-7513D01*
X49923Y-6783D01*
X50026Y-6000D01*
X49923Y-5217D01*
X49621Y-4487D01*
X49549Y-4393D01*
X57077Y3135D01*
X57217Y3077D01*
X58000Y2974D01*
X58783Y3077D01*
X59513Y3379D01*
X59618Y3460D01*
X60709Y2368D01*
X60622Y2135D01*
X60624Y2085D01*
X60597Y2042D01*
X60363Y752D01*
X60374Y702D01*
X60354Y655D01*
Y-655D01*
X60374Y-702D01*
X60363Y-752D01*
X60597Y-2042D01*
X60624Y-2085D01*
X60622Y-2135D01*
X61082Y-3363D01*
X61116Y-3400D01*
X61124Y-3450D01*
X61794Y-4577D01*
X61835Y-4607D01*
X61851Y-4655D01*
X62712Y-5644D01*
X62757Y-5667D01*
X62781Y-5711D01*
X63804Y-6531D01*
X63612Y-7502D01*
X57042Y-18880D01*
X56206Y-19320D01*
X54607Y-18675D01*
X54561Y-18675D01*
X54525Y-18649D01*
X52843Y-18265D01*
X52798Y-18273D01*
X52758Y-18253D01*
X51037Y-18140D01*
X50994Y-18155D01*
X50951Y-18142D01*
X49233Y-18303D01*
X49193Y-18324D01*
X49149Y-18317D01*
X47478Y-18748D01*
X47442Y-18775D01*
X47397Y-18776D01*
X45816Y-19466D01*
X45785Y-19498D01*
X45740Y-19506D01*
X44288Y-20437D01*
X44262Y-20474D01*
X44220Y-20489D01*
X42933Y-21638D01*
X42011Y-21285D01*
X34838Y-14113D01*
Y1150D01*
X40350D01*
Y3850D01*
X34838D01*
Y7465D01*
X34761Y7855D01*
X34540Y8186D01*
X31505Y11221D01*
X31174Y11442D01*
X30784Y11520D01*
X19825D01*
X19621Y12013D01*
X19140Y12640D01*
X18513Y13121D01*
X17783Y13423D01*
X17000Y13526D01*
X16217Y13423D01*
X15487Y13121D01*
X14860Y12640D01*
X14379Y12013D01*
X14077Y11283D01*
X13974Y10500D01*
X14077Y9717D01*
X14379Y8987D01*
X14860Y8360D01*
X15487Y7880D01*
X16217Y7577D01*
X17000Y7474D01*
X17863Y6611D01*
X17966Y5828D01*
X18269Y5098D01*
X18749Y4471D01*
X19169Y4149D01*
X19193Y3393D01*
X19081Y3030D01*
X18961Y2981D01*
X18116Y2332D01*
X17468Y1488D01*
X17061Y504D01*
X16922Y-551D01*
X17061Y-1607D01*
X17468Y-2590D01*
X18116Y-3435D01*
X18961Y-4083D01*
X19944Y-4490D01*
X19980Y-4495D01*
Y-6050D01*
X20058Y-6440D01*
X20279Y-6771D01*
X21480Y-7973D01*
Y-10882D01*
X20279Y-12083D01*
X20058Y-12414D01*
X19980Y-12804D01*
Y-22957D01*
X16957D01*
Y-26835D01*
X13500D01*
X13110Y-26913D01*
X12779Y-27134D01*
X-16261Y-56174D01*
X-26802D01*
X-26894Y-55906D01*
X-26928Y-55868D01*
X-26934Y-55817D01*
X-27574Y-54673D01*
X-27614Y-54642D01*
X-27629Y-54593D01*
X-28462Y-53582D01*
X-28507Y-53558D01*
X-28530Y-53513D01*
X-29531Y-52665D01*
X-29579Y-52650D01*
X-29610Y-52610D01*
X-30745Y-51954D01*
X-30796Y-51948D01*
X-30833Y-51913D01*
X-31501Y-51674D01*
Y-25835D01*
X-31578Y-25444D01*
X-31799Y-25113D01*
X-56779Y-134D01*
X-57110Y87D01*
X-57428Y1085D01*
X-57424Y1134D01*
X-44591Y13968D01*
X-43591Y13553D01*
Y7409D01*
X-36410D01*
Y14591D01*
X-42553D01*
X-42968Y15590D01*
X-28279Y30279D01*
X-28058Y30610D01*
X-27981Y31000D01*
Y45675D01*
X-27487Y45879D01*
X-26860Y46360D01*
X-26380Y46987D01*
X-26077Y47717D01*
X-25974Y48500D01*
X-26077Y49283D01*
X-26380Y50013D01*
X-25861Y50980D01*
X-15319D01*
X-5118Y40779D01*
X-4787Y40558D01*
X-4397Y40480D01*
X5121D01*
X5511Y40558D01*
X5842Y40779D01*
X8094Y43031D01*
X8237Y43245D01*
X8527Y43535D01*
X9577Y43217D01*
X9879Y42487D01*
X10360Y41860D01*
X10987Y41379D01*
X11717Y41077D01*
X12500Y40974D01*
X13283Y41077D01*
X14013Y41379D01*
X14640Y41860D01*
X15121Y42487D01*
X15423Y43217D01*
X15526Y44000D01*
X15688Y44123D01*
X16563Y44425D01*
Y44425D01*
X19925D01*
Y48055D01*
X21152D01*
X22075Y47133D01*
Y44425D01*
X25437D01*
Y47133D01*
X28720Y50416D01*
X28941Y50746D01*
X29018Y51137D01*
Y51395D01*
X30005Y52382D01*
X30745Y51954D01*
D02*
G37*
G36*
X-11395Y58336D02*
X-11153Y56628D01*
X-11130Y56589D01*
X-11135Y56544D01*
X-10626Y54896D01*
X-10597Y54861D01*
X-10594Y54816D01*
X-9831Y53269D01*
X-9797Y53239D01*
X-9787Y53195D01*
X-8789Y51788D01*
X-8751Y51764D01*
X-8734Y51722D01*
X-7526Y50491D01*
X-7484Y50473D01*
X-7461Y50435D01*
X-6073Y49410D01*
X-6029Y49400D01*
X-6000Y49365D01*
X-4468Y48573D01*
X-4423Y48569D01*
X-4389Y48540D01*
X-2750Y48000D01*
X-2705Y48004D01*
X-2667Y47980D01*
X-2278Y47918D01*
X-1848Y46836D01*
X-1911Y46753D01*
X-2213Y46023D01*
X-2317Y45240D01*
X-2213Y44457D01*
X-1911Y43727D01*
X-1752Y43520D01*
X-2245Y42520D01*
X-3975D01*
X-14176Y52721D01*
X-14507Y52942D01*
X-14897Y53019D01*
X-27634D01*
X-28279Y53804D01*
X-27629Y54593D01*
X-27614Y54642D01*
X-27574Y54673D01*
X-26934Y55817D01*
X-26928Y55868D01*
X-26894Y55906D01*
X-26468Y57146D01*
X-26471Y57196D01*
X-26445Y57240D01*
X-26246Y58535D01*
X-25301Y58842D01*
X-12192D01*
X-11395Y58336D01*
D02*
G37*
G36*
X-36337Y51528D02*
X-36287Y51529D01*
X-36244Y51501D01*
X-34958Y51250D01*
X-34908Y51261D01*
X-34861Y51240D01*
X-33550Y51223D01*
X-33503Y51242D01*
X-33454Y51230D01*
X-33213Y51271D01*
X-31719Y49776D01*
X-31923Y49283D01*
X-32026Y48500D01*
X-31923Y47717D01*
X-31621Y46987D01*
X-31140Y46360D01*
X-30513Y45879D01*
X-30020Y45675D01*
Y31422D01*
X-34065Y27377D01*
X-34922Y27793D01*
X-34995Y27861D01*
Y42932D01*
X-35073Y43322D01*
X-35294Y43653D01*
X-36480Y44840D01*
Y45500D01*
X-36558Y45890D01*
X-36779Y46221D01*
X-37110Y46442D01*
X-37500Y46520D01*
X-37890Y46442D01*
X-38221Y46221D01*
X-38442Y45890D01*
X-38520Y45500D01*
Y44418D01*
X-38442Y44027D01*
X-38221Y43697D01*
X-37034Y42510D01*
Y40124D01*
X-38002Y39606D01*
X-38732Y39908D01*
X-39515Y40011D01*
X-40298Y39908D01*
X-41028Y39606D01*
X-41654Y39125D01*
X-42135Y38498D01*
X-42295Y38112D01*
X-43262Y37822D01*
X-43397Y37830D01*
X-43438Y37849D01*
X-43460Y37888D01*
X-44818Y38952D01*
X-44913Y39889D01*
X-38300Y51344D01*
X-37559Y52004D01*
X-36337Y51528D01*
D02*
G37*
G36*
X56725Y20244D02*
X55986Y19800D01*
X54386Y19156D01*
X52704Y18773D01*
X50983Y18662D01*
X49265Y18824D01*
X47595Y19255D01*
X46015Y19946D01*
X44563Y20878D01*
X43277Y22028D01*
X42190Y23367D01*
X41328Y24861D01*
X40713Y26473D01*
X40361Y28161D01*
X40281Y29884D01*
X40474Y31599D01*
X40936Y33261D01*
X41655Y34828D01*
X42614Y36263D01*
X43787Y37527D01*
X45145Y38590D01*
X45900Y39007D01*
X45900D01*
X56725Y20244D01*
D02*
G37*
G36*
X-45152Y38526D02*
X-43794Y37462D01*
X-42622Y36197D01*
X-41664Y34762D01*
X-40946Y33194D01*
X-40485Y31532D01*
X-40293Y29818D01*
X-40374Y28095D01*
X-40727Y26406D01*
X-41343Y24795D01*
X-42206Y23301D01*
X-43294Y21963D01*
X-44581Y20814D01*
X-46033Y19883D01*
X-47614Y19193D01*
X-49284Y18762D01*
X-51001Y18601D01*
X-52723Y18714D01*
X-54404Y19098D01*
X-56004Y19743D01*
X-56743Y20188D01*
X-56743Y20188D01*
X-45906Y38944D01*
X-45152Y38526D01*
D02*
G37*
G36*
X-54607Y18596D02*
X-54562Y18596D01*
X-54525Y18570D01*
X-52843Y18187D01*
X-52798Y18194D01*
X-52758Y18174D01*
X-51037Y18061D01*
X-50994Y18076D01*
X-50951Y18063D01*
X-49233Y18224D01*
X-49194Y18245D01*
X-49149Y18238D01*
X-48222Y18477D01*
X-47708Y17577D01*
X-50305Y14980D01*
X-56043D01*
X-56434Y14902D01*
X-56764Y14681D01*
X-56985Y14350D01*
X-57063Y13960D01*
X-56985Y13570D01*
X-56764Y13239D01*
X-56434Y13018D01*
X-56043Y12941D01*
X-49916D01*
X-49847Y12868D01*
X-49431Y12011D01*
X-58922Y2520D01*
X-60766D01*
X-61082Y3363D01*
X-61116Y3400D01*
X-61124Y3450D01*
X-61794Y4577D01*
X-61835Y4607D01*
X-61851Y4655D01*
X-62712Y5644D01*
X-62757Y5667D01*
X-62781Y5711D01*
X-63804Y6531D01*
X-63612Y7502D01*
X-57062Y18847D01*
X-56207Y19241D01*
X-54607Y18596D01*
D02*
G37*
G36*
X68416Y0D02*
X64719Y-6421D01*
X64143Y-6109D01*
X63120Y-5289D01*
X62259Y-4300D01*
X61589Y-3174D01*
X61129Y-1946D01*
X60896Y-655D01*
Y655D01*
X61129Y1946D01*
X61589Y3174D01*
X62259Y4300D01*
X63120Y5289D01*
X64143Y6109D01*
X64719Y6421D01*
X64719D01*
X68416Y0D01*
D02*
G37*
G36*
X-64143Y6109D02*
X-63120Y5289D01*
X-62259Y4300D01*
X-61589Y3174D01*
X-61129Y1946D01*
X-60896Y655D01*
Y-655D01*
X-61129Y-1946D01*
X-61589Y-3174D01*
X-62259Y-4300D01*
X-63120Y-5289D01*
X-64143Y-6109D01*
X-64719Y-6421D01*
Y-6421D01*
X-68416Y0D01*
X-64719Y6421D01*
X-64143Y6109D01*
D02*
G37*
G36*
X-38381Y-21415D02*
X-38699Y-22466D01*
X-39429Y-22768D01*
X-40056Y-23249D01*
X-40297Y-23563D01*
X-41257Y-23606D01*
X-41474Y-23525D01*
X-41721Y-23097D01*
X-41757Y-23069D01*
X-41770Y-23026D01*
X-42857Y-21687D01*
X-42897Y-21665D01*
X-42917Y-21625D01*
X-44202Y-20475D01*
X-44245Y-20460D01*
X-44271Y-20423D01*
X-45722Y-19491D01*
X-45767Y-19483D01*
X-45798Y-19450D01*
X-47379Y-18760D01*
X-47424Y-18759D01*
X-47460Y-18732D01*
X-49130Y-18300D01*
X-49174Y-18306D01*
X-49214Y-18285D01*
X-50932Y-18123D01*
X-50975Y-18136D01*
X-51018Y-18122D01*
X-52739Y-18233D01*
X-52779Y-18253D01*
X-52824Y-18246D01*
X-54506Y-18628D01*
X-54543Y-18654D01*
X-54588Y-18654D01*
X-56188Y-19298D01*
X-57037Y-18890D01*
X-63612Y-7502D01*
X-63804Y-6531D01*
X-62781Y-5711D01*
X-62757Y-5667D01*
X-62712Y-5644D01*
X-61851Y-4655D01*
X-61835Y-4607D01*
X-61794Y-4577D01*
X-61124Y-3450D01*
X-61116Y-3400D01*
X-61082Y-3363D01*
X-60622Y-2135D01*
X-59705Y-1874D01*
X-57922D01*
X-38381Y-21415D01*
D02*
G37*
G36*
X-33540Y-26718D02*
Y-51215D01*
X-33550Y-51223D01*
X-34861Y-51240D01*
X-34908Y-51261D01*
X-34958Y-51250D01*
X-36244Y-51501D01*
X-36287Y-51529D01*
X-36337Y-51528D01*
X-37559Y-52004D01*
X-38300Y-51344D01*
X-44874Y-39957D01*
X-44812Y-39016D01*
X-43453Y-37953D01*
X-43431Y-37914D01*
X-43390Y-37895D01*
X-42217Y-36631D01*
X-42201Y-36588D01*
X-42164Y-36563D01*
X-41205Y-35129D01*
X-41197Y-35085D01*
X-41164Y-35054D01*
X-40444Y-33486D01*
X-40443Y-33441D01*
X-40415Y-33406D01*
X-39953Y-31744D01*
X-39958Y-31699D01*
X-39936Y-31659D01*
X-39743Y-29945D01*
X-39755Y-29902D01*
X-39740Y-29859D01*
X-39783Y-28945D01*
X-38813Y-28264D01*
X-38699Y-28311D01*
X-37916Y-28414D01*
X-37133Y-28311D01*
X-36403Y-28009D01*
X-35776Y-27528D01*
X-35296Y-26901D01*
X-35166Y-26589D01*
X-34069Y-26294D01*
X-33540Y-26718D01*
D02*
G37*
G36*
X-49265Y-18824D02*
X-47595Y-19255D01*
X-46015Y-19946D01*
X-44563Y-20878D01*
X-43277Y-22028D01*
X-42190Y-23367D01*
X-41328Y-24861D01*
X-40713Y-26473D01*
X-40361Y-28161D01*
X-40281Y-29884D01*
X-40474Y-31599D01*
X-40936Y-33261D01*
X-41655Y-34828D01*
X-42614Y-36263D01*
X-43787Y-37527D01*
X-45145Y-38590D01*
X-45900Y-39007D01*
Y-39007D01*
X-56725Y-20244D01*
X-55986Y-19800D01*
X-54386Y-19156D01*
X-52704Y-18773D01*
X-50983Y-18662D01*
X-49265Y-18824D01*
D02*
G37*
G36*
X52723Y-18793D02*
X54404Y-19177D01*
X56004Y-19822D01*
X56743Y-20267D01*
X45906Y-39023D01*
X45151Y-38605D01*
X43794Y-37541D01*
X42621Y-36276D01*
X41664Y-34841D01*
X40946Y-33273D01*
X40485Y-31611D01*
X40293Y-29897D01*
X40374Y-28174D01*
X40727Y-26485D01*
X41343Y-24874D01*
X42206Y-23380D01*
X43294Y-22042D01*
X44580Y-20893D01*
X46033Y-19962D01*
X47613Y-19272D01*
X49284Y-18841D01*
X51001Y-18680D01*
X52723Y-18793D01*
D02*
G37*
G36*
X16957Y-31043D02*
X23053D01*
X23101Y-31288D01*
X23322Y-31619D01*
X31500Y-39797D01*
Y-51674D01*
X30833Y-51913D01*
X30796Y-51948D01*
X30745Y-51954D01*
X29610Y-52610D01*
X29579Y-52650D01*
X29531Y-52665D01*
X28530Y-53513D01*
X28507Y-53558D01*
X28462Y-53582D01*
X27629Y-54593D01*
X27614Y-54642D01*
X27574Y-54673D01*
X26934Y-55817D01*
X26928Y-55868D01*
X26894Y-55906D01*
X26468Y-57146D01*
X26471Y-57196D01*
X26445Y-57240D01*
X26246Y-58535D01*
X25301Y-58842D01*
X12049D01*
X11395Y-58147D01*
X11153Y-56439D01*
X11130Y-56400D01*
X11135Y-56355D01*
X10626Y-54707D01*
X10597Y-54672D01*
X10594Y-54627D01*
X10007Y-53435D01*
X13724Y-49718D01*
X14217Y-49923D01*
X15000Y-50026D01*
X15783Y-49923D01*
X16513Y-49621D01*
X17140Y-49140D01*
X17620Y-48513D01*
X17923Y-47783D01*
X18026Y-47000D01*
X17923Y-46217D01*
X17620Y-45487D01*
X17140Y-44860D01*
X16513Y-44379D01*
X15783Y-44077D01*
X15000Y-43974D01*
X14217Y-44077D01*
X13487Y-44379D01*
X12860Y-44860D01*
X12380Y-45487D01*
X12077Y-46217D01*
X11974Y-47000D01*
X12077Y-47783D01*
X12282Y-48276D01*
X9531Y-51027D01*
X9525Y-51030D01*
X8178Y-50966D01*
X7526Y-50302D01*
X7484Y-50284D01*
X7461Y-50246D01*
X6073Y-49221D01*
X6029Y-49211D01*
X6000Y-49176D01*
X4468Y-48384D01*
X4423Y-48380D01*
X4389Y-48351D01*
X2750Y-47811D01*
X2705Y-47815D01*
X2667Y-47791D01*
X964Y-47517D01*
X920Y-47528D01*
X878Y-47511D01*
X-847Y-47510D01*
X-889Y-47527D01*
X-933Y-47517D01*
X-2636Y-47789D01*
X-2674Y-47813D01*
X-2719Y-47809D01*
X-4029Y-48240D01*
X-4568Y-47364D01*
X13922Y-28874D01*
X16957D01*
Y-31043D01*
D02*
G37*
G36*
X23589Y-12616D02*
X23821Y-12840D01*
X23697Y-13776D01*
X23836Y-14831D01*
X24244Y-15815D01*
X24892Y-16659D01*
X25736Y-17308D01*
X26720Y-17715D01*
X27775Y-17854D01*
X28831Y-17715D01*
X29815Y-17308D01*
X30299Y-16936D01*
X31299Y-17399D01*
Y-20319D01*
X31377Y-20709D01*
X31598Y-21040D01*
X34782Y-24224D01*
X34577Y-24717D01*
X34474Y-25500D01*
X34577Y-26283D01*
X34879Y-27013D01*
X35360Y-27640D01*
X35987Y-28120D01*
X36717Y-28423D01*
X37500Y-28526D01*
X38283Y-28423D01*
X38830Y-28196D01*
X39420Y-28457D01*
X39804Y-28774D01*
X39752Y-29871D01*
X39767Y-29913D01*
X39755Y-29957D01*
X39947Y-31671D01*
X39969Y-31710D01*
X39963Y-31755D01*
X40424Y-33417D01*
X40452Y-33453D01*
X40454Y-33498D01*
X41172Y-35067D01*
X41205Y-35097D01*
X41214Y-35142D01*
X42171Y-36576D01*
X42209Y-36601D01*
X42224Y-36644D01*
X43397Y-37909D01*
X43438Y-37928D01*
X43460Y-37967D01*
X44818Y-39031D01*
X44864Y-39974D01*
X38300Y-51344D01*
X37559Y-52004D01*
X36337Y-51528D01*
X36287Y-51529D01*
X36244Y-51501D01*
X34958Y-51250D01*
X34908Y-51261D01*
X34861Y-51240D01*
X33550Y-51223D01*
X33540Y-51215D01*
Y-39375D01*
X33462Y-38984D01*
X33241Y-38654D01*
X25063Y-30476D01*
Y-30043D01*
X25043Y-29945D01*
Y-22957D01*
X22019D01*
Y-13227D01*
X22915Y-12331D01*
X23589Y-12616D01*
D02*
G37*
G36*
X878Y-48052D02*
X2581Y-48325D01*
X4219Y-48865D01*
X5752Y-49657D01*
X7140Y-50681D01*
X8348Y-51912D01*
X9346Y-53319D01*
X10109Y-54866D01*
X10617Y-56514D01*
X10859Y-58222D01*
X10843Y-59085D01*
X-10819Y-59078D01*
X-10835Y-58216D01*
X-10592Y-56508D01*
X-10082Y-54860D01*
X-9319Y-53313D01*
X-8319Y-51907D01*
X-7111Y-50677D01*
X-5722Y-49653D01*
X-4189Y-48862D01*
X-2550Y-48324D01*
X-847Y-48051D01*
X878Y-48052D01*
D02*
G37*
G36*
X34854Y-51782D02*
X36141Y-52032D01*
X37363Y-52508D01*
X37921Y-52851D01*
X34209Y-59264D01*
X26799Y-59273D01*
X26781Y-58618D01*
X26980Y-57322D01*
X27406Y-56082D01*
X28046Y-54937D01*
X28880Y-53926D01*
X29881Y-53078D01*
X31016Y-52423D01*
X32250Y-51980D01*
X33543Y-51764D01*
X34854Y-51782D01*
D02*
G37*
G36*
X-32250Y-51980D02*
X-31016Y-52423D01*
X-29881Y-53078D01*
X-28880Y-53926D01*
X-28046Y-54937D01*
X-27406Y-56082D01*
X-26980Y-57322D01*
X-26781Y-58618D01*
X-26799Y-59273D01*
X-34209Y-59264D01*
X-37921Y-52851D01*
X-37363Y-52508D01*
X-36141Y-52032D01*
X-34854Y-51782D01*
X-33543Y-51764D01*
X-32250Y-51980D01*
D02*
G37*
%LPC*%
G36*
X26028Y39575D02*
X21878D01*
Y35425D01*
X21878D01*
X21915Y34425D01*
X21441Y34164D01*
X21114Y34370D01*
X20593Y34370D01*
X18809D01*
X18274Y35370D01*
X18311Y35425D01*
X20122D01*
Y39575D01*
X15972D01*
Y36867D01*
X8996Y29890D01*
X8260Y29252D01*
X6500D01*
Y26500D01*
Y23748D01*
X8232D01*
Y17174D01*
X4578Y13520D01*
X-5500D01*
X-5890Y13442D01*
X-6221Y13221D01*
X-9724Y9718D01*
X-10217Y9923D01*
X-11000Y10026D01*
X-11783Y9923D01*
X-12513Y9621D01*
X-13140Y9140D01*
X-13621Y8513D01*
X-13923Y7783D01*
X-14026Y7000D01*
X-13923Y6217D01*
X-13621Y5487D01*
X-13140Y4860D01*
X-12513Y4380D01*
X-11783Y4077D01*
X-11338Y4019D01*
X-10950Y3164D01*
X-10940Y3002D01*
X-21922Y-7981D01*
X-36536D01*
X-36864Y-7189D01*
X-37439Y-6439D01*
X-38189Y-5864D01*
X-39063Y-5502D01*
X-40000Y-5378D01*
X-40937Y-5502D01*
X-41811Y-5864D01*
X-42561Y-6439D01*
X-43136Y-7189D01*
X-43498Y-8063D01*
X-43622Y-9000D01*
X-43498Y-9937D01*
X-43136Y-10811D01*
X-42561Y-11561D01*
X-41811Y-12136D01*
X-40937Y-12498D01*
X-40000Y-12622D01*
X-39063Y-12498D01*
X-38189Y-12136D01*
X-37439Y-11561D01*
X-36864Y-10811D01*
X-36536Y-10020D01*
X-21500D01*
X-21110Y-9942D01*
X-20779Y-9721D01*
X-10320Y738D01*
X-9426Y218D01*
X-9527Y-551D01*
X-9388Y-1607D01*
X-8981Y-2590D01*
X-8333Y-3435D01*
X-7488Y-4083D01*
X-6504Y-4490D01*
X-6469Y-4495D01*
Y-23056D01*
X-6504Y-23061D01*
X-7488Y-23468D01*
X-8333Y-24116D01*
X-8981Y-24961D01*
X-9388Y-25945D01*
X-9527Y-27000D01*
X-9388Y-28056D01*
X-8981Y-29039D01*
X-8333Y-29884D01*
X-7488Y-30532D01*
X-6504Y-30939D01*
X-5449Y-31078D01*
X-4393Y-30939D01*
X-3410Y-30532D01*
X-2565Y-29884D01*
X-1917Y-29039D01*
X-1510Y-28056D01*
X-1371Y-27000D01*
X-1510Y-25945D01*
X-1917Y-24961D01*
X-2565Y-24116D01*
X-3410Y-23468D01*
X-4393Y-23061D01*
X-4429Y-23056D01*
Y-4495D01*
X-4393Y-4490D01*
X-3410Y-4083D01*
X-2565Y-3435D01*
X-1917Y-2590D01*
X-1510Y-1607D01*
X-1371Y-551D01*
X-1510Y504D01*
X-1917Y1488D01*
X-2565Y2332D01*
X-3410Y2981D01*
X-4393Y3388D01*
X-5449Y3527D01*
X-6218Y3426D01*
X-6738Y4320D01*
X-1578Y9480D01*
X5500D01*
X5890Y9558D01*
X6221Y9779D01*
X14352Y17910D01*
X14765Y17928D01*
X15587Y17731D01*
X15896Y17329D01*
X16523Y16848D01*
X17252Y16546D01*
X18035Y16443D01*
X18819Y16546D01*
X19548Y16848D01*
X20175Y17329D01*
X20656Y17956D01*
X20958Y18685D01*
X21061Y19469D01*
X20958Y20252D01*
X20656Y20981D01*
X20175Y21608D01*
X19548Y22089D01*
X18819Y22391D01*
X18035Y22494D01*
X17252Y22391D01*
X16770Y22192D01*
X13272Y25690D01*
Y28752D01*
X12048D01*
X11665Y29676D01*
X15041Y33051D01*
X15965Y32669D01*
Y32000D01*
X18539D01*
Y31500D01*
X19039D01*
Y28630D01*
X20593D01*
X21114Y28630D01*
X21907Y29130D01*
X25535D01*
Y33870D01*
X24480D01*
Y35425D01*
X26028D01*
Y39575D01*
D02*
G37*
G36*
X18039Y31000D02*
X15965D01*
Y28630D01*
X18039D01*
Y31000D01*
D02*
G37*
G36*
X5500Y29252D02*
X3740D01*
Y27520D01*
X1000D01*
X610Y27442D01*
X279Y27221D01*
X58Y26890D01*
X-20Y26500D01*
X58Y26110D01*
X279Y25779D01*
X610Y25558D01*
X1000Y25480D01*
X3740D01*
Y23748D01*
X5500D01*
Y26500D01*
Y29252D01*
D02*
G37*
G36*
X-20500Y35526D02*
X-21283Y35423D01*
X-22013Y35120D01*
X-22640Y34640D01*
X-23121Y34013D01*
X-23423Y33283D01*
X-23526Y32500D01*
X-23423Y31717D01*
X-23121Y30987D01*
X-22640Y30360D01*
X-22013Y29880D01*
X-21520Y29675D01*
Y19922D01*
X-37689Y3753D01*
X-38189Y4136D01*
X-39063Y4498D01*
X-40000Y4622D01*
X-40937Y4498D01*
X-41811Y4136D01*
X-42561Y3561D01*
X-43136Y2811D01*
X-43498Y1937D01*
X-43622Y1000D01*
X-43498Y63D01*
X-43136Y-811D01*
X-42561Y-1561D01*
X-41811Y-2136D01*
X-40937Y-2498D01*
X-40000Y-2622D01*
X-39063Y-2498D01*
X-38189Y-2136D01*
X-37439Y-1561D01*
X-36864Y-811D01*
X-36502Y63D01*
X-36378Y1000D01*
X-36502Y1937D01*
X-36537Y2021D01*
X-19779Y18779D01*
X-19558Y19110D01*
X-19480Y19500D01*
Y29675D01*
X-18987Y29880D01*
X-18360Y30360D01*
X-17879Y30987D01*
X-17577Y31717D01*
X-17474Y32500D01*
X-17577Y33283D01*
X-17879Y34013D01*
X-18360Y34640D01*
X-18987Y35120D01*
X-19717Y35423D01*
X-20500Y35526D01*
D02*
G37*
G36*
X19000Y-7980D02*
X18610Y-8058D01*
X18279Y-8279D01*
X18058Y-8610D01*
X17980Y-9000D01*
Y-9500D01*
X18058Y-9890D01*
X18279Y-10221D01*
X18610Y-10442D01*
X19000Y-10520D01*
X19390Y-10442D01*
X19721Y-10221D01*
X19942Y-9890D01*
X20020Y-9500D01*
Y-9000D01*
X19942Y-8610D01*
X19721Y-8279D01*
X19390Y-8058D01*
X19000Y-7980D01*
D02*
G37*
G36*
X-12224Y-9697D02*
X-13280Y-9836D01*
X-14264Y-10244D01*
X-15108Y-10892D01*
X-15756Y-11737D01*
X-16164Y-12720D01*
X-16303Y-13776D01*
X-16164Y-14831D01*
X-15756Y-15815D01*
X-15108Y-16659D01*
X-14264Y-17308D01*
X-13280Y-17715D01*
X-12224Y-17854D01*
X-11169Y-17715D01*
X-10185Y-17308D01*
X-9341Y-16659D01*
X-8693Y-15815D01*
X-8285Y-14831D01*
X-8146Y-13776D01*
X-8285Y-12720D01*
X-8693Y-11737D01*
X-9341Y-10892D01*
X-10185Y-10244D01*
X-11169Y-9836D01*
X-12224Y-9697D01*
D02*
G37*
G36*
X8500Y-18980D02*
X8110Y-19058D01*
X7779Y-19279D01*
X7558Y-19610D01*
X7480Y-20000D01*
Y-20500D01*
X7558Y-20890D01*
X7779Y-21221D01*
X8110Y-21442D01*
X8500Y-21520D01*
X8890Y-21442D01*
X9221Y-21221D01*
X9442Y-20890D01*
X9520Y-20500D01*
Y-20000D01*
X9442Y-19610D01*
X9221Y-19279D01*
X8890Y-19058D01*
X8500Y-18980D01*
D02*
G37*
%LPD*%
D14*
X-37500Y44418D02*
Y45500D01*
Y44418D02*
X-36015Y42932D01*
Y27828D02*
Y42932D01*
X-49883Y13960D02*
X-36015Y27828D01*
X-56043Y13960D02*
X-49883D01*
X-58500Y1500D02*
X-29000Y31000D01*
X-62744Y1500D02*
X-58500D01*
X-29000Y31000D02*
Y48500D01*
X-20500Y19500D02*
Y32500D01*
X-39000Y1000D02*
X-20500Y19500D01*
X-40000Y1000D02*
X-39000D01*
X-32520Y-56339D02*
Y-25835D01*
X-63390Y-855D02*
X-57500D01*
X-32520Y-25835D01*
X-65039Y-0D02*
X-64244D01*
X-62744Y1500D01*
X-42113Y-27058D02*
X-39764Y-24708D01*
X-42416Y-27058D02*
X-42113D01*
X-43508Y-28150D02*
X-42416Y-27058D01*
X21000Y-6050D02*
Y-551D01*
X-39764Y-24708D02*
X-38596D01*
X21000Y-6050D02*
X22500Y-7550D01*
X-15839Y-57194D02*
X13500Y-27855D01*
X21000Y-27000D02*
X24043Y-30043D01*
X-30871Y-57194D02*
X-15839D01*
X-32520Y-56339D02*
X-31725D01*
X24043Y-30898D02*
Y-30043D01*
X22500Y-11304D02*
Y-7550D01*
X13500Y-27855D02*
X20145D01*
X21000Y-27000D02*
Y-12804D01*
X-31725Y-56339D02*
X-30871Y-57194D01*
X32520Y-56339D02*
Y-39375D01*
X20145Y-27855D02*
X21000Y-27000D01*
X-64244Y-0D02*
X-63390Y-855D01*
X24043Y-30898D02*
X32520Y-39375D01*
X21000Y-12804D02*
X22500Y-11304D01*
X-38596Y-24708D02*
X-37916Y-25388D01*
X-39710Y36985D02*
X-39515D01*
X-48585Y28111D02*
X-39710Y36985D01*
X-48780Y28111D02*
X-48585D01*
X-28181Y52000D02*
X-14897D01*
X-4397Y41500D01*
X-32520Y56339D02*
X-28181Y52000D01*
X8500Y-20500D02*
Y-20000D01*
X19000Y-9500D02*
Y-9000D01*
X-32520Y52020D02*
X-29000Y48500D01*
X-4397Y41500D02*
X5121D01*
X58000Y6000D02*
X58519D01*
X58000Y5500D02*
Y6000D01*
X58519D02*
X64520Y-0D01*
X65039D01*
X27999Y51818D02*
X32520Y56339D01*
X27999Y51137D02*
Y51818D01*
X23756Y46894D02*
X27999Y51137D01*
X23756Y46500D02*
Y46894D01*
X21575Y49075D02*
X23756Y46894D01*
X47000Y-6000D02*
Y-5500D01*
X58000Y5500D01*
X12625Y49075D02*
X21575D01*
X7373Y43823D02*
X12625Y49075D01*
X7373Y43752D02*
Y43823D01*
X5121Y41500D02*
X7373Y43752D01*
X-32520Y52020D02*
Y56339D01*
X40500Y19000D02*
Y19435D01*
X48780Y27715D02*
Y28150D01*
X40500Y19435D02*
X48780Y27715D01*
X17000Y10500D02*
X30784D01*
X20889Y6611D02*
X31889D01*
X32319Y-20319D02*
Y6181D01*
X31889Y6611D02*
X32319Y6181D01*
X77Y45873D02*
Y56262D01*
Y45873D02*
X709Y45240D01*
X-0Y56339D02*
X77Y56262D01*
X12500Y44000D02*
X13063D01*
X15563Y46500D01*
X-2000Y10500D02*
X5500D01*
X-21500Y-9000D02*
X-2000Y10500D01*
X5500D02*
X14469Y19469D01*
X18035D01*
X11512Y26008D02*
X18035Y19484D01*
X-5500Y12500D02*
X5000D01*
X9252Y16752D01*
Y28705D01*
X-11000Y7000D02*
X-5500Y12500D01*
X9252Y28705D02*
X18047Y37500D01*
X18539Y31205D02*
Y31500D01*
X18035Y19469D02*
Y19484D01*
X23461Y37008D02*
X23953Y37500D01*
X23461Y31500D02*
Y37008D01*
X-48780Y-28150D02*
X-43508D01*
X-40000Y-9000D02*
X-21500D01*
X32319Y-20319D02*
X37500Y-25500D01*
X33819Y-14535D02*
X46911Y-27628D01*
X33819Y-14535D02*
Y7465D01*
X48218Y-27628D02*
X48780Y-28190D01*
X46911Y-27628D02*
X48218D01*
X30784Y10500D02*
X33819Y7465D01*
X1000Y26500D02*
X6000D01*
X11512Y26008D02*
Y26500D01*
X5850Y-56150D02*
X15000Y-47000D01*
X-0Y-56150D02*
X5850D01*
X15563Y46500D02*
X18244D01*
X-5449Y-27000D02*
Y-551D01*
D17*
X32520Y56339D02*
D03*
X-32520Y-56339D02*
D03*
X-0Y56339D02*
D03*
Y-56150D02*
D03*
D18*
X23756Y46500D02*
D03*
X18244D02*
D03*
D19*
X65039Y-0D02*
D03*
X-65039D02*
D03*
X-48780Y-28150D02*
D03*
X48780Y28150D02*
D03*
D20*
X32520Y-56339D02*
D03*
X-32520Y56339D02*
D03*
X-48780Y28111D02*
D03*
X48780Y-28190D02*
D03*
D21*
X6000Y26500D02*
D03*
X11512D02*
D03*
D22*
X18539Y31500D02*
D03*
X23461D02*
D03*
D23*
X23953Y37500D02*
D03*
X18047D02*
D03*
D29*
X-40000Y1000D02*
D03*
Y-9000D02*
D03*
D30*
Y11000D02*
D03*
D33*
X21000Y-27000D02*
D03*
D34*
X27775Y-13776D02*
D03*
X21000Y-551D02*
D03*
X-5449D02*
D03*
X-12224Y-13776D02*
D03*
X-5449Y-27000D02*
D03*
D35*
X-53500Y1000D02*
D03*
X-37916Y-25388D02*
D03*
X-39515Y36985D02*
D03*
X-19000Y56000D02*
D03*
X23500D02*
D03*
X-37500Y45500D02*
D03*
X38500Y-38500D02*
D03*
X-26500Y-50500D02*
D03*
X-38000Y-41000D02*
D03*
X-54000Y-13000D02*
D03*
X-925Y-33284D02*
D03*
X-24547Y-17536D02*
D03*
X-16673Y-33284D02*
D03*
X-56043Y13960D02*
D03*
X8500Y-20500D02*
D03*
X5500Y19000D02*
D03*
X-2000Y18500D02*
D03*
X-9000Y26500D02*
D03*
X6000Y34000D02*
D03*
X-3000D02*
D03*
X-29000Y48500D02*
D03*
X58000Y6000D02*
D03*
X47000Y-6000D02*
D03*
X40500Y19000D02*
D03*
X40000Y12000D02*
D03*
X37643Y26500D02*
D03*
X19000Y-9000D02*
D03*
X25000Y-49500D02*
D03*
X5000Y-43500D02*
D03*
X17000Y10500D02*
D03*
X20889Y6611D02*
D03*
X-10500Y18000D02*
D03*
X-44500Y-4000D02*
D03*
X1000Y26500D02*
D03*
X-9500Y34000D02*
D03*
X-15103Y47256D02*
D03*
X709Y45240D02*
D03*
X12500Y44000D02*
D03*
X18035Y19469D02*
D03*
X-11000Y7000D02*
D03*
X-20500Y32500D02*
D03*
X37500Y-25500D02*
D03*
X15000Y-47000D02*
D03*
M02*
