G04*
G04 #@! TF.GenerationSoftware,Altium Limited,Altium Designer,25.8.1 (18)*
G04*
G04 Layer_Color=65535*
%FSLAX25Y25*%
%MOIN*%
G70*
G04*
G04 #@! TF.SameCoordinates,6E160E92-40C3-423E-B2D9-D39BCFFA93BC*
G04*
G04*
G04 #@! TF.FilePolarity,Positive*
G04*
G01*
G75*
%ADD10C,0.00984*%
%ADD11C,0.00787*%
%ADD12C,0.00315*%
%ADD13C,0.00394*%
%ADD14C,0.01000*%
%ADD15C,0.00300*%
%ADD16C,0.00750*%
G36*
X-14660Y39340D02*
Y39280D01*
Y39220D01*
Y39160D01*
Y39100D01*
Y39040D01*
Y38980D01*
Y38920D01*
Y38860D01*
Y38800D01*
Y38740D01*
Y38680D01*
Y38620D01*
Y38560D01*
Y38500D01*
Y38440D01*
Y38380D01*
Y38320D01*
Y38260D01*
Y38200D01*
Y38140D01*
Y38080D01*
Y38020D01*
Y37960D01*
Y37900D01*
Y37840D01*
Y37780D01*
Y37720D01*
Y37660D01*
Y37600D01*
Y37540D01*
Y37480D01*
Y37420D01*
Y37360D01*
Y37300D01*
Y37240D01*
Y37180D01*
Y37120D01*
Y37060D01*
Y37000D01*
Y36940D01*
Y36880D01*
Y36820D01*
Y36760D01*
Y36700D01*
Y36640D01*
Y36580D01*
Y36520D01*
Y36460D01*
Y36400D01*
Y36340D01*
Y36280D01*
Y36220D01*
Y36160D01*
Y36100D01*
Y36040D01*
Y35980D01*
Y35920D01*
Y35860D01*
Y35800D01*
Y35740D01*
Y35680D01*
Y35620D01*
Y35560D01*
Y35500D01*
Y35440D01*
Y35380D01*
Y35320D01*
Y35260D01*
Y35200D01*
Y35140D01*
Y35080D01*
Y35020D01*
Y34960D01*
Y34900D01*
Y34840D01*
Y34780D01*
Y34720D01*
Y34660D01*
Y34600D01*
Y34540D01*
Y34480D01*
Y34420D01*
Y34360D01*
Y34300D01*
Y34240D01*
Y34180D01*
Y34120D01*
Y34060D01*
Y34000D01*
Y33940D01*
Y33880D01*
Y33820D01*
Y33760D01*
Y33700D01*
Y33640D01*
Y33580D01*
Y33520D01*
Y33460D01*
Y33400D01*
Y33340D01*
Y33280D01*
Y33220D01*
Y33160D01*
Y33100D01*
Y33040D01*
Y32980D01*
Y32920D01*
Y32860D01*
X-17420D01*
Y32920D01*
X-17480D01*
Y32980D01*
Y33040D01*
Y33100D01*
Y33160D01*
Y33220D01*
Y33280D01*
Y33340D01*
Y33400D01*
Y33460D01*
Y33520D01*
Y33580D01*
Y33640D01*
Y33700D01*
Y33760D01*
Y33820D01*
Y33880D01*
Y33940D01*
Y34000D01*
Y34060D01*
Y34120D01*
Y34180D01*
Y34240D01*
Y34300D01*
Y34360D01*
Y34420D01*
Y34480D01*
Y34540D01*
Y34600D01*
Y34660D01*
Y34720D01*
Y34780D01*
Y34840D01*
Y34900D01*
Y34960D01*
Y35020D01*
Y35080D01*
Y35140D01*
Y35200D01*
Y35260D01*
Y35320D01*
Y35380D01*
Y35440D01*
Y35500D01*
Y35560D01*
Y35620D01*
Y35680D01*
Y35740D01*
Y35800D01*
Y35860D01*
Y35920D01*
Y35980D01*
Y36040D01*
Y36100D01*
Y36160D01*
Y36220D01*
Y36280D01*
Y36340D01*
X-17540D01*
Y36400D01*
Y36460D01*
X-17600D01*
Y36520D01*
X-17660D01*
Y36580D01*
X-17720D01*
Y36640D01*
X-17840D01*
Y36700D01*
X-18080D01*
Y36760D01*
X-18140D01*
Y36700D01*
X-18380D01*
Y36640D01*
X-18500D01*
Y36580D01*
X-18560D01*
Y36520D01*
X-18620D01*
Y36460D01*
X-18680D01*
Y36400D01*
Y36340D01*
X-18740D01*
Y36280D01*
Y36220D01*
Y36160D01*
Y36100D01*
Y36040D01*
Y35980D01*
Y35920D01*
Y35860D01*
Y35800D01*
Y35740D01*
Y35680D01*
Y35620D01*
Y35560D01*
Y35500D01*
Y35440D01*
Y35380D01*
Y35320D01*
Y35260D01*
Y35200D01*
Y35140D01*
Y35080D01*
Y35020D01*
Y34960D01*
Y34900D01*
Y34840D01*
X-18800D01*
Y34780D01*
Y34720D01*
Y34660D01*
Y34600D01*
Y34540D01*
Y34480D01*
Y34420D01*
Y34360D01*
Y34300D01*
Y34240D01*
Y34180D01*
Y34120D01*
Y34060D01*
Y34000D01*
Y33940D01*
Y33880D01*
Y33820D01*
Y33760D01*
Y33700D01*
Y33640D01*
Y33580D01*
Y33520D01*
Y33460D01*
Y33400D01*
Y33340D01*
Y33280D01*
Y33220D01*
Y33160D01*
Y33100D01*
Y33040D01*
Y32980D01*
Y32920D01*
Y32860D01*
Y32800D01*
Y32740D01*
Y32680D01*
Y32620D01*
Y32560D01*
Y32500D01*
Y32440D01*
Y32380D01*
Y32320D01*
Y32260D01*
Y32200D01*
Y32140D01*
Y32080D01*
Y32020D01*
Y31960D01*
Y31900D01*
Y31840D01*
Y31780D01*
Y31720D01*
Y31660D01*
Y31600D01*
Y31540D01*
Y31480D01*
Y31420D01*
Y31360D01*
Y31300D01*
Y31240D01*
Y31180D01*
Y31120D01*
X-18740D01*
Y31060D01*
Y31000D01*
Y30940D01*
Y30880D01*
Y30820D01*
Y30760D01*
Y30700D01*
Y30640D01*
Y30580D01*
Y30520D01*
Y30460D01*
Y30400D01*
Y30340D01*
Y30280D01*
Y30220D01*
Y30160D01*
Y30100D01*
Y30040D01*
Y29980D01*
Y29920D01*
Y29860D01*
Y29800D01*
Y29740D01*
Y29680D01*
Y29620D01*
Y29560D01*
Y29500D01*
Y29440D01*
Y29380D01*
Y29320D01*
Y29260D01*
Y29200D01*
Y29140D01*
Y29080D01*
Y29020D01*
Y28960D01*
Y28900D01*
Y28840D01*
Y28780D01*
Y28720D01*
Y28660D01*
Y28600D01*
Y28540D01*
Y28480D01*
Y28420D01*
Y28360D01*
Y28300D01*
Y28240D01*
Y28180D01*
Y28120D01*
Y28060D01*
Y28000D01*
Y27940D01*
Y27880D01*
Y27820D01*
Y27760D01*
Y27700D01*
Y27640D01*
Y27580D01*
Y27520D01*
Y27460D01*
Y27400D01*
Y27340D01*
Y27280D01*
Y27220D01*
Y27160D01*
Y27100D01*
Y27040D01*
Y26980D01*
Y26920D01*
Y26860D01*
Y26800D01*
Y26740D01*
Y26680D01*
Y26620D01*
Y26560D01*
Y26500D01*
Y26440D01*
Y26380D01*
Y26320D01*
Y26260D01*
Y26200D01*
Y26140D01*
Y26080D01*
Y26020D01*
Y25960D01*
Y25900D01*
Y25840D01*
Y25780D01*
Y25720D01*
Y25660D01*
Y25600D01*
Y25540D01*
Y25480D01*
Y25420D01*
Y25360D01*
Y25300D01*
Y25240D01*
Y25180D01*
Y25120D01*
Y25060D01*
Y25000D01*
Y24940D01*
X-18800D01*
Y24880D01*
X-19820D01*
Y24940D01*
X-20060D01*
Y25000D01*
X-20180D01*
Y25060D01*
X-20240D01*
Y25120D01*
X-20300D01*
Y25180D01*
X-20420D01*
Y25240D01*
Y25300D01*
X-20480D01*
Y25360D01*
X-20540D01*
Y25420D01*
Y25480D01*
X-20600D01*
Y25540D01*
X-20660D01*
Y25600D01*
Y25660D01*
X-20720D01*
Y25720D01*
Y25780D01*
X-20780D01*
Y25840D01*
Y25900D01*
X-20840D01*
Y25960D01*
X-20900D01*
Y26020D01*
Y26080D01*
X-20960D01*
Y26140D01*
Y26200D01*
X-21020D01*
Y26260D01*
X-21080D01*
Y26320D01*
Y26380D01*
X-21140D01*
Y26440D01*
Y26500D01*
X-21200D01*
Y26560D01*
Y26620D01*
X-21260D01*
Y26680D01*
X-21320D01*
Y26740D01*
Y26800D01*
X-21380D01*
Y26860D01*
Y26920D01*
X-21440D01*
Y26980D01*
Y27040D01*
X-21500D01*
Y27100D01*
X-21560D01*
Y27160D01*
Y27220D01*
X-21620D01*
Y27280D01*
Y27340D01*
X-21680D01*
Y27400D01*
Y27460D01*
X-21740D01*
Y27520D01*
X-21800D01*
Y27580D01*
Y27640D01*
X-21860D01*
Y27700D01*
Y27760D01*
X-21920D01*
Y27820D01*
X-21980D01*
Y27880D01*
Y27940D01*
X-22040D01*
Y28000D01*
Y28060D01*
X-22100D01*
Y28120D01*
Y28180D01*
X-22160D01*
Y28240D01*
X-22220D01*
Y28300D01*
Y28360D01*
X-22280D01*
Y28420D01*
Y28480D01*
X-22340D01*
Y28540D01*
Y28600D01*
X-22400D01*
Y28660D01*
X-22460D01*
Y28720D01*
Y28780D01*
X-22520D01*
Y28840D01*
Y28900D01*
X-22580D01*
Y28960D01*
Y29020D01*
X-22640D01*
Y29080D01*
X-22700D01*
Y29140D01*
Y29200D01*
X-22760D01*
Y29260D01*
Y29320D01*
X-22820D01*
Y29380D01*
Y29440D01*
X-22880D01*
Y29500D01*
X-22940D01*
Y29560D01*
Y29620D01*
X-23000D01*
Y29680D01*
Y29740D01*
X-23060D01*
Y29800D01*
Y29860D01*
X-23120D01*
Y29920D01*
X-23180D01*
Y29980D01*
Y30040D01*
X-23240D01*
Y30100D01*
Y30160D01*
X-23300D01*
Y30220D01*
X-23360D01*
Y30280D01*
Y30340D01*
X-23420D01*
Y30400D01*
Y30460D01*
X-23480D01*
Y30520D01*
Y30580D01*
X-23540D01*
Y30640D01*
X-23600D01*
Y30700D01*
Y30760D01*
X-23660D01*
Y30820D01*
Y30880D01*
X-23720D01*
Y30940D01*
Y31000D01*
X-23780D01*
Y31060D01*
X-23840D01*
Y31120D01*
Y31180D01*
X-23900D01*
Y31240D01*
Y31300D01*
X-23960D01*
Y31360D01*
Y31420D01*
X-24020D01*
Y31480D01*
X-24080D01*
Y31540D01*
Y31600D01*
X-24140D01*
Y31660D01*
Y31720D01*
X-24200D01*
Y31780D01*
Y31840D01*
X-24260D01*
Y31900D01*
Y31960D01*
Y32020D01*
Y32080D01*
Y32140D01*
Y32200D01*
Y32260D01*
Y32320D01*
Y32380D01*
Y32440D01*
X-24200D01*
Y32500D01*
Y32560D01*
Y32620D01*
X-24140D01*
Y32680D01*
Y32740D01*
X-24080D01*
Y32800D01*
X-24020D01*
Y32860D01*
Y32920D01*
X-23960D01*
Y32980D01*
Y33040D01*
X-23900D01*
Y33100D01*
Y33160D01*
X-23840D01*
Y33220D01*
X-23780D01*
Y33280D01*
Y33340D01*
X-23720D01*
Y33400D01*
Y33460D01*
X-23660D01*
Y33520D01*
X-23600D01*
Y33580D01*
Y33640D01*
X-23540D01*
Y33700D01*
Y33760D01*
X-23480D01*
Y33820D01*
Y33880D01*
X-23420D01*
Y33940D01*
X-23360D01*
Y34000D01*
Y34060D01*
X-23300D01*
Y34120D01*
Y34180D01*
X-23240D01*
Y34240D01*
Y34300D01*
X-23180D01*
Y34360D01*
X-23120D01*
Y34420D01*
Y34480D01*
X-23060D01*
Y34540D01*
X-23000D01*
Y34600D01*
Y34660D01*
X-22940D01*
Y34720D01*
Y34780D01*
X-22880D01*
Y34840D01*
Y34900D01*
X-22820D01*
Y34960D01*
X-22760D01*
Y35020D01*
Y35080D01*
X-22700D01*
Y35140D01*
Y35200D01*
X-22640D01*
Y35260D01*
Y35320D01*
X-22580D01*
Y35380D01*
X-22520D01*
Y35440D01*
Y35500D01*
X-22460D01*
Y35560D01*
Y35620D01*
X-22400D01*
Y35680D01*
Y35740D01*
X-22340D01*
Y35800D01*
X-22280D01*
Y35860D01*
Y35920D01*
X-22220D01*
Y35980D01*
Y36040D01*
X-22160D01*
Y36100D01*
X-22100D01*
Y36160D01*
Y36220D01*
X-22040D01*
Y36280D01*
Y36340D01*
X-21980D01*
Y36400D01*
Y36460D01*
X-21920D01*
Y36520D01*
X-21860D01*
Y36580D01*
Y36640D01*
X-21800D01*
Y36700D01*
Y36760D01*
X-21740D01*
Y36820D01*
Y36880D01*
X-21680D01*
Y36940D01*
X-21620D01*
Y37000D01*
Y37060D01*
X-21560D01*
Y37120D01*
Y37180D01*
X-21500D01*
Y37240D01*
Y37300D01*
X-21440D01*
Y37360D01*
X-21380D01*
Y37420D01*
Y37480D01*
X-21320D01*
Y37540D01*
Y37600D01*
X-21260D01*
Y37660D01*
X-21200D01*
Y37720D01*
Y37780D01*
X-21140D01*
Y37840D01*
Y37900D01*
X-21080D01*
Y37960D01*
Y38020D01*
X-21020D01*
Y38080D01*
X-20960D01*
Y38140D01*
Y38200D01*
X-20900D01*
Y38260D01*
Y38320D01*
X-20840D01*
Y38380D01*
Y38440D01*
X-20780D01*
Y38500D01*
X-20720D01*
Y38560D01*
Y38620D01*
X-20660D01*
Y38680D01*
Y38740D01*
X-20600D01*
Y38800D01*
Y38860D01*
X-20540D01*
Y38920D01*
X-20480D01*
Y38980D01*
Y39040D01*
X-20420D01*
Y39100D01*
X-20360D01*
Y39160D01*
X-20300D01*
Y39220D01*
X-20180D01*
Y39280D01*
X-20060D01*
Y39340D01*
X-19940D01*
Y39400D01*
X-14660D01*
Y39340D01*
D02*
G37*
G36*
X-12200D02*
X-12020D01*
Y39280D01*
X-11900D01*
Y39220D01*
X-11840D01*
Y39160D01*
X-11780D01*
Y39100D01*
X-11720D01*
Y39040D01*
X-11660D01*
Y38980D01*
X-11600D01*
Y38920D01*
X-11540D01*
Y38860D01*
Y38800D01*
X-11480D01*
Y38740D01*
Y38680D01*
X-11420D01*
Y38620D01*
Y38560D01*
X-11360D01*
Y38500D01*
X-11300D01*
Y38440D01*
Y38380D01*
X-11240D01*
Y38320D01*
Y38260D01*
X-11180D01*
Y38200D01*
X-11120D01*
Y38140D01*
Y38080D01*
X-11060D01*
Y38020D01*
Y37960D01*
X-11000D01*
Y37900D01*
Y37840D01*
X-10940D01*
Y37780D01*
X-10880D01*
Y37720D01*
Y37660D01*
X-10820D01*
Y37600D01*
Y37540D01*
X-10760D01*
Y37480D01*
Y37420D01*
X-10700D01*
Y37360D01*
X-10640D01*
Y37300D01*
Y37240D01*
X-10580D01*
Y37180D01*
Y37120D01*
X-10520D01*
Y37060D01*
Y37000D01*
X-10460D01*
Y36940D01*
X-10400D01*
Y36880D01*
Y36820D01*
X-10340D01*
Y36760D01*
Y36700D01*
X-10280D01*
Y36640D01*
X-10220D01*
Y36580D01*
Y36520D01*
X-10160D01*
Y36460D01*
Y36400D01*
X-10100D01*
Y36340D01*
Y36280D01*
X-10040D01*
Y36220D01*
X-9980D01*
Y36160D01*
Y36100D01*
X-9920D01*
Y36040D01*
Y35980D01*
X-9860D01*
Y35920D01*
Y35860D01*
X-9800D01*
Y35800D01*
X-9740D01*
Y35740D01*
Y35680D01*
X-9680D01*
Y35620D01*
Y35560D01*
X-9620D01*
Y35500D01*
Y35440D01*
X-9560D01*
Y35380D01*
X-9500D01*
Y35320D01*
Y35260D01*
X-9440D01*
Y35200D01*
Y35140D01*
X-9380D01*
Y35080D01*
X-9320D01*
Y35020D01*
Y34960D01*
X-9260D01*
Y34900D01*
Y34840D01*
X-9200D01*
Y34780D01*
Y34720D01*
X-9140D01*
Y34660D01*
X-9080D01*
Y34600D01*
Y34540D01*
X-9020D01*
Y34480D01*
Y34420D01*
X-8960D01*
Y34360D01*
Y34300D01*
X-8900D01*
Y34240D01*
X-8840D01*
Y34180D01*
Y34120D01*
X-8780D01*
Y34060D01*
Y34000D01*
X-8720D01*
Y33940D01*
Y33880D01*
X-8660D01*
Y33820D01*
X-8600D01*
Y33760D01*
Y33700D01*
X-8540D01*
Y33640D01*
Y33580D01*
X-8480D01*
Y33520D01*
X-8420D01*
Y33460D01*
Y33400D01*
X-8360D01*
Y33340D01*
Y33280D01*
X-8300D01*
Y33220D01*
Y33160D01*
X-8240D01*
Y33100D01*
X-8180D01*
Y33040D01*
Y32980D01*
X-8120D01*
Y32920D01*
Y32860D01*
X-8060D01*
Y32800D01*
Y32740D01*
X-8000D01*
Y32680D01*
X-7940D01*
Y32620D01*
Y32560D01*
X-7880D01*
Y32500D01*
Y32440D01*
Y32380D01*
Y32320D01*
X-7820D01*
Y32260D01*
Y32200D01*
Y32140D01*
Y32080D01*
Y32020D01*
X-7880D01*
Y31960D01*
Y31900D01*
Y31840D01*
Y31780D01*
X-7940D01*
Y31720D01*
Y31660D01*
X-8000D01*
Y31600D01*
Y31540D01*
X-8060D01*
Y31480D01*
Y31420D01*
X-8120D01*
Y31360D01*
X-8180D01*
Y31300D01*
Y31240D01*
X-8240D01*
Y31180D01*
Y31120D01*
X-8300D01*
Y31060D01*
X-8360D01*
Y31000D01*
Y30940D01*
X-8420D01*
Y30880D01*
Y30820D01*
X-8480D01*
Y30760D01*
Y30700D01*
X-8540D01*
Y30640D01*
X-8600D01*
Y30580D01*
Y30520D01*
X-8660D01*
Y30460D01*
Y30400D01*
X-8720D01*
Y30340D01*
Y30280D01*
X-8780D01*
Y30220D01*
X-8840D01*
Y30160D01*
Y30100D01*
X-8900D01*
Y30040D01*
Y29980D01*
X-8960D01*
Y29920D01*
X-9020D01*
Y29860D01*
Y29800D01*
X-9080D01*
Y29740D01*
Y29680D01*
X-9140D01*
Y29620D01*
Y29560D01*
X-9200D01*
Y29500D01*
X-9260D01*
Y29440D01*
Y29380D01*
X-9320D01*
Y29320D01*
Y29260D01*
X-9380D01*
Y29200D01*
Y29140D01*
X-9440D01*
Y29080D01*
X-9500D01*
Y29020D01*
Y28960D01*
X-9560D01*
Y28900D01*
Y28840D01*
X-9620D01*
Y28780D01*
X-9680D01*
Y28720D01*
Y28660D01*
X-9740D01*
Y28600D01*
Y28540D01*
X-9800D01*
Y28480D01*
Y28420D01*
X-9860D01*
Y28360D01*
X-9920D01*
Y28300D01*
Y28240D01*
X-9980D01*
Y28180D01*
Y28120D01*
X-10040D01*
Y28060D01*
Y28000D01*
X-10100D01*
Y27940D01*
Y27880D01*
X-10160D01*
Y27820D01*
Y27760D01*
X-10220D01*
Y27700D01*
X-10280D01*
Y27640D01*
Y27580D01*
X-10340D01*
Y27520D01*
Y27460D01*
X-10400D01*
Y27400D01*
X-10460D01*
Y27340D01*
Y27280D01*
X-10520D01*
Y27220D01*
Y27160D01*
X-10580D01*
Y27100D01*
Y27040D01*
X-10640D01*
Y26980D01*
X-10700D01*
Y26920D01*
Y26860D01*
X-10760D01*
Y26800D01*
Y26740D01*
X-10820D01*
Y26680D01*
Y26620D01*
X-10880D01*
Y26560D01*
X-10940D01*
Y26500D01*
Y26440D01*
X-11000D01*
Y26380D01*
Y26320D01*
X-11060D01*
Y26260D01*
Y26200D01*
X-11120D01*
Y26140D01*
X-11180D01*
Y26080D01*
Y26020D01*
X-11240D01*
Y25960D01*
Y25900D01*
X-11300D01*
Y25840D01*
Y25780D01*
X-11360D01*
Y25720D01*
X-11420D01*
Y25660D01*
Y25600D01*
X-11480D01*
Y25540D01*
Y25480D01*
X-11540D01*
Y25420D01*
X-11600D01*
Y25360D01*
Y25300D01*
X-11660D01*
Y25240D01*
X-11720D01*
Y25180D01*
X-11780D01*
Y25120D01*
X-11840D01*
Y25060D01*
X-11960D01*
Y25000D01*
X-12080D01*
Y24940D01*
X-12260D01*
Y24880D01*
X-17420D01*
Y24940D01*
X-17480D01*
Y25000D01*
Y25060D01*
Y25120D01*
Y25180D01*
Y25240D01*
Y25300D01*
Y25360D01*
Y25420D01*
Y25480D01*
Y25540D01*
Y25600D01*
Y25660D01*
Y25720D01*
Y25780D01*
Y25840D01*
Y25900D01*
Y25960D01*
Y26020D01*
Y26080D01*
Y26140D01*
Y26200D01*
Y26260D01*
Y26320D01*
Y26380D01*
Y26440D01*
Y26500D01*
Y26560D01*
Y26620D01*
Y26680D01*
Y26740D01*
Y26800D01*
Y26860D01*
Y26920D01*
Y26980D01*
Y27040D01*
Y27100D01*
Y27160D01*
Y27220D01*
Y27280D01*
Y27340D01*
Y27400D01*
Y27460D01*
Y27520D01*
Y27580D01*
Y27640D01*
Y27700D01*
Y27760D01*
Y27820D01*
Y27880D01*
Y27940D01*
Y28000D01*
Y28060D01*
Y28120D01*
Y28180D01*
Y28240D01*
Y28300D01*
Y28360D01*
Y28420D01*
Y28480D01*
Y28540D01*
Y28600D01*
Y28660D01*
Y28720D01*
Y28780D01*
Y28840D01*
Y28900D01*
Y28960D01*
Y29020D01*
Y29080D01*
Y29140D01*
Y29200D01*
Y29260D01*
Y29320D01*
Y29380D01*
Y29440D01*
Y29500D01*
Y29560D01*
Y29620D01*
Y29680D01*
Y29740D01*
Y29800D01*
Y29860D01*
Y29920D01*
Y29980D01*
Y30040D01*
Y30100D01*
Y30160D01*
Y30220D01*
Y30280D01*
Y30340D01*
Y30400D01*
Y30460D01*
Y30520D01*
Y30580D01*
Y30640D01*
Y30700D01*
Y30760D01*
Y30820D01*
Y30880D01*
Y30940D01*
Y31000D01*
Y31060D01*
Y31120D01*
Y31180D01*
Y31240D01*
Y31300D01*
Y31360D01*
Y31420D01*
X-17420D01*
Y31480D01*
X-14660D01*
Y31420D01*
Y31360D01*
Y31300D01*
Y31240D01*
Y31180D01*
Y31120D01*
Y31060D01*
Y31000D01*
Y30940D01*
Y30880D01*
Y30820D01*
Y30760D01*
Y30700D01*
Y30640D01*
Y30580D01*
Y30520D01*
Y30460D01*
Y30400D01*
Y30340D01*
Y30280D01*
Y30220D01*
Y30160D01*
Y30100D01*
Y30040D01*
Y29980D01*
Y29920D01*
Y29860D01*
Y29800D01*
Y29740D01*
Y29680D01*
Y29620D01*
Y29560D01*
Y29500D01*
Y29440D01*
Y29380D01*
Y29320D01*
Y29260D01*
Y29200D01*
Y29140D01*
Y29080D01*
X-14600D01*
Y29020D01*
Y28960D01*
Y28900D01*
Y28840D01*
Y28780D01*
Y28720D01*
Y28660D01*
Y28600D01*
Y28540D01*
Y28480D01*
Y28420D01*
Y28360D01*
Y28300D01*
Y28240D01*
Y28180D01*
Y28120D01*
Y28060D01*
Y28000D01*
Y27940D01*
X-14540D01*
Y27880D01*
X-14480D01*
Y27820D01*
Y27760D01*
X-14360D01*
Y27700D01*
X-14300D01*
Y27640D01*
X-14120D01*
Y27580D01*
X-13820D01*
Y27640D01*
X-13700D01*
Y27700D01*
X-13580D01*
Y27760D01*
X-13520D01*
Y27820D01*
X-13460D01*
Y27880D01*
X-13400D01*
Y27940D01*
Y28000D01*
Y28060D01*
X-13340D01*
Y28120D01*
Y28180D01*
Y28240D01*
Y28300D01*
Y28360D01*
Y28420D01*
Y28480D01*
Y28540D01*
Y28600D01*
Y28660D01*
Y28720D01*
Y28780D01*
Y28840D01*
Y28900D01*
Y28960D01*
Y29020D01*
Y29080D01*
Y29140D01*
Y29200D01*
Y29260D01*
Y29320D01*
Y29380D01*
Y29440D01*
Y29500D01*
Y29560D01*
Y29620D01*
Y29680D01*
Y29740D01*
Y29800D01*
Y29860D01*
Y29920D01*
Y29980D01*
Y30040D01*
Y30100D01*
Y30160D01*
Y30220D01*
Y30280D01*
Y30340D01*
Y30400D01*
Y30460D01*
Y30520D01*
Y30580D01*
Y30640D01*
Y30700D01*
Y30760D01*
Y30820D01*
Y30880D01*
Y30940D01*
Y31000D01*
Y31060D01*
Y31120D01*
Y31180D01*
Y31240D01*
Y31300D01*
Y31360D01*
Y31420D01*
Y31480D01*
Y31540D01*
Y31600D01*
Y31660D01*
Y31720D01*
Y31780D01*
Y31840D01*
Y31900D01*
Y31960D01*
Y32020D01*
Y32080D01*
Y32140D01*
Y32200D01*
Y32260D01*
Y32320D01*
Y32380D01*
Y32440D01*
Y32500D01*
Y32560D01*
Y32620D01*
Y32680D01*
Y32740D01*
Y32800D01*
Y32860D01*
Y32920D01*
Y32980D01*
Y33040D01*
Y33100D01*
Y33160D01*
Y33220D01*
Y33280D01*
Y33340D01*
Y33400D01*
Y33460D01*
Y33520D01*
Y33580D01*
Y33640D01*
Y33700D01*
Y33760D01*
Y33820D01*
Y33880D01*
Y33940D01*
Y34000D01*
Y34060D01*
Y34120D01*
Y34180D01*
Y34240D01*
Y34300D01*
Y34360D01*
Y34420D01*
Y34480D01*
Y34540D01*
Y34600D01*
Y34660D01*
Y34720D01*
Y34780D01*
Y34840D01*
Y34900D01*
Y34960D01*
Y35020D01*
Y35080D01*
Y35140D01*
Y35200D01*
Y35260D01*
Y35320D01*
Y35380D01*
Y35440D01*
Y35500D01*
Y35560D01*
Y35620D01*
Y35680D01*
Y35740D01*
Y35800D01*
Y35860D01*
Y35920D01*
Y35980D01*
Y36040D01*
Y36100D01*
Y36160D01*
Y36220D01*
Y36280D01*
Y36340D01*
Y36400D01*
Y36460D01*
Y36520D01*
Y36580D01*
Y36640D01*
Y36700D01*
Y36760D01*
Y36820D01*
Y36880D01*
Y36940D01*
Y37000D01*
Y37060D01*
Y37120D01*
Y37180D01*
Y37240D01*
Y37300D01*
Y37360D01*
Y37420D01*
Y37480D01*
Y37540D01*
Y37600D01*
Y37660D01*
Y37720D01*
Y37780D01*
Y37840D01*
Y37900D01*
Y37960D01*
Y38020D01*
Y38080D01*
Y38140D01*
Y38200D01*
Y38260D01*
Y38320D01*
Y38380D01*
Y38440D01*
Y38500D01*
Y38560D01*
Y38620D01*
Y38680D01*
Y38740D01*
Y38800D01*
Y38860D01*
Y38920D01*
Y38980D01*
Y39040D01*
Y39100D01*
Y39160D01*
Y39220D01*
Y39280D01*
Y39340D01*
Y39400D01*
X-12200D01*
Y39340D01*
D02*
G37*
G36*
X15453Y29971D02*
X15202D01*
Y31573D01*
X15199Y31570D01*
X15184Y31558D01*
X15166Y31540D01*
X15137Y31519D01*
X15104Y31493D01*
X15063Y31463D01*
X15015Y31431D01*
X14962Y31398D01*
X14959D01*
X14956Y31395D01*
X14938Y31383D01*
X14909Y31368D01*
X14873Y31351D01*
X14832Y31330D01*
X14787Y31309D01*
X14743Y31289D01*
X14699Y31271D01*
Y31514D01*
X14702D01*
X14707Y31519D01*
X14719Y31522D01*
X14734Y31531D01*
X14752Y31540D01*
X14773Y31552D01*
X14823Y31582D01*
X14882Y31614D01*
X14941Y31656D01*
X15003Y31703D01*
X15066Y31753D01*
X15069Y31756D01*
X15071Y31759D01*
X15080Y31768D01*
X15092Y31777D01*
X15119Y31807D01*
X15154Y31842D01*
X15190Y31884D01*
X15228Y31931D01*
X15261Y31978D01*
X15291Y32029D01*
X15453D01*
Y29971D01*
D02*
G37*
G36*
X13521Y32017D02*
X13547D01*
X13609Y32014D01*
X13674Y32005D01*
X13745Y31996D01*
X13811Y31981D01*
X13843Y31972D01*
X13870Y31964D01*
X13873D01*
X13876Y31960D01*
X13893Y31952D01*
X13920Y31940D01*
X13953Y31919D01*
X13988Y31892D01*
X14027Y31857D01*
X14062Y31815D01*
X14098Y31768D01*
Y31765D01*
X14101Y31762D01*
X14112Y31744D01*
X14124Y31715D01*
X14142Y31676D01*
X14157Y31632D01*
X14172Y31579D01*
X14181Y31522D01*
X14184Y31460D01*
Y31457D01*
Y31451D01*
Y31440D01*
X14181Y31425D01*
Y31404D01*
X14178Y31383D01*
X14166Y31333D01*
X14148Y31274D01*
X14124Y31212D01*
X14089Y31150D01*
X14065Y31120D01*
X14041Y31090D01*
X14039Y31087D01*
X14036Y31084D01*
X14027Y31076D01*
X14015Y31067D01*
X14000Y31055D01*
X13982Y31043D01*
X13959Y31028D01*
X13935Y31010D01*
X13905Y30996D01*
X13873Y30981D01*
X13837Y30963D01*
X13799Y30948D01*
X13754Y30936D01*
X13710Y30922D01*
X13660Y30913D01*
X13606Y30904D01*
X13612Y30901D01*
X13624Y30895D01*
X13642Y30883D01*
X13666Y30871D01*
X13719Y30839D01*
X13745Y30818D01*
X13769Y30800D01*
X13775Y30794D01*
X13790Y30779D01*
X13814Y30756D01*
X13843Y30726D01*
X13876Y30685D01*
X13914Y30640D01*
X13953Y30587D01*
X13994Y30528D01*
X14346Y29971D01*
X14009D01*
X13739Y30398D01*
Y30401D01*
X13734Y30406D01*
X13728Y30415D01*
X13719Y30427D01*
X13698Y30460D01*
X13671Y30501D01*
X13639Y30546D01*
X13606Y30593D01*
X13574Y30637D01*
X13544Y30679D01*
X13541Y30682D01*
X13532Y30694D01*
X13518Y30711D01*
X13497Y30732D01*
X13452Y30777D01*
X13429Y30797D01*
X13405Y30815D01*
X13402Y30818D01*
X13396Y30821D01*
X13384Y30827D01*
X13367Y30836D01*
X13349Y30845D01*
X13328Y30854D01*
X13281Y30868D01*
X13278D01*
X13272Y30871D01*
X13260D01*
X13245Y30874D01*
X13225Y30877D01*
X13201D01*
X13168Y30880D01*
X12819D01*
Y29971D01*
X12547D01*
Y32020D01*
X13497D01*
X13521Y32017D01*
D02*
G37*
G36*
X15212Y34471D02*
X14960D01*
Y36073D01*
X14957Y36070D01*
X14942Y36058D01*
X14924Y36040D01*
X14895Y36020D01*
X14862Y35993D01*
X14821Y35963D01*
X14773Y35931D01*
X14720Y35898D01*
X14717D01*
X14714Y35895D01*
X14697Y35883D01*
X14667Y35868D01*
X14631Y35851D01*
X14590Y35830D01*
X14546Y35809D01*
X14501Y35789D01*
X14457Y35771D01*
Y36014D01*
X14460D01*
X14466Y36020D01*
X14478Y36022D01*
X14492Y36031D01*
X14510Y36040D01*
X14531Y36052D01*
X14581Y36082D01*
X14640Y36114D01*
X14699Y36156D01*
X14762Y36203D01*
X14824Y36253D01*
X14827Y36256D01*
X14830Y36259D01*
X14839Y36268D01*
X14851Y36277D01*
X14877Y36307D01*
X14913Y36342D01*
X14948Y36384D01*
X14987Y36431D01*
X15019Y36478D01*
X15049Y36529D01*
X15212D01*
Y34471D01*
D02*
G37*
G36*
X13143Y36517D02*
X13202Y36514D01*
X13261Y36508D01*
X13320Y36499D01*
X13371Y36490D01*
X13373D01*
X13379Y36487D01*
X13388D01*
X13400Y36481D01*
X13433Y36472D01*
X13474Y36458D01*
X13521Y36437D01*
X13572Y36410D01*
X13622Y36381D01*
X13669Y36342D01*
X13672Y36339D01*
X13675Y36336D01*
X13684Y36327D01*
X13696Y36318D01*
X13726Y36289D01*
X13761Y36247D01*
X13800Y36197D01*
X13841Y36138D01*
X13880Y36070D01*
X13912Y35993D01*
Y35990D01*
X13915Y35984D01*
X13921Y35972D01*
X13924Y35954D01*
X13933Y35934D01*
X13939Y35910D01*
X13945Y35883D01*
X13954Y35851D01*
X13962Y35818D01*
X13968Y35780D01*
X13983Y35697D01*
X13992Y35605D01*
X13995Y35504D01*
Y35502D01*
Y35496D01*
Y35481D01*
Y35466D01*
X13992Y35445D01*
Y35422D01*
X13989Y35365D01*
X13980Y35300D01*
X13971Y35232D01*
X13957Y35161D01*
X13939Y35090D01*
Y35087D01*
X13936Y35081D01*
X13933Y35072D01*
X13930Y35060D01*
X13918Y35028D01*
X13900Y34986D01*
X13883Y34939D01*
X13859Y34892D01*
X13829Y34841D01*
X13800Y34794D01*
X13797Y34788D01*
X13785Y34773D01*
X13767Y34753D01*
X13743Y34726D01*
X13717Y34696D01*
X13684Y34667D01*
X13652Y34634D01*
X13613Y34608D01*
X13607Y34605D01*
X13595Y34596D01*
X13575Y34584D01*
X13545Y34569D01*
X13510Y34551D01*
X13468Y34536D01*
X13421Y34519D01*
X13367Y34504D01*
X13362D01*
X13353Y34501D01*
X13344Y34498D01*
X13314Y34495D01*
X13273Y34489D01*
X13225Y34483D01*
X13169Y34477D01*
X13107Y34474D01*
X13039Y34471D01*
X12302D01*
Y36520D01*
X13089D01*
X13143Y36517D01*
D02*
G37*
G36*
X11879Y36277D02*
X10668D01*
Y35652D01*
X11802D01*
Y35410D01*
X10668D01*
Y34714D01*
X11926D01*
Y34471D01*
X10396D01*
Y36520D01*
X11879D01*
Y36277D01*
D02*
G37*
G36*
X9061Y34714D02*
X10070D01*
Y34471D01*
X8788D01*
Y36520D01*
X9061D01*
Y34714D01*
D02*
G37*
G36*
X21245Y50471D02*
X20994D01*
Y52073D01*
X20991Y52070D01*
X20976Y52058D01*
X20958Y52040D01*
X20928Y52020D01*
X20896Y51993D01*
X20854Y51963D01*
X20807Y51931D01*
X20754Y51898D01*
X20751D01*
X20748Y51895D01*
X20730Y51883D01*
X20700Y51868D01*
X20665Y51851D01*
X20624Y51830D01*
X20579Y51809D01*
X20535Y51789D01*
X20490Y51771D01*
Y52014D01*
X20493D01*
X20499Y52020D01*
X20511Y52022D01*
X20526Y52031D01*
X20544Y52040D01*
X20564Y52052D01*
X20615Y52082D01*
X20674Y52114D01*
X20733Y52156D01*
X20795Y52203D01*
X20857Y52253D01*
X20860Y52256D01*
X20863Y52259D01*
X20872Y52268D01*
X20884Y52277D01*
X20911Y52307D01*
X20946Y52342D01*
X20982Y52384D01*
X21020Y52431D01*
X21053Y52478D01*
X21082Y52529D01*
X21245D01*
Y50471D01*
D02*
G37*
G36*
X19306Y52517D02*
X19330D01*
X19383Y52511D01*
X19443Y52505D01*
X19505Y52493D01*
X19567Y52478D01*
X19623Y52458D01*
X19626D01*
X19629Y52455D01*
X19647Y52446D01*
X19673Y52431D01*
X19703Y52410D01*
X19738Y52384D01*
X19777Y52351D01*
X19813Y52310D01*
X19845Y52265D01*
X19848Y52259D01*
X19857Y52241D01*
X19872Y52218D01*
X19886Y52182D01*
X19901Y52141D01*
X19916Y52096D01*
X19925Y52046D01*
X19928Y51996D01*
Y51990D01*
Y51975D01*
X19925Y51948D01*
X19919Y51916D01*
X19910Y51877D01*
X19895Y51836D01*
X19878Y51794D01*
X19854Y51750D01*
X19851Y51744D01*
X19842Y51732D01*
X19824Y51709D01*
X19801Y51685D01*
X19771Y51655D01*
X19736Y51623D01*
X19691Y51593D01*
X19641Y51564D01*
X19644D01*
X19650Y51561D01*
X19659Y51558D01*
X19670Y51552D01*
X19706Y51540D01*
X19747Y51519D01*
X19792Y51493D01*
X19842Y51460D01*
X19886Y51422D01*
X19928Y51374D01*
X19931Y51368D01*
X19943Y51350D01*
X19961Y51324D01*
X19978Y51288D01*
X19996Y51241D01*
X20014Y51191D01*
X20026Y51131D01*
X20029Y51066D01*
Y51063D01*
Y51060D01*
Y51043D01*
X20026Y51013D01*
X20020Y50978D01*
X20014Y50936D01*
X20002Y50892D01*
X19987Y50844D01*
X19966Y50797D01*
X19963Y50791D01*
X19955Y50776D01*
X19943Y50756D01*
X19925Y50726D01*
X19901Y50696D01*
X19878Y50664D01*
X19848Y50631D01*
X19816Y50605D01*
X19813Y50602D01*
X19801Y50593D01*
X19780Y50581D01*
X19753Y50569D01*
X19721Y50551D01*
X19682Y50534D01*
X19641Y50519D01*
X19590Y50504D01*
X19585D01*
X19567Y50498D01*
X19537Y50495D01*
X19499Y50489D01*
X19451Y50483D01*
X19395Y50477D01*
X19333Y50474D01*
X19262Y50471D01*
X18481D01*
Y52520D01*
X19286D01*
X19306Y52517D01*
D02*
G37*
G36*
X18140Y52277D02*
X17027D01*
Y51644D01*
X17989D01*
Y51401D01*
X17027D01*
Y50471D01*
X16755D01*
Y52520D01*
X18140D01*
Y52277D01*
D02*
G37*
G36*
X815Y28557D02*
X841Y28554D01*
X874Y28551D01*
X907Y28548D01*
X945Y28539D01*
X1025Y28521D01*
X1114Y28495D01*
X1158Y28477D01*
X1200Y28456D01*
X1241Y28429D01*
X1282Y28403D01*
X1285Y28400D01*
X1291Y28397D01*
X1303Y28388D01*
X1318Y28373D01*
X1333Y28358D01*
X1354Y28338D01*
X1374Y28314D01*
X1398Y28290D01*
X1422Y28261D01*
X1445Y28225D01*
X1472Y28190D01*
X1496Y28151D01*
X1516Y28107D01*
X1540Y28062D01*
X1558Y28015D01*
X1575Y27962D01*
X1309Y27900D01*
Y27903D01*
X1306Y27909D01*
X1300Y27920D01*
X1294Y27935D01*
X1288Y27953D01*
X1280Y27977D01*
X1256Y28024D01*
X1226Y28077D01*
X1191Y28130D01*
X1146Y28181D01*
X1099Y28225D01*
X1093Y28231D01*
X1075Y28243D01*
X1046Y28258D01*
X1007Y28278D01*
X957Y28296D01*
X901Y28314D01*
X833Y28326D01*
X758Y28329D01*
X735D01*
X720Y28326D01*
X699D01*
X676Y28323D01*
X619Y28314D01*
X557Y28302D01*
X492Y28281D01*
X424Y28252D01*
X362Y28213D01*
X359D01*
X356Y28207D01*
X335Y28193D01*
X309Y28169D01*
X276Y28133D01*
X238Y28089D01*
X202Y28039D01*
X169Y27977D01*
X140Y27909D01*
Y27905D01*
X137Y27900D01*
X134Y27891D01*
X131Y27876D01*
X125Y27858D01*
X119Y27837D01*
X110Y27787D01*
X98Y27728D01*
X87Y27663D01*
X81Y27592D01*
X78Y27515D01*
Y27512D01*
Y27503D01*
Y27488D01*
Y27470D01*
X81Y27450D01*
Y27423D01*
X84Y27393D01*
X87Y27361D01*
X95Y27290D01*
X110Y27213D01*
X128Y27136D01*
X152Y27059D01*
Y27056D01*
X155Y27050D01*
X161Y27041D01*
X166Y27026D01*
X184Y26991D01*
X211Y26949D01*
X243Y26902D01*
X285Y26852D01*
X332Y26807D01*
X389Y26766D01*
X391D01*
X397Y26763D01*
X406Y26757D01*
X418Y26751D01*
X433Y26745D01*
X451Y26736D01*
X492Y26719D01*
X545Y26701D01*
X605Y26686D01*
X670Y26674D01*
X738Y26671D01*
X758D01*
X776Y26674D01*
X797D01*
X818Y26677D01*
X871Y26689D01*
X933Y26704D01*
X995Y26727D01*
X1060Y26760D01*
X1093Y26778D01*
X1123Y26801D01*
X1126Y26804D01*
X1128Y26807D01*
X1137Y26816D01*
X1149Y26825D01*
X1161Y26840D01*
X1176Y26858D01*
X1194Y26875D01*
X1208Y26899D01*
X1226Y26926D01*
X1247Y26955D01*
X1265Y26985D01*
X1282Y27020D01*
X1297Y27059D01*
X1312Y27100D01*
X1327Y27145D01*
X1339Y27192D01*
X1611Y27124D01*
Y27121D01*
X1608Y27109D01*
X1602Y27092D01*
X1593Y27068D01*
X1584Y27041D01*
X1572Y27009D01*
X1558Y26973D01*
X1540Y26935D01*
X1498Y26852D01*
X1445Y26769D01*
X1413Y26727D01*
X1380Y26686D01*
X1345Y26651D01*
X1303Y26615D01*
X1300Y26612D01*
X1294Y26606D01*
X1280Y26600D01*
X1265Y26588D01*
X1241Y26574D01*
X1217Y26559D01*
X1185Y26544D01*
X1152Y26529D01*
X1114Y26511D01*
X1072Y26497D01*
X1028Y26482D01*
X981Y26467D01*
X930Y26455D01*
X877Y26449D01*
X821Y26443D01*
X762Y26440D01*
X729D01*
X705Y26443D01*
X679D01*
X646Y26446D01*
X611Y26452D01*
X569Y26458D01*
X483Y26473D01*
X394Y26497D01*
X306Y26529D01*
X264Y26550D01*
X223Y26574D01*
X220Y26577D01*
X214Y26579D01*
X202Y26588D01*
X190Y26600D01*
X172Y26612D01*
X152Y26630D01*
X128Y26651D01*
X104Y26674D01*
X81Y26701D01*
X54Y26727D01*
X1Y26796D01*
X-50Y26875D01*
X-94Y26964D01*
Y26967D01*
X-100Y26976D01*
X-103Y26991D01*
X-112Y27009D01*
X-118Y27032D01*
X-126Y27062D01*
X-138Y27095D01*
X-147Y27130D01*
X-156Y27169D01*
X-168Y27213D01*
X-183Y27305D01*
X-195Y27408D01*
X-200Y27515D01*
Y27518D01*
Y27530D01*
Y27547D01*
X-198Y27568D01*
Y27598D01*
X-195Y27627D01*
X-192Y27666D01*
X-186Y27704D01*
X-171Y27790D01*
X-150Y27885D01*
X-121Y27979D01*
X-79Y28071D01*
X-76Y28074D01*
X-73Y28083D01*
X-67Y28095D01*
X-55Y28110D01*
X-44Y28130D01*
X-29Y28154D01*
X10Y28207D01*
X60Y28267D01*
X119Y28326D01*
X187Y28385D01*
X267Y28435D01*
X270Y28438D01*
X279Y28441D01*
X291Y28447D01*
X306Y28456D01*
X329Y28465D01*
X353Y28474D01*
X383Y28486D01*
X415Y28497D01*
X451Y28509D01*
X489Y28521D01*
X572Y28539D01*
X667Y28554D01*
X764Y28560D01*
X794D01*
X815Y28557D01*
D02*
G37*
G36*
X3103Y28258D02*
X2283D01*
X2173Y27704D01*
X2176Y27707D01*
X2182Y27710D01*
X2191Y27716D01*
X2206Y27725D01*
X2224Y27734D01*
X2244Y27746D01*
X2292Y27769D01*
X2351Y27793D01*
X2416Y27814D01*
X2487Y27829D01*
X2523Y27834D01*
X2588D01*
X2606Y27832D01*
X2629Y27829D01*
X2656Y27826D01*
X2685Y27820D01*
X2718Y27811D01*
X2789Y27790D01*
X2828Y27775D01*
X2866Y27755D01*
X2905Y27734D01*
X2943Y27710D01*
X2978Y27681D01*
X3014Y27648D01*
X3017Y27645D01*
X3023Y27639D01*
X3032Y27630D01*
X3044Y27615D01*
X3058Y27595D01*
X3073Y27574D01*
X3091Y27547D01*
X3109Y27518D01*
X3124Y27485D01*
X3141Y27450D01*
X3156Y27408D01*
X3171Y27367D01*
X3183Y27322D01*
X3192Y27272D01*
X3198Y27222D01*
X3201Y27169D01*
Y27165D01*
Y27157D01*
Y27142D01*
X3198Y27121D01*
X3195Y27097D01*
X3192Y27071D01*
X3186Y27038D01*
X3180Y27006D01*
X3162Y26929D01*
X3132Y26849D01*
X3115Y26807D01*
X3091Y26769D01*
X3067Y26727D01*
X3038Y26689D01*
X3035Y26686D01*
X3029Y26677D01*
X3017Y26665D01*
X3002Y26651D01*
X2981Y26633D01*
X2958Y26609D01*
X2928Y26588D01*
X2896Y26565D01*
X2860Y26541D01*
X2819Y26520D01*
X2774Y26500D01*
X2727Y26479D01*
X2677Y26464D01*
X2620Y26452D01*
X2561Y26443D01*
X2499Y26440D01*
X2472D01*
X2452Y26443D01*
X2428Y26446D01*
X2401Y26449D01*
X2369Y26452D01*
X2336Y26461D01*
X2262Y26479D01*
X2188Y26505D01*
X2150Y26523D01*
X2111Y26544D01*
X2076Y26568D01*
X2040Y26594D01*
X2037Y26597D01*
X2031Y26600D01*
X2025Y26612D01*
X2014Y26624D01*
X1999Y26639D01*
X1984Y26656D01*
X1966Y26680D01*
X1951Y26707D01*
X1934Y26733D01*
X1916Y26766D01*
X1883Y26837D01*
X1857Y26920D01*
X1848Y26964D01*
X1842Y27012D01*
X2105Y27032D01*
Y27029D01*
Y27023D01*
X2108Y27015D01*
X2111Y27000D01*
X2120Y26967D01*
X2132Y26923D01*
X2150Y26878D01*
X2173Y26828D01*
X2203Y26784D01*
X2238Y26742D01*
X2244Y26739D01*
X2256Y26727D01*
X2280Y26713D01*
X2313Y26695D01*
X2348Y26677D01*
X2392Y26662D01*
X2443Y26651D01*
X2499Y26647D01*
X2517D01*
X2529Y26651D01*
X2564Y26653D01*
X2606Y26665D01*
X2656Y26680D01*
X2706Y26704D01*
X2760Y26739D01*
X2783Y26760D01*
X2807Y26784D01*
X2810Y26787D01*
X2813Y26790D01*
X2819Y26798D01*
X2828Y26807D01*
X2848Y26840D01*
X2872Y26881D01*
X2893Y26932D01*
X2913Y26994D01*
X2928Y27068D01*
X2934Y27106D01*
Y27148D01*
Y27151D01*
Y27157D01*
Y27169D01*
X2931Y27183D01*
Y27201D01*
X2928Y27222D01*
X2919Y27269D01*
X2905Y27325D01*
X2884Y27382D01*
X2854Y27435D01*
X2813Y27485D01*
Y27488D01*
X2807Y27491D01*
X2792Y27506D01*
X2765Y27527D01*
X2730Y27550D01*
X2682Y27571D01*
X2629Y27592D01*
X2567Y27607D01*
X2532Y27613D01*
X2475D01*
X2452Y27610D01*
X2422Y27607D01*
X2386Y27598D01*
X2351Y27589D01*
X2313Y27574D01*
X2274Y27556D01*
X2271Y27553D01*
X2259Y27547D01*
X2241Y27533D01*
X2218Y27518D01*
X2194Y27497D01*
X2170Y27470D01*
X2144Y27444D01*
X2123Y27411D01*
X1886Y27444D01*
X2085Y28497D01*
X3103D01*
Y28258D01*
D02*
G37*
%LPC*%
G36*
X13464Y31792D02*
X12819D01*
Y31114D01*
X13429D01*
X13464Y31117D01*
X13506Y31120D01*
X13553Y31123D01*
X13600Y31129D01*
X13648Y31138D01*
X13689Y31150D01*
X13695Y31152D01*
X13707Y31158D01*
X13725Y31167D01*
X13748Y31179D01*
X13775Y31197D01*
X13802Y31218D01*
X13828Y31244D01*
X13849Y31274D01*
X13852Y31277D01*
X13858Y31289D01*
X13867Y31306D01*
X13879Y31330D01*
X13887Y31357D01*
X13896Y31386D01*
X13902Y31422D01*
X13905Y31457D01*
Y31460D01*
Y31463D01*
X13902Y31481D01*
X13899Y31508D01*
X13893Y31543D01*
X13879Y31579D01*
X13861Y31620D01*
X13834Y31659D01*
X13799Y31697D01*
X13793Y31700D01*
X13778Y31712D01*
X13754Y31727D01*
X13716Y31744D01*
X13671Y31762D01*
X13612Y31777D01*
X13544Y31789D01*
X13464Y31792D01*
D02*
G37*
G36*
X13048Y36277D02*
X12574D01*
Y34714D01*
X13060D01*
X13080Y34717D01*
X13125Y34720D01*
X13175Y34723D01*
X13228Y34729D01*
X13282Y34738D01*
X13326Y34750D01*
X13332Y34753D01*
X13347Y34756D01*
X13367Y34764D01*
X13394Y34776D01*
X13424Y34794D01*
X13453Y34812D01*
X13483Y34833D01*
X13513Y34856D01*
X13516Y34862D01*
X13527Y34874D01*
X13545Y34895D01*
X13566Y34924D01*
X13589Y34963D01*
X13616Y35007D01*
X13640Y35058D01*
X13661Y35114D01*
Y35117D01*
X13664Y35123D01*
X13667Y35131D01*
X13669Y35143D01*
X13672Y35158D01*
X13678Y35179D01*
X13684Y35200D01*
X13690Y35223D01*
X13699Y35282D01*
X13708Y35350D01*
X13714Y35427D01*
X13717Y35510D01*
Y35513D01*
Y35525D01*
Y35540D01*
X13714Y35564D01*
Y35590D01*
X13711Y35620D01*
X13708Y35655D01*
X13705Y35691D01*
X13690Y35771D01*
X13672Y35854D01*
X13646Y35931D01*
X13628Y35969D01*
X13610Y36002D01*
Y36005D01*
X13604Y36011D01*
X13598Y36020D01*
X13592Y36031D01*
X13569Y36061D01*
X13539Y36096D01*
X13501Y36135D01*
X13456Y36173D01*
X13406Y36206D01*
X13353Y36233D01*
X13347Y36236D01*
X13332Y36239D01*
X13305Y36247D01*
X13267Y36256D01*
X13219Y36262D01*
X13160Y36271D01*
X13125Y36274D01*
X13086D01*
X13048Y36277D01*
D02*
G37*
G36*
X19238Y52277D02*
X18753D01*
Y51661D01*
X19256D01*
X19295Y51664D01*
X19336Y51667D01*
X19377Y51670D01*
X19419Y51676D01*
X19451Y51682D01*
X19457Y51685D01*
X19469Y51688D01*
X19487Y51697D01*
X19511Y51709D01*
X19534Y51720D01*
X19561Y51738D01*
X19588Y51762D01*
X19608Y51786D01*
X19611Y51789D01*
X19617Y51797D01*
X19626Y51815D01*
X19635Y51836D01*
X19644Y51860D01*
X19653Y51889D01*
X19659Y51925D01*
X19662Y51963D01*
Y51969D01*
Y51981D01*
X19659Y51999D01*
X19656Y52022D01*
X19650Y52052D01*
X19641Y52082D01*
X19629Y52111D01*
X19611Y52141D01*
X19608Y52144D01*
X19602Y52153D01*
X19590Y52167D01*
X19576Y52182D01*
X19555Y52200D01*
X19531Y52218D01*
X19502Y52236D01*
X19469Y52247D01*
X19466D01*
X19451Y52253D01*
X19431Y52256D01*
X19398Y52262D01*
X19354Y52268D01*
X19303Y52271D01*
X19238Y52277D01*
D02*
G37*
G36*
X19292Y51419D02*
X18753D01*
Y50714D01*
X19336D01*
X19398Y50717D01*
X19425Y50720D01*
X19448Y50723D01*
X19451D01*
X19463Y50726D01*
X19481Y50729D01*
X19502Y50735D01*
X19552Y50753D01*
X19602Y50776D01*
X19605Y50779D01*
X19614Y50785D01*
X19626Y50794D01*
X19641Y50806D01*
X19656Y50824D01*
X19676Y50841D01*
X19691Y50865D01*
X19709Y50892D01*
X19712Y50895D01*
X19715Y50904D01*
X19721Y50921D01*
X19730Y50942D01*
X19738Y50966D01*
X19744Y50995D01*
X19747Y51031D01*
X19750Y51066D01*
Y51072D01*
Y51084D01*
X19747Y51108D01*
X19741Y51134D01*
X19736Y51164D01*
X19724Y51197D01*
X19709Y51229D01*
X19688Y51262D01*
X19685Y51265D01*
X19676Y51276D01*
X19665Y51291D01*
X19647Y51309D01*
X19623Y51330D01*
X19593Y51350D01*
X19561Y51368D01*
X19522Y51383D01*
X19516Y51386D01*
X19505Y51389D01*
X19478Y51395D01*
X19445Y51401D01*
X19404Y51407D01*
X19354Y51413D01*
X19292Y51419D01*
D02*
G37*
%LPD*%
D10*
X-46693Y11000D02*
G03*
X-46693Y11000I-492J0D01*
G01*
X28284Y37500D02*
G03*
X28284Y37500I-492J0D01*
G01*
D11*
X45177Y-13776D02*
G03*
X-29626Y-13776I-37402J0D01*
G01*
D02*
G03*
X45177Y-13776I37402J0D01*
G01*
X-45256Y6000D02*
X-34744D01*
X-45256Y16748D02*
X-34744D01*
X-45256Y-14748D02*
Y16748D01*
Y-14748D02*
X-34744D01*
Y16748D01*
X17447Y49599D02*
X24337D01*
X17358Y43449D02*
X24248D01*
X17457Y40650D02*
X24543D01*
X17457Y34350D02*
X24543D01*
D12*
X7968Y26500D02*
X8362D01*
X9150D02*
X9543D01*
X9150Y25713D02*
Y27287D01*
X8362Y25713D02*
Y27287D01*
D13*
X4622Y24335D02*
X12791D01*
X4720Y28665D02*
X12791D01*
D14*
X-53000Y4000D02*
Y-2998D01*
Y4000D02*
X-50667D01*
X-49667Y3667D01*
X-49001Y3000D01*
X-48668Y2334D01*
X-48334Y1334D01*
Y-332D01*
X-48668Y-1332D01*
X-49001Y-1999D01*
X-49667Y-2665D01*
X-50667Y-2998D01*
X-53000D01*
X33500Y33020D02*
X36757D01*
X37842Y33382D01*
X38204Y33744D01*
X38566Y34467D01*
Y35553D01*
X38204Y36276D01*
X37842Y36638D01*
X36757Y37000D01*
X33500D01*
Y29402D01*
X40266Y35553D02*
X40990Y35914D01*
X42075Y37000D01*
Y29402D01*
X-48573Y12691D02*
X-48934Y13415D01*
X-49658Y14138D01*
X-50382Y14500D01*
X-51829D01*
X-52553Y14138D01*
X-53276Y13415D01*
X-53638Y12691D01*
X-54000Y11605D01*
Y9796D01*
X-53638Y8711D01*
X-53276Y7987D01*
X-52553Y7264D01*
X-51829Y6902D01*
X-50382D01*
X-49658Y7264D01*
X-48934Y7987D01*
X-48573Y8711D01*
X-7311Y46154D02*
X-4055D01*
X-2969Y46516D01*
X-2607Y46878D01*
X-2246Y47601D01*
Y48687D01*
X-2607Y49411D01*
X-2969Y49772D01*
X-4055Y50134D01*
X-7311D01*
Y42536D01*
X3797Y49049D02*
X3435Y49772D01*
X2350Y50134D01*
X1626D01*
X540Y49772D01*
X-183Y48687D01*
X-545Y46878D01*
Y45069D01*
X-183Y43621D01*
X540Y42898D01*
X1626Y42536D01*
X1988D01*
X3073Y42898D01*
X3797Y43621D01*
X4159Y44707D01*
Y45069D01*
X3797Y46154D01*
X3073Y46878D01*
X1988Y47240D01*
X1626D01*
X540Y46878D01*
X-183Y46154D01*
X-545Y45069D01*
X-53000Y-6000D02*
Y-13598D01*
Y-6000D02*
X-49744D01*
X-48658Y-6362D01*
X-48296Y-6724D01*
X-47934Y-7447D01*
Y-8171D01*
X-48296Y-8895D01*
X-48658Y-9256D01*
X-49744Y-9618D01*
X-53000D01*
X-50467D02*
X-47934Y-13598D01*
X-20500Y-52980D02*
X-17244D01*
X-16158Y-52618D01*
X-15796Y-52256D01*
X-15434Y-51533D01*
Y-50447D01*
X-15796Y-49724D01*
X-16158Y-49362D01*
X-17244Y-49000D01*
X-20500D01*
Y-56598D01*
X-13010Y-49000D02*
X-9030D01*
X-11201Y-51895D01*
X-10116D01*
X-9392Y-52256D01*
X-9030Y-52618D01*
X-8668Y-53704D01*
Y-54427D01*
X-9030Y-55513D01*
X-9754Y-56236D01*
X-10839Y-56598D01*
X-11925D01*
X-13010Y-56236D01*
X-13372Y-55875D01*
X-13734Y-55151D01*
X-43000Y-28980D02*
X-39744D01*
X-38658Y-28618D01*
X-38296Y-28256D01*
X-37934Y-27533D01*
Y-26447D01*
X-38296Y-25724D01*
X-38658Y-25362D01*
X-39744Y-25000D01*
X-43000D01*
Y-32598D01*
X-32616Y-25000D02*
X-36234Y-30066D01*
X-30806D01*
X-32616Y-25000D02*
Y-32598D01*
X-38500Y23520D02*
X-35243D01*
X-34158Y23882D01*
X-33796Y24244D01*
X-33434Y24967D01*
Y26053D01*
X-33796Y26776D01*
X-34158Y27138D01*
X-35243Y27500D01*
X-38500D01*
Y19902D01*
X-27392Y27500D02*
X-31010D01*
X-31372Y24244D01*
X-31010Y24605D01*
X-29925Y24967D01*
X-28839D01*
X-27754Y24605D01*
X-27030Y23882D01*
X-26668Y22796D01*
Y22073D01*
X-27030Y20987D01*
X-27754Y20264D01*
X-28839Y19902D01*
X-29925D01*
X-31010Y20264D01*
X-31372Y20625D01*
X-31734Y21349D01*
X25001Y27999D02*
Y22001D01*
X28000D01*
X29000Y23001D01*
Y24000D01*
X28000Y25000D01*
X25001D01*
X28000D01*
X29000Y26000D01*
Y26999D01*
X28000Y27999D01*
X25001D01*
X30999Y22001D02*
X32999D01*
X31999D01*
Y27999D01*
X30999Y26999D01*
D15*
X26452Y49091D02*
X26605Y48938D01*
X26452Y48786D01*
X26300Y48938D01*
Y49091D01*
X26452Y49395D01*
X26605Y49548D01*
X27062Y49700D01*
X27671D01*
X28128Y49548D01*
X28280Y49243D01*
Y48786D01*
X28128Y48481D01*
X27671Y48329D01*
X27214D01*
X27671Y49700D02*
X27976Y49548D01*
X28128Y49243D01*
Y48786D01*
X27976Y48481D01*
X27671Y48329D01*
X27976Y48177D01*
X28280Y47872D01*
X28433Y47567D01*
Y47110D01*
X28280Y46805D01*
X28128Y46653D01*
X27671Y46501D01*
X27062D01*
X26605Y46653D01*
X26452Y46805D01*
X26300Y47110D01*
Y47262D01*
X26452Y47415D01*
X26605Y47262D01*
X26452Y47110D01*
X28128Y48024D02*
X28280Y47567D01*
Y47110D01*
X28128Y46805D01*
X27976Y46653D01*
X27671Y46501D01*
X29210Y49700D02*
X30276Y46501D01*
X29362Y49700D02*
X30276Y46958D01*
X31343Y49700D02*
X30276Y46501D01*
X28905Y49700D02*
X29819D01*
X30733D02*
X31647D01*
X32211Y49091D02*
X32364Y48938D01*
X32211Y48786D01*
X32059Y48938D01*
Y49091D01*
X32211Y49395D01*
X32364Y49548D01*
X32820Y49700D01*
X33430D01*
X33887Y49548D01*
X34039Y49243D01*
Y48786D01*
X33887Y48481D01*
X33430Y48329D01*
X32973D01*
X33430Y49700D02*
X33735Y49548D01*
X33887Y49243D01*
Y48786D01*
X33735Y48481D01*
X33430Y48329D01*
X33735Y48177D01*
X34039Y47872D01*
X34192Y47567D01*
Y47110D01*
X34039Y46805D01*
X33887Y46653D01*
X33430Y46501D01*
X32820D01*
X32364Y46653D01*
X32211Y46805D01*
X32059Y47110D01*
Y47262D01*
X32211Y47415D01*
X32364Y47262D01*
X32211Y47110D01*
X33887Y48024D02*
X34039Y47567D01*
Y47110D01*
X33887Y46805D01*
X33735Y46653D01*
X33430Y46501D01*
X-33048Y-46409D02*
X-32895Y-46562D01*
X-33048Y-46714D01*
X-33200Y-46562D01*
Y-46409D01*
X-33048Y-46105D01*
X-32895Y-45952D01*
X-32438Y-45800D01*
X-31829D01*
X-31372Y-45952D01*
X-31220Y-46257D01*
Y-46714D01*
X-31372Y-47019D01*
X-31829Y-47171D01*
X-32286D01*
X-31829Y-45800D02*
X-31524Y-45952D01*
X-31372Y-46257D01*
Y-46714D01*
X-31524Y-47019D01*
X-31829Y-47171D01*
X-31524Y-47324D01*
X-31220Y-47628D01*
X-31067Y-47933D01*
Y-48390D01*
X-31220Y-48695D01*
X-31372Y-48847D01*
X-31829Y-48999D01*
X-32438D01*
X-32895Y-48847D01*
X-33048Y-48695D01*
X-33200Y-48390D01*
Y-48238D01*
X-33048Y-48085D01*
X-32895Y-48238D01*
X-33048Y-48390D01*
X-31372Y-47476D02*
X-31220Y-47933D01*
Y-48390D01*
X-31372Y-48695D01*
X-31524Y-48847D01*
X-31829Y-48999D01*
X-30290Y-45800D02*
X-29224Y-48999D01*
X-30138Y-45800D02*
X-29224Y-48542D01*
X-28157Y-45800D02*
X-29224Y-48999D01*
X-30595Y-45800D02*
X-29681D01*
X-28767D02*
X-27853D01*
X-27289Y-46409D02*
X-27136Y-46562D01*
X-27289Y-46714D01*
X-27441Y-46562D01*
Y-46409D01*
X-27289Y-46105D01*
X-27136Y-45952D01*
X-26680Y-45800D01*
X-26070D01*
X-25613Y-45952D01*
X-25461Y-46257D01*
Y-46714D01*
X-25613Y-47019D01*
X-26070Y-47171D01*
X-26527D01*
X-26070Y-45800D02*
X-25765Y-45952D01*
X-25613Y-46257D01*
Y-46714D01*
X-25765Y-47019D01*
X-26070Y-47171D01*
X-25765Y-47324D01*
X-25461Y-47628D01*
X-25308Y-47933D01*
Y-48390D01*
X-25461Y-48695D01*
X-25613Y-48847D01*
X-26070Y-48999D01*
X-26680D01*
X-27136Y-48847D01*
X-27289Y-48695D01*
X-27441Y-48390D01*
Y-48238D01*
X-27289Y-48085D01*
X-27136Y-48238D01*
X-27289Y-48390D01*
X-25613Y-47476D02*
X-25461Y-47933D01*
Y-48390D01*
X-25613Y-48695D01*
X-25765Y-48847D01*
X-26070Y-48999D01*
X30952Y-47409D02*
X31105Y-47562D01*
X30952Y-47714D01*
X30800Y-47562D01*
Y-47409D01*
X30952Y-47105D01*
X31105Y-46952D01*
X31562Y-46800D01*
X32171D01*
X32628Y-46952D01*
X32781Y-47257D01*
Y-47714D01*
X32628Y-48019D01*
X32171Y-48171D01*
X31714D01*
X32171Y-46800D02*
X32476Y-46952D01*
X32628Y-47257D01*
Y-47714D01*
X32476Y-48019D01*
X32171Y-48171D01*
X32476Y-48324D01*
X32781Y-48628D01*
X32933Y-48933D01*
Y-49390D01*
X32781Y-49695D01*
X32628Y-49847D01*
X32171Y-49999D01*
X31562D01*
X31105Y-49847D01*
X30952Y-49695D01*
X30800Y-49390D01*
Y-49238D01*
X30952Y-49085D01*
X31105Y-49238D01*
X30952Y-49390D01*
X32628Y-48476D02*
X32781Y-48933D01*
Y-49390D01*
X32628Y-49695D01*
X32476Y-49847D01*
X32171Y-49999D01*
X33710Y-46800D02*
X34776Y-49999D01*
X33862Y-46800D02*
X34776Y-49542D01*
X35843Y-46800D02*
X34776Y-49999D01*
X33405Y-46800D02*
X34319D01*
X35233D02*
X36147D01*
X36711Y-47409D02*
X36863Y-47562D01*
X36711Y-47714D01*
X36559Y-47562D01*
Y-47409D01*
X36711Y-47105D01*
X36863Y-46952D01*
X37321Y-46800D01*
X37930D01*
X38387Y-46952D01*
X38539Y-47257D01*
Y-47714D01*
X38387Y-48019D01*
X37930Y-48171D01*
X37473D01*
X37930Y-46800D02*
X38235Y-46952D01*
X38387Y-47257D01*
Y-47714D01*
X38235Y-48019D01*
X37930Y-48171D01*
X38235Y-48324D01*
X38539Y-48628D01*
X38692Y-48933D01*
Y-49390D01*
X38539Y-49695D01*
X38387Y-49847D01*
X37930Y-49999D01*
X37321D01*
X36863Y-49847D01*
X36711Y-49695D01*
X36559Y-49390D01*
Y-49238D01*
X36711Y-49085D01*
X36863Y-49238D01*
X36711Y-49390D01*
X38387Y-48476D02*
X38539Y-48933D01*
Y-49390D01*
X38387Y-49695D01*
X38235Y-49847D01*
X37930Y-49999D01*
X-59091Y-3548D02*
X-58938Y-3395D01*
X-58786Y-3548D01*
X-58938Y-3700D01*
X-59091D01*
X-59395Y-3548D01*
X-59548Y-3395D01*
X-59700Y-2938D01*
Y-2329D01*
X-59548Y-1872D01*
X-59243Y-1719D01*
X-58786D01*
X-58481Y-1872D01*
X-58329Y-2329D01*
Y-2786D01*
X-59700Y-2329D02*
X-59548Y-2024D01*
X-59243Y-1872D01*
X-58786D01*
X-58481Y-2024D01*
X-58329Y-2329D01*
X-58176Y-2024D01*
X-57872Y-1719D01*
X-57567Y-1567D01*
X-57110D01*
X-56805Y-1719D01*
X-56653Y-1872D01*
X-56501Y-2329D01*
Y-2938D01*
X-56653Y-3395D01*
X-56805Y-3548D01*
X-57110Y-3700D01*
X-57262D01*
X-57415Y-3548D01*
X-57262Y-3395D01*
X-57110Y-3548D01*
X-58024Y-1872D02*
X-57567Y-1719D01*
X-57110D01*
X-56805Y-1872D01*
X-56653Y-2024D01*
X-56501Y-2329D01*
X-59700Y-790D02*
X-56501Y276D01*
X-59700Y-638D02*
X-56958Y276D01*
X-59700Y1343D02*
X-56501Y276D01*
X-59700Y-1095D02*
Y-181D01*
Y733D02*
Y1647D01*
X-59091Y2211D02*
X-58938Y2363D01*
X-58786Y2211D01*
X-58938Y2059D01*
X-59091D01*
X-59395Y2211D01*
X-59548Y2363D01*
X-59700Y2820D01*
Y3430D01*
X-59548Y3887D01*
X-59243Y4039D01*
X-58786D01*
X-58481Y3887D01*
X-58329Y3430D01*
Y2973D01*
X-59700Y3430D02*
X-59548Y3735D01*
X-59243Y3887D01*
X-58786D01*
X-58481Y3735D01*
X-58329Y3430D01*
X-58176Y3735D01*
X-57872Y4039D01*
X-57567Y4192D01*
X-57110D01*
X-56805Y4039D01*
X-56653Y3887D01*
X-56501Y3430D01*
Y2820D01*
X-56653Y2363D01*
X-56805Y2211D01*
X-57110Y2059D01*
X-57262D01*
X-57415Y2211D01*
X-57262Y2363D01*
X-57110Y2211D01*
X-58024Y3887D02*
X-57567Y4039D01*
X-57110D01*
X-56805Y3887D01*
X-56653Y3735D01*
X-56501Y3430D01*
X56909Y-3548D02*
X57062Y-3395D01*
X57214Y-3548D01*
X57062Y-3700D01*
X56909D01*
X56605Y-3548D01*
X56452Y-3395D01*
X56300Y-2938D01*
Y-2329D01*
X56452Y-1872D01*
X56757Y-1719D01*
X57214D01*
X57519Y-1872D01*
X57671Y-2329D01*
Y-2786D01*
X56300Y-2329D02*
X56452Y-2024D01*
X56757Y-1872D01*
X57214D01*
X57519Y-2024D01*
X57671Y-2329D01*
X57823Y-2024D01*
X58128Y-1719D01*
X58433Y-1567D01*
X58890D01*
X59195Y-1719D01*
X59347Y-1872D01*
X59499Y-2329D01*
Y-2938D01*
X59347Y-3395D01*
X59195Y-3548D01*
X58890Y-3700D01*
X58738D01*
X58585Y-3548D01*
X58738Y-3395D01*
X58890Y-3548D01*
X57976Y-1872D02*
X58433Y-1719D01*
X58890D01*
X59195Y-1872D01*
X59347Y-2024D01*
X59499Y-2329D01*
X56300Y-790D02*
X59499Y276D01*
X56300Y-638D02*
X59042Y276D01*
X56300Y1343D02*
X59499Y276D01*
X56300Y-1095D02*
Y-181D01*
Y733D02*
Y1647D01*
X56909Y2211D02*
X57062Y2363D01*
X57214Y2211D01*
X57062Y2059D01*
X56909D01*
X56605Y2211D01*
X56452Y2363D01*
X56300Y2820D01*
Y3430D01*
X56452Y3887D01*
X56757Y4039D01*
X57214D01*
X57519Y3887D01*
X57671Y3430D01*
Y2973D01*
X56300Y3430D02*
X56452Y3735D01*
X56757Y3887D01*
X57214D01*
X57519Y3735D01*
X57671Y3430D01*
X57823Y3735D01*
X58128Y4039D01*
X58433Y4192D01*
X58890D01*
X59195Y4039D01*
X59347Y3887D01*
X59499Y3430D01*
Y2820D01*
X59347Y2363D01*
X59195Y2211D01*
X58890Y2059D01*
X58738D01*
X58585Y2211D01*
X58738Y2363D01*
X58890Y2211D01*
X57976Y3887D02*
X58433Y4039D01*
X58890D01*
X59195Y3887D01*
X59347Y3735D01*
X59499Y3430D01*
X-33548Y49091D02*
X-33395Y48938D01*
X-33548Y48786D01*
X-33700Y48938D01*
Y49091D01*
X-33548Y49395D01*
X-33395Y49548D01*
X-32938Y49700D01*
X-32329D01*
X-31872Y49548D01*
X-31719Y49243D01*
Y48786D01*
X-31872Y48481D01*
X-32329Y48329D01*
X-32786D01*
X-32329Y49700D02*
X-32024Y49548D01*
X-31872Y49243D01*
Y48786D01*
X-32024Y48481D01*
X-32329Y48329D01*
X-32024Y48177D01*
X-31719Y47872D01*
X-31567Y47567D01*
Y47110D01*
X-31719Y46805D01*
X-31872Y46653D01*
X-32329Y46501D01*
X-32938D01*
X-33395Y46653D01*
X-33548Y46805D01*
X-33700Y47110D01*
Y47262D01*
X-33548Y47415D01*
X-33395Y47262D01*
X-33548Y47110D01*
X-31872Y48024D02*
X-31719Y47567D01*
Y47110D01*
X-31872Y46805D01*
X-32024Y46653D01*
X-32329Y46501D01*
X-30790Y49700D02*
X-29724Y46501D01*
X-30638Y49700D02*
X-29724Y46958D01*
X-28657Y49700D02*
X-29724Y46501D01*
X-31095Y49700D02*
X-30181D01*
X-29267D02*
X-28353D01*
X-27789Y49091D02*
X-27637Y48938D01*
X-27789Y48786D01*
X-27941Y48938D01*
Y49091D01*
X-27789Y49395D01*
X-27637Y49548D01*
X-27180Y49700D01*
X-26570D01*
X-26113Y49548D01*
X-25961Y49243D01*
Y48786D01*
X-26113Y48481D01*
X-26570Y48329D01*
X-27027D01*
X-26570Y49700D02*
X-26265Y49548D01*
X-26113Y49243D01*
Y48786D01*
X-26265Y48481D01*
X-26570Y48329D01*
X-26265Y48177D01*
X-25961Y47872D01*
X-25808Y47567D01*
Y47110D01*
X-25961Y46805D01*
X-26113Y46653D01*
X-26570Y46501D01*
X-27180D01*
X-27637Y46653D01*
X-27789Y46805D01*
X-27941Y47110D01*
Y47262D01*
X-27789Y47415D01*
X-27637Y47262D01*
X-27789Y47110D01*
X-26113Y48024D02*
X-25961Y47567D01*
Y47110D01*
X-26113Y46805D01*
X-26265Y46653D01*
X-26570Y46501D01*
D16*
X47250Y-12130D02*
X49607D01*
X50392Y-11868D01*
X50654Y-11607D01*
X50916Y-11083D01*
Y-10297D01*
X50654Y-9774D01*
X50392Y-9512D01*
X49607Y-9250D01*
X47250D01*
Y-14749D01*
X52408Y-10559D02*
Y-10297D01*
X52670Y-9774D01*
X52932Y-9512D01*
X53456Y-9250D01*
X54503D01*
X55027Y-9512D01*
X55289Y-9774D01*
X55551Y-10297D01*
Y-10821D01*
X55289Y-11345D01*
X54765Y-12130D01*
X52147Y-14749D01*
X55813D01*
X58352Y-9250D02*
Y-12392D01*
X57043Y-10035D02*
X59662Y-11607D01*
Y-10035D02*
X57043Y-11607D01*
M02*
