G04*
G04 #@! TF.GenerationSoftware,Altium Limited,Altium Designer,25.8.1 (18)*
G04*
G04 Layer_Color=8388736*
%FSLAX25Y25*%
%MOIN*%
G70*
G04*
G04 #@! TF.SameCoordinates,6E160E92-40C3-423E-B2D9-D39BCFFA93BC*
G04*
G04*
G04 #@! TF.FilePolarity,Negative*
G04*
G01*
G75*
%ADD18R,0.02362X0.03150*%
%ADD23R,0.03150X0.03150*%
G04:AMPARAMS|DCode=24|XSize=47.37mil|YSize=47.37mil|CornerRadius=23.68mil|HoleSize=0mil|Usage=FLASHONLY|Rotation=60.000|XOffset=0mil|YOffset=0mil|HoleType=Round|Shape=RoundedRectangle|*
%AMROUNDEDRECTD24*
21,1,0.04737,0.00000,0,0,60.0*
21,1,0.00000,0.04737,0,0,60.0*
1,1,0.04737,0.00000,0.00000*
1,1,0.04737,0.00000,0.00000*
1,1,0.04737,0.00000,0.00000*
1,1,0.04737,0.00000,0.00000*
%
%ADD24ROUNDEDRECTD24*%
G04:AMPARAMS|DCode=25|XSize=47.37mil|YSize=47.37mil|CornerRadius=23.68mil|HoleSize=0mil|Usage=FLASHONLY|Rotation=0.000|XOffset=0mil|YOffset=0mil|HoleType=Round|Shape=RoundedRectangle|*
%AMROUNDEDRECTD25*
21,1,0.04737,0.00000,0,0,0.0*
21,1,0.00000,0.04737,0,0,0.0*
1,1,0.04737,0.00000,0.00000*
1,1,0.04737,0.00000,0.00000*
1,1,0.04737,0.00000,0.00000*
1,1,0.04737,0.00000,0.00000*
%
%ADD25ROUNDEDRECTD25*%
G04:AMPARAMS|DCode=26|XSize=47.37mil|YSize=47.37mil|CornerRadius=23.68mil|HoleSize=0mil|Usage=FLASHONLY|Rotation=300.000|XOffset=0mil|YOffset=0mil|HoleType=Round|Shape=RoundedRectangle|*
%AMROUNDEDRECTD26*
21,1,0.04737,0.00000,0,0,300.0*
21,1,0.00000,0.04737,0,0,300.0*
1,1,0.04737,0.00000,0.00000*
1,1,0.04737,0.00000,0.00000*
1,1,0.04737,0.00000,0.00000*
1,1,0.04737,0.00000,0.00000*
%
%ADD26ROUNDEDRECTD26*%
%ADD27R,0.02913X0.03898*%
%ADD28R,0.03950X0.04540*%
%ADD29C,0.06181*%
%ADD30R,0.06181X0.06181*%
%ADD31R,0.07887X0.07887*%
%ADD32C,0.07887*%
G36*
X6868Y59252D02*
X6887D01*
X6907Y58561D01*
X6671Y57199D01*
X6170Y55911D01*
X5423Y54749D01*
X4459Y53758D01*
X3319Y52978D01*
X2046Y52439D01*
X691Y52165D01*
X-691D01*
X-2046Y52439D01*
X-3319Y52978D01*
X-4459Y53758D01*
X-5423Y54749D01*
X-6170Y55911D01*
X-6671Y57199D01*
X-6673Y57211D01*
X-6675Y57215D01*
X-6911Y58575D01*
X-6892Y59265D01*
X6867Y59274D01*
X6868Y59252D01*
D02*
G37*
G36*
X34209Y59264D02*
X37921Y52851D01*
X37901Y52839D01*
X38103Y52489D01*
X38086Y52478D01*
X38103Y52449D01*
X38103D01*
X37515Y52091D01*
X36230Y51593D01*
X34878Y51333D01*
X33501Y51316D01*
X32142Y51546D01*
X30847Y52013D01*
X29655Y52703D01*
X28604Y53594D01*
X27729Y54658D01*
X27057Y55860D01*
X26610Y57163D01*
X26401Y58524D01*
X26402Y58558D01*
X26401Y58564D01*
X26420Y59252D01*
X26798D01*
X26799Y59273D01*
Y59273D01*
X34209Y59264D01*
D02*
G37*
G36*
X-26798Y59252D02*
X-26420D01*
X-26401Y58564D01*
X-26402Y58557D01*
X-26401Y58524D01*
X-26610Y57163D01*
X-27057Y55860D01*
X-27729Y54658D01*
X-28604Y53594D01*
X-29655Y52703D01*
X-30847Y52013D01*
X-32142Y51546D01*
X-33501Y51316D01*
X-34878Y51333D01*
X-36230Y51593D01*
X-37515Y52091D01*
X-38103Y52449D01*
X-38086Y52478D01*
X-38103Y52489D01*
X-37901Y52839D01*
X-37921Y52851D01*
Y52851D01*
X-34209Y59264D01*
X-26799Y59273D01*
X-26798Y59252D01*
D02*
G37*
G36*
X54756Y23671D02*
X54739Y23660D01*
X54756Y23631D01*
X54168Y23268D01*
X52873Y22791D01*
X51508Y22581D01*
X50129Y22646D01*
X48790Y22983D01*
X47545Y23579D01*
X46444Y24411D01*
X45529Y25445D01*
X44838Y26640D01*
X44398Y27949D01*
X44227Y29319D01*
X44229Y29344D01*
X44227Y29359D01*
X44331Y30735D01*
X44706Y32064D01*
X45338Y33291D01*
X46201Y34369D01*
X47261Y35253D01*
X47868Y35582D01*
X54756Y23671D01*
D02*
G37*
G36*
X-47261Y35253D02*
X-46201Y34369D01*
X-45338Y33291D01*
X-44706Y32064D01*
X-44331Y30735D01*
X-44227Y29359D01*
X-44229Y29343D01*
X-44227Y29319D01*
X-44398Y27949D01*
X-44838Y26640D01*
X-45187Y26037D01*
X-45536Y25432D01*
X-46449Y24396D01*
X-47550Y23563D01*
X-48794Y22965D01*
X-50133Y22626D01*
X-51512Y22559D01*
X-52876Y22768D01*
X-54172Y23243D01*
X-54760Y23605D01*
X-54760D01*
X-54748Y23626D01*
X-54756Y23631D01*
X-54739Y23660D01*
X-54756Y23671D01*
X-54756D01*
X-47868Y35582D01*
X-47261Y35253D01*
D02*
G37*
G36*
X-63916Y6394D02*
X-62840Y5530D01*
X-61936Y4488D01*
X-61230Y3302D01*
X-60747Y2009D01*
X-60502Y651D01*
Y-729D01*
X-60747Y-2088D01*
X-61230Y-3380D01*
X-61936Y-4567D01*
X-62840Y-5609D01*
X-63916Y-6473D01*
X-64523Y-6803D01*
X-68416Y-40D01*
X-68405Y-20D01*
X-68416Y0D01*
X-64719Y6421D01*
X-64702Y6412D01*
X-64523Y6724D01*
X-63916Y6394D01*
D02*
G37*
G36*
X64702Y6412D02*
X64719Y6421D01*
X64719D01*
X68416Y0D01*
X68405Y-20D01*
X68416Y-40D01*
X64522Y-6803D01*
X63916Y-6473D01*
X62840Y-5609D01*
X61935Y-4567D01*
X61230Y-3380D01*
X60747Y-2088D01*
X60501Y-729D01*
Y651D01*
X60747Y2009D01*
X61230Y3302D01*
X61935Y4488D01*
X62840Y5530D01*
X63916Y6394D01*
X64522Y6724D01*
X64522D01*
X64702Y6412D01*
D02*
G37*
G36*
X-50129Y-22685D02*
X-48791Y-23022D01*
X-47545Y-23619D01*
X-46444Y-24451D01*
X-45529Y-25485D01*
X-44838Y-26680D01*
X-44398Y-27989D01*
X-44227Y-29359D01*
X-44229Y-29383D01*
X-44227Y-29398D01*
X-44331Y-30775D01*
X-44706Y-32103D01*
X-45338Y-33331D01*
X-46201Y-34408D01*
X-47261Y-35293D01*
X-47868Y-35621D01*
X-47868Y-35621D01*
X-54756Y-23710D01*
X-54739Y-23700D01*
X-54756Y-23671D01*
X-54756Y-23671D01*
D01*
X-54756D01*
X-54168Y-23308D01*
X-52873Y-22831D01*
X-51508Y-22620D01*
X-50129Y-22685D01*
D02*
G37*
G36*
X54760Y-23684D02*
D01*
Y-23684D01*
Y-23684D01*
D02*
G37*
G36*
X54756Y-23710D02*
D01*
Y-23710D01*
Y-23710D01*
D02*
G37*
G36*
X52873Y-22831D02*
X54168Y-23308D01*
X54756Y-23671D01*
X54751Y-23678D01*
X54760Y-23684D01*
X54748Y-23705D01*
X54756Y-23710D01*
X51317Y-29656D01*
X47888Y-35604D01*
X47881Y-35600D01*
X47868Y-35621D01*
X47261Y-35293D01*
X46201Y-34408D01*
X45338Y-33331D01*
X44706Y-32103D01*
X44331Y-30775D01*
X44227Y-29398D01*
X44229Y-29383D01*
X44227Y-29359D01*
X44398Y-27989D01*
X44838Y-26680D01*
X45529Y-25485D01*
X46444Y-24451D01*
X47545Y-23619D01*
X48791Y-23022D01*
X50129Y-22685D01*
X51508Y-22620D01*
X52873Y-22831D01*
D02*
G37*
G36*
X-32142Y-51585D02*
X-30847Y-52052D01*
X-29655Y-52742D01*
X-28604Y-53633D01*
X-27729Y-54697D01*
X-27057Y-55899D01*
X-26610Y-57202D01*
X-26401Y-58564D01*
X-26420Y-59252D01*
X-26798D01*
X-26799Y-59273D01*
X-34209Y-59264D01*
X-37921Y-52851D01*
X-37901Y-52839D01*
X-38103Y-52489D01*
D01*
Y-52489D01*
Y-52489D01*
X-37515Y-52130D01*
X-36230Y-51633D01*
X-34878Y-51372D01*
X-33501Y-51356D01*
X-32142Y-51585D01*
D02*
G37*
G36*
X2051Y-52274D02*
X3323Y-52811D01*
X4463Y-53589D01*
X5426Y-54579D01*
X6173Y-55740D01*
X6675Y-57026D01*
X6911Y-58386D01*
X6906Y-58558D01*
X6907Y-58561D01*
X6887Y-59252D01*
X-6887D01*
X-6907Y-58561D01*
X-6886Y-58441D01*
X-6887Y-58395D01*
X-6653Y-57035D01*
X-6153Y-55748D01*
X-5407Y-54586D01*
X-4446Y-53595D01*
X-3307Y-52815D01*
X-2035Y-52277D01*
X-683Y-52002D01*
X698Y-52001D01*
X2051Y-52274D01*
D02*
G37*
G36*
X34878Y-51372D02*
X36230Y-51633D01*
X37515Y-52130D01*
X38103Y-52489D01*
X38103Y-52489D01*
X37901Y-52839D01*
X37921Y-52851D01*
X34209Y-59264D01*
X26799Y-59273D01*
X26798Y-59252D01*
X26420D01*
X26401Y-58564D01*
X26610Y-57202D01*
X27057Y-55899D01*
X27729Y-54697D01*
X28604Y-53633D01*
X29655Y-52742D01*
X30847Y-52052D01*
X32142Y-51585D01*
X33501Y-51356D01*
X34878Y-51372D01*
D02*
G37*
D18*
X23756Y46500D02*
D03*
X18244D02*
D03*
D23*
X23953Y37500D02*
D03*
X18047D02*
D03*
D24*
X32520Y56339D02*
D03*
X-32520Y-56339D02*
D03*
X-0Y56339D02*
D03*
Y-56150D02*
D03*
D25*
X65039Y-0D02*
D03*
X-65039D02*
D03*
X-48780Y-28150D02*
D03*
X48780Y28150D02*
D03*
D26*
X32520Y-56339D02*
D03*
X-32520Y56339D02*
D03*
X-48780Y28111D02*
D03*
X48780Y-28190D02*
D03*
D27*
X6000Y26500D02*
D03*
X11512D02*
D03*
D28*
X18539Y31500D02*
D03*
X23461D02*
D03*
D29*
X-40000Y1000D02*
D03*
Y-9000D02*
D03*
D30*
Y11000D02*
D03*
D31*
X21000Y-27000D02*
D03*
D32*
X27775Y-13776D02*
D03*
X21000Y-551D02*
D03*
X-5449D02*
D03*
X-12224Y-13776D02*
D03*
X-5449Y-27000D02*
D03*
M02*
