G04*
G04 #@! TF.GenerationSoftware,Altium Limited,Altium Designer,25.8.1 (18)*
G04*
G04 Layer_Color=128*
%FSLAX25Y25*%
%MOIN*%
G70*
G04*
G04 #@! TF.SameCoordinates,6E160E92-40C3-423E-B2D9-D39BCFFA93BC*
G04*
G04*
G04 #@! TF.FilePolarity,Positive*
G04*
G01*
G75*
%ADD65C,0.00500*%
D65*
X-42008Y1000D02*
X-37992D01*
X-40000Y-1008D02*
Y3008D01*
X-42008Y11000D02*
X-37992D01*
X-40000Y8992D02*
Y13008D01*
X-42008Y-9000D02*
X-37992D01*
X-40000Y-11008D02*
Y-6992D01*
X18638Y-27000D02*
X23362D01*
X21000Y-29362D02*
Y-24638D01*
X25413Y-13776D02*
X30138D01*
X27775Y-16138D02*
Y-11413D01*
X18638Y-551D02*
X23362D01*
X21000Y-2913D02*
Y1811D01*
X-7811Y-551D02*
X-3087D01*
X-5449Y-2913D02*
Y1811D01*
X-14587Y-13776D02*
X-9862D01*
X-12224Y-16138D02*
Y-11413D01*
X-7811Y-27000D02*
X-3087D01*
X-5449Y-29362D02*
Y-24638D01*
X-54900Y1000D02*
X-52100D01*
X-53500Y-400D02*
Y2400D01*
X-39316Y-25388D02*
X-36516D01*
X-37916Y-26788D02*
Y-23988D01*
X-40915Y36985D02*
X-38115D01*
X-39515Y35585D02*
Y38385D01*
X-20400Y56000D02*
X-17600D01*
X-19000Y54600D02*
Y57400D01*
X22100Y56000D02*
X24900D01*
X23500Y54600D02*
Y57400D01*
X-38900Y45500D02*
X-36100D01*
X-37500Y44100D02*
Y46900D01*
X37100Y-38500D02*
X39900D01*
X38500Y-39900D02*
Y-37100D01*
X-27900Y-50500D02*
X-25100D01*
X-26500Y-51900D02*
Y-49100D01*
X-39400Y-41000D02*
X-36600D01*
X-38000Y-42400D02*
Y-39600D01*
X-55400Y-13000D02*
X-52600D01*
X-54000Y-14400D02*
Y-11600D01*
X-2325Y-33284D02*
X475D01*
X-925Y-34684D02*
Y-31884D01*
X-25947Y-17536D02*
X-23147D01*
X-24547Y-18936D02*
Y-16136D01*
X-18073Y-33284D02*
X-15273D01*
X-16673Y-34684D02*
Y-31884D01*
X-57443Y13960D02*
X-54643D01*
X-56043Y12560D02*
Y15360D01*
X7100Y-20500D02*
X9900D01*
X8500Y-21900D02*
Y-19100D01*
X4100Y19000D02*
X6900D01*
X5500Y17600D02*
Y20400D01*
X-3400Y18500D02*
X-600D01*
X-2000Y17100D02*
Y19900D01*
X-10400Y26500D02*
X-7600D01*
X-9000Y25100D02*
Y27900D01*
X4600Y34000D02*
X7400D01*
X6000Y32600D02*
Y35400D01*
X-4400Y34000D02*
X-1600D01*
X-3000Y32600D02*
Y35400D01*
X-30400Y48500D02*
X-27600D01*
X-29000Y47100D02*
Y49900D01*
X56600Y6000D02*
X59400D01*
X58000Y4600D02*
Y7400D01*
X45600Y-6000D02*
X48400D01*
X47000Y-7400D02*
Y-4600D01*
X39100Y19000D02*
X41900D01*
X40500Y17600D02*
Y20400D01*
X38600Y12000D02*
X41400D01*
X40000Y10600D02*
Y13400D01*
X36243Y26500D02*
X39043D01*
X37643Y25100D02*
Y27900D01*
X17600Y-9000D02*
X20400D01*
X19000Y-10400D02*
Y-7600D01*
X23600Y-49500D02*
X26400D01*
X25000Y-50900D02*
Y-48100D01*
X3600Y-43500D02*
X6400D01*
X5000Y-44900D02*
Y-42100D01*
X15600Y10500D02*
X18400D01*
X17000Y9100D02*
Y11900D01*
X19489Y6611D02*
X22289D01*
X20889Y5211D02*
Y8011D01*
X-11900Y18000D02*
X-9100D01*
X-10500Y16600D02*
Y19400D01*
X-45900Y-4000D02*
X-43100D01*
X-44500Y-5400D02*
Y-2600D01*
X-400Y26500D02*
X2400D01*
X1000Y25100D02*
Y27900D01*
X-10900Y34000D02*
X-8100D01*
X-9500Y32600D02*
Y35400D01*
X-16503Y47256D02*
X-13703D01*
X-15103Y45856D02*
Y48656D01*
X-691Y45240D02*
X2109D01*
X709Y43840D02*
Y46640D01*
X11100Y44000D02*
X13900D01*
X12500Y42600D02*
Y45400D01*
X16635Y19469D02*
X19435D01*
X18035Y18069D02*
Y20869D01*
X-12400Y7000D02*
X-9600D01*
X-11000Y5600D02*
Y8400D01*
X-21900Y32500D02*
X-19100D01*
X-20500Y31100D02*
Y33900D01*
X36100Y-25500D02*
X38900D01*
X37500Y-26900D02*
Y-24100D01*
X13600Y-47000D02*
X16400D01*
X15000Y-48400D02*
Y-45600D01*
M02*
