G04*
G04 #@! TF.GenerationSoftware,Altium Limited,Altium Designer,25.8.1 (18)*
G04*
G04 Layer_Color=32896*
%FSLAX25Y25*%
%MOIN*%
G70*
G04*
G04 #@! TF.SameCoordinates,6E160E92-40C3-423E-B2D9-D39BCFFA93BC*
G04*
G04*
G04 #@! TF.FilePolarity,Positive*
G04*
G01*
G75*
%ADD10C,0.00984*%
%ADD11C,0.00787*%
%ADD12C,0.00315*%
%ADD13C,0.00394*%
%ADD14C,0.01000*%
%ADD15C,0.00300*%
%ADD16C,0.00750*%
%ADD62C,0.00600*%
%ADD63C,0.00591*%
%ADD64C,0.01575*%
%ADD65C,0.00500*%
G36*
X29711Y34978D02*
X29743Y34931D01*
X29782Y34884D01*
X29818Y34842D01*
X29853Y34807D01*
X29880Y34777D01*
X29891Y34768D01*
X29900Y34759D01*
X29903Y34756D01*
X29906Y34753D01*
X29968Y34703D01*
X30031Y34656D01*
X30090Y34614D01*
X30149Y34582D01*
X30199Y34552D01*
X30220Y34540D01*
X30238Y34531D01*
X30253Y34522D01*
X30264Y34519D01*
X30270Y34514D01*
X30273D01*
Y34271D01*
X30229Y34289D01*
X30185Y34309D01*
X30140Y34330D01*
X30099Y34351D01*
X30063Y34369D01*
X30034Y34383D01*
X30016Y34395D01*
X30013Y34398D01*
X30010D01*
X29957Y34431D01*
X29909Y34463D01*
X29868Y34493D01*
X29835Y34519D01*
X29806Y34540D01*
X29788Y34558D01*
X29773Y34570D01*
X29770Y34573D01*
Y32971D01*
X29518D01*
Y35029D01*
X29681D01*
X29711Y34978D01*
D02*
G37*
G36*
X31691Y34031D02*
X32482Y32971D01*
X32156D01*
X31638Y33682D01*
X31626Y33700D01*
X31611Y33720D01*
X31579Y33768D01*
X31564Y33791D01*
X31552Y33809D01*
X31543Y33821D01*
X31540Y33824D01*
X31511Y33779D01*
X31484Y33738D01*
X31472Y33723D01*
X31466Y33711D01*
X31460Y33702D01*
X31457Y33700D01*
X30939Y32971D01*
X30605D01*
X31372Y34043D01*
X30661Y35020D01*
X30957D01*
X31366Y34475D01*
X31401Y34431D01*
X31431Y34389D01*
X31460Y34348D01*
X31484Y34315D01*
X31505Y34286D01*
X31519Y34262D01*
X31528Y34250D01*
X31531Y34244D01*
X31552Y34280D01*
X31576Y34318D01*
X31602Y34360D01*
X31629Y34401D01*
X31656Y34437D01*
X31673Y34466D01*
X31682Y34478D01*
X31688Y34487D01*
X31694Y34490D01*
Y34493D01*
X32067Y35020D01*
X32390D01*
X31691Y34031D01*
D02*
G37*
G36*
X-20261Y10996D02*
X-20228Y10949D01*
X-20190Y10901D01*
X-20154Y10860D01*
X-20119Y10824D01*
X-20092Y10795D01*
X-20080Y10786D01*
X-20072Y10777D01*
X-20069Y10774D01*
X-20066Y10771D01*
X-20003Y10721D01*
X-19941Y10673D01*
X-19882Y10632D01*
X-19823Y10599D01*
X-19773Y10570D01*
X-19752Y10558D01*
X-19734Y10549D01*
X-19719Y10540D01*
X-19707Y10537D01*
X-19702Y10531D01*
X-19699D01*
Y10289D01*
X-19743Y10306D01*
X-19787Y10327D01*
X-19832Y10348D01*
X-19873Y10368D01*
X-19909Y10386D01*
X-19938Y10401D01*
X-19956Y10413D01*
X-19959Y10416D01*
X-19962D01*
X-20015Y10448D01*
X-20063Y10481D01*
X-20104Y10511D01*
X-20137Y10537D01*
X-20166Y10558D01*
X-20184Y10576D01*
X-20199Y10588D01*
X-20202Y10590D01*
Y8989D01*
X-20453D01*
Y11046D01*
X-20291D01*
X-20261Y10996D01*
D02*
G37*
G36*
X-17547Y9854D02*
Y9794D01*
X-17550Y9738D01*
X-17553Y9685D01*
X-17559Y9634D01*
X-17564Y9590D01*
X-17570Y9549D01*
X-17579Y9510D01*
X-17585Y9475D01*
X-17591Y9442D01*
X-17600Y9415D01*
X-17606Y9392D01*
X-17612Y9374D01*
X-17618Y9359D01*
X-17621Y9347D01*
X-17624Y9341D01*
Y9338D01*
X-17656Y9273D01*
X-17698Y9214D01*
X-17739Y9167D01*
X-17783Y9125D01*
X-17822Y9093D01*
X-17854Y9069D01*
X-17866Y9063D01*
X-17875Y9057D01*
X-17881Y9051D01*
X-17884D01*
X-17958Y9019D01*
X-18035Y8995D01*
X-18115Y8977D01*
X-18189Y8965D01*
X-18222Y8963D01*
X-18254Y8960D01*
X-18284Y8957D01*
X-18307D01*
X-18328Y8954D01*
X-18355D01*
X-18461Y8960D01*
X-18509Y8965D01*
X-18553Y8971D01*
X-18597Y8980D01*
X-18636Y8989D01*
X-18671Y8998D01*
X-18704Y9010D01*
X-18734Y9022D01*
X-18757Y9031D01*
X-18781Y9040D01*
X-18799Y9048D01*
X-18813Y9057D01*
X-18822Y9060D01*
X-18828Y9066D01*
X-18831D01*
X-18896Y9110D01*
X-18950Y9161D01*
X-18991Y9208D01*
X-19027Y9256D01*
X-19053Y9297D01*
X-19071Y9330D01*
X-19077Y9341D01*
X-19083Y9350D01*
X-19086Y9356D01*
Y9359D01*
X-19098Y9395D01*
X-19109Y9433D01*
X-19127Y9513D01*
X-19139Y9596D01*
X-19148Y9676D01*
X-19151Y9711D01*
X-19154Y9747D01*
Y9776D01*
X-19157Y9803D01*
Y9824D01*
Y9839D01*
Y9850D01*
Y9854D01*
Y11038D01*
X-18885D01*
Y9854D01*
Y9785D01*
X-18879Y9720D01*
X-18873Y9664D01*
X-18864Y9611D01*
X-18855Y9563D01*
X-18843Y9519D01*
X-18834Y9481D01*
X-18822Y9448D01*
X-18811Y9421D01*
X-18799Y9395D01*
X-18787Y9377D01*
X-18778Y9359D01*
X-18769Y9347D01*
X-18763Y9338D01*
X-18760Y9336D01*
X-18757Y9332D01*
X-18731Y9309D01*
X-18701Y9288D01*
X-18636Y9256D01*
X-18568Y9232D01*
X-18497Y9217D01*
X-18432Y9205D01*
X-18405Y9202D01*
X-18378D01*
X-18361Y9199D01*
X-18331D01*
X-18269Y9202D01*
X-18213Y9211D01*
X-18159Y9220D01*
X-18118Y9235D01*
X-18082Y9247D01*
X-18056Y9256D01*
X-18041Y9264D01*
X-18035Y9267D01*
X-17994Y9294D01*
X-17958Y9327D01*
X-17929Y9359D01*
X-17908Y9389D01*
X-17890Y9418D01*
X-17875Y9439D01*
X-17869Y9454D01*
X-17866Y9460D01*
X-17857Y9486D01*
X-17852Y9513D01*
X-17840Y9575D01*
X-17831Y9640D01*
X-17825Y9706D01*
X-17822Y9762D01*
Y9788D01*
X-17819Y9809D01*
Y9827D01*
Y9842D01*
Y9850D01*
Y9854D01*
Y11038D01*
X-17547D01*
Y9854D01*
D02*
G37*
G36*
X38136Y38540D02*
X38216Y38526D01*
X38284Y38502D01*
X38343Y38478D01*
X38370Y38464D01*
X38390Y38452D01*
X38411Y38440D01*
X38426Y38428D01*
X38438Y38419D01*
X38447Y38413D01*
X38452Y38410D01*
X38455Y38407D01*
X38512Y38351D01*
X38556Y38289D01*
X38592Y38224D01*
X38621Y38159D01*
X38639Y38102D01*
X38648Y38079D01*
X38654Y38058D01*
X38657Y38040D01*
X38660Y38028D01*
X38663Y38019D01*
Y38017D01*
X38411Y37972D01*
X38399Y38037D01*
X38381Y38094D01*
X38361Y38141D01*
X38340Y38179D01*
X38319Y38209D01*
X38301Y38230D01*
X38290Y38244D01*
X38287Y38247D01*
X38248Y38277D01*
X38207Y38301D01*
X38168Y38315D01*
X38130Y38327D01*
X38094Y38333D01*
X38068Y38339D01*
X38044D01*
X37991Y38336D01*
X37943Y38324D01*
X37902Y38310D01*
X37866Y38295D01*
X37840Y38277D01*
X37819Y38262D01*
X37804Y38250D01*
X37801Y38247D01*
X37769Y38212D01*
X37745Y38173D01*
X37730Y38135D01*
X37718Y38099D01*
X37712Y38067D01*
X37707Y38043D01*
Y38025D01*
Y38022D01*
Y38019D01*
Y37987D01*
X37712Y37957D01*
X37727Y37907D01*
X37748Y37863D01*
X37772Y37824D01*
X37795Y37797D01*
X37816Y37777D01*
X37831Y37765D01*
X37834Y37762D01*
X37837D01*
X37887Y37735D01*
X37934Y37715D01*
X37985Y37700D01*
X38029Y37691D01*
X38068Y37685D01*
X38100Y37679D01*
X38139D01*
X38151Y37682D01*
X38165D01*
X38195Y37460D01*
X38156Y37469D01*
X38121Y37475D01*
X38091Y37481D01*
X38065Y37484D01*
X38044Y37487D01*
X38017D01*
X37955Y37481D01*
X37899Y37469D01*
X37849Y37451D01*
X37807Y37430D01*
X37775Y37410D01*
X37751Y37392D01*
X37736Y37380D01*
X37730Y37374D01*
X37692Y37330D01*
X37662Y37282D01*
X37641Y37235D01*
X37630Y37188D01*
X37621Y37149D01*
X37618Y37117D01*
X37615Y37105D01*
Y37096D01*
Y37090D01*
Y37087D01*
X37621Y37022D01*
X37635Y36963D01*
X37653Y36912D01*
X37677Y36868D01*
X37701Y36832D01*
X37718Y36806D01*
X37733Y36788D01*
X37739Y36782D01*
X37786Y36741D01*
X37837Y36711D01*
X37887Y36690D01*
X37934Y36676D01*
X37976Y36667D01*
X38008Y36664D01*
X38020Y36661D01*
X38038D01*
X38091Y36664D01*
X38142Y36676D01*
X38186Y36690D01*
X38221Y36708D01*
X38251Y36723D01*
X38275Y36738D01*
X38287Y36750D01*
X38293Y36753D01*
X38328Y36794D01*
X38358Y36841D01*
X38384Y36892D01*
X38405Y36945D01*
X38420Y36989D01*
X38426Y37010D01*
X38429Y37028D01*
X38432Y37043D01*
X38435Y37054D01*
X38438Y37060D01*
Y37063D01*
X38689Y37031D01*
X38683Y36983D01*
X38674Y36939D01*
X38648Y36856D01*
X38615Y36785D01*
X38597Y36756D01*
X38580Y36726D01*
X38562Y36699D01*
X38544Y36679D01*
X38529Y36658D01*
X38515Y36643D01*
X38506Y36631D01*
X38497Y36622D01*
X38491Y36616D01*
X38488Y36614D01*
X38452Y36587D01*
X38417Y36560D01*
X38381Y36540D01*
X38343Y36522D01*
X38269Y36492D01*
X38198Y36474D01*
X38165Y36468D01*
X38136Y36463D01*
X38109Y36460D01*
X38085Y36457D01*
X38068Y36454D01*
X38041D01*
X37985Y36457D01*
X37934Y36463D01*
X37884Y36471D01*
X37837Y36483D01*
X37792Y36498D01*
X37754Y36513D01*
X37715Y36531D01*
X37683Y36548D01*
X37650Y36563D01*
X37624Y36581D01*
X37600Y36596D01*
X37582Y36610D01*
X37567Y36622D01*
X37556Y36631D01*
X37550Y36637D01*
X37547Y36640D01*
X37511Y36676D01*
X37481Y36714D01*
X37455Y36753D01*
X37431Y36791D01*
X37413Y36827D01*
X37396Y36865D01*
X37372Y36936D01*
X37366Y36969D01*
X37360Y36998D01*
X37354Y37025D01*
X37351Y37049D01*
X37348Y37066D01*
Y37081D01*
Y37090D01*
Y37093D01*
X37351Y37164D01*
X37363Y37229D01*
X37381Y37285D01*
X37399Y37333D01*
X37416Y37371D01*
X37434Y37401D01*
X37446Y37419D01*
X37449Y37424D01*
X37490Y37469D01*
X37535Y37507D01*
X37582Y37537D01*
X37630Y37561D01*
X37671Y37578D01*
X37703Y37590D01*
X37715Y37593D01*
X37724Y37596D01*
X37730Y37599D01*
X37733D01*
X37683Y37626D01*
X37641Y37652D01*
X37606Y37682D01*
X37576Y37709D01*
X37553Y37732D01*
X37535Y37753D01*
X37526Y37765D01*
X37523Y37771D01*
X37499Y37812D01*
X37481Y37854D01*
X37467Y37895D01*
X37458Y37934D01*
X37452Y37966D01*
X37449Y37990D01*
Y38008D01*
Y38014D01*
X37452Y38064D01*
X37461Y38114D01*
X37473Y38159D01*
X37487Y38197D01*
X37502Y38230D01*
X37514Y38256D01*
X37523Y38271D01*
X37526Y38277D01*
X37556Y38321D01*
X37591Y38360D01*
X37627Y38392D01*
X37662Y38422D01*
X37692Y38443D01*
X37718Y38460D01*
X37736Y38469D01*
X37739Y38472D01*
X37742D01*
X37795Y38496D01*
X37849Y38514D01*
X37902Y38529D01*
X37949Y38537D01*
X37988Y38543D01*
X38020Y38546D01*
X38094D01*
X38136Y38540D01*
D02*
G37*
G36*
X40652Y36489D02*
X40379D01*
Y37398D01*
X40030D01*
X39998Y37395D01*
X39974D01*
X39953Y37392D01*
X39938Y37389D01*
X39926D01*
X39921Y37386D01*
X39918D01*
X39870Y37371D01*
X39849Y37362D01*
X39832Y37354D01*
X39814Y37345D01*
X39802Y37339D01*
X39796Y37336D01*
X39793Y37333D01*
X39770Y37315D01*
X39746Y37294D01*
X39702Y37250D01*
X39681Y37229D01*
X39666Y37211D01*
X39657Y37200D01*
X39654Y37197D01*
X39625Y37155D01*
X39592Y37111D01*
X39559Y37063D01*
X39527Y37019D01*
X39500Y36978D01*
X39480Y36945D01*
X39471Y36933D01*
X39465Y36924D01*
X39459Y36918D01*
Y36915D01*
X39189Y36489D01*
X38852D01*
X39204Y37046D01*
X39246Y37105D01*
X39284Y37158D01*
X39323Y37203D01*
X39355Y37244D01*
X39385Y37274D01*
X39408Y37297D01*
X39423Y37312D01*
X39429Y37318D01*
X39453Y37336D01*
X39480Y37356D01*
X39533Y37389D01*
X39557Y37401D01*
X39574Y37413D01*
X39586Y37419D01*
X39592Y37422D01*
X39539Y37430D01*
X39488Y37439D01*
X39444Y37454D01*
X39400Y37466D01*
X39361Y37481D01*
X39326Y37499D01*
X39293Y37513D01*
X39263Y37528D01*
X39240Y37546D01*
X39216Y37561D01*
X39198Y37573D01*
X39184Y37584D01*
X39172Y37593D01*
X39163Y37602D01*
X39160Y37605D01*
X39157Y37608D01*
X39133Y37638D01*
X39110Y37667D01*
X39074Y37729D01*
X39050Y37792D01*
X39033Y37851D01*
X39021Y37901D01*
X39018Y37922D01*
Y37942D01*
X39015Y37957D01*
Y37969D01*
Y37975D01*
Y37978D01*
X39018Y38040D01*
X39027Y38096D01*
X39041Y38150D01*
X39056Y38194D01*
X39074Y38233D01*
X39086Y38262D01*
X39098Y38280D01*
X39101Y38283D01*
Y38286D01*
X39136Y38333D01*
X39172Y38375D01*
X39210Y38410D01*
X39246Y38437D01*
X39278Y38458D01*
X39305Y38469D01*
X39323Y38478D01*
X39326Y38481D01*
X39329D01*
X39355Y38490D01*
X39388Y38499D01*
X39453Y38514D01*
X39524Y38523D01*
X39589Y38532D01*
X39651Y38535D01*
X39678D01*
X39702Y38537D01*
X40652D01*
Y36489D01*
D02*
G37*
G36*
X-50443Y10026D02*
X-50393Y10023D01*
X-50345Y10014D01*
X-50301Y10005D01*
X-50259Y9993D01*
X-50221Y9981D01*
X-50185Y9966D01*
X-50153Y9952D01*
X-50123Y9937D01*
X-50099Y9922D01*
X-50079Y9910D01*
X-50061Y9898D01*
X-50046Y9889D01*
X-50037Y9881D01*
X-50031Y9878D01*
X-50028Y9875D01*
X-49999Y9845D01*
X-49972Y9813D01*
X-49946Y9777D01*
X-49925Y9741D01*
X-49889Y9670D01*
X-49866Y9599D01*
X-49857Y9567D01*
X-49848Y9534D01*
X-49842Y9508D01*
X-49836Y9484D01*
X-49833Y9463D01*
Y9448D01*
X-49830Y9439D01*
Y9437D01*
X-50088Y9410D01*
X-50094Y9478D01*
X-50105Y9537D01*
X-50123Y9590D01*
X-50144Y9632D01*
X-50162Y9667D01*
X-50179Y9691D01*
X-50191Y9706D01*
X-50197Y9712D01*
X-50242Y9747D01*
X-50289Y9774D01*
X-50339Y9795D01*
X-50384Y9806D01*
X-50425Y9815D01*
X-50461Y9818D01*
X-50472Y9821D01*
X-50490D01*
X-50552Y9818D01*
X-50609Y9806D01*
X-50656Y9789D01*
X-50697Y9771D01*
X-50730Y9750D01*
X-50751Y9736D01*
X-50766Y9724D01*
X-50771Y9718D01*
X-50807Y9676D01*
X-50834Y9635D01*
X-50854Y9593D01*
X-50866Y9552D01*
X-50875Y9519D01*
X-50878Y9490D01*
X-50881Y9472D01*
Y9469D01*
Y9466D01*
X-50875Y9413D01*
X-50863Y9357D01*
X-50842Y9306D01*
X-50822Y9259D01*
X-50798Y9221D01*
X-50777Y9188D01*
X-50771Y9176D01*
X-50766Y9167D01*
X-50760Y9164D01*
Y9161D01*
X-50736Y9129D01*
X-50706Y9096D01*
X-50674Y9061D01*
X-50638Y9025D01*
X-50564Y8954D01*
X-50490Y8883D01*
X-50452Y8850D01*
X-50419Y8821D01*
X-50387Y8794D01*
X-50360Y8771D01*
X-50339Y8753D01*
X-50322Y8738D01*
X-50310Y8729D01*
X-50307Y8726D01*
X-50233Y8664D01*
X-50165Y8605D01*
X-50108Y8551D01*
X-50064Y8507D01*
X-50025Y8469D01*
X-49999Y8442D01*
X-49984Y8424D01*
X-49978Y8421D01*
Y8418D01*
X-49937Y8368D01*
X-49904Y8321D01*
X-49874Y8273D01*
X-49851Y8232D01*
X-49833Y8196D01*
X-49821Y8170D01*
X-49815Y8152D01*
X-49812Y8149D01*
Y8146D01*
X-49801Y8113D01*
X-49795Y8084D01*
X-49789Y8054D01*
X-49786Y8028D01*
X-49783Y8004D01*
Y7986D01*
Y7974D01*
Y7971D01*
X-51141D01*
Y8214D01*
X-50132D01*
X-50168Y8264D01*
X-50185Y8285D01*
X-50200Y8306D01*
X-50215Y8324D01*
X-50227Y8335D01*
X-50236Y8344D01*
X-50239Y8347D01*
X-50253Y8362D01*
X-50271Y8377D01*
X-50313Y8415D01*
X-50360Y8460D01*
X-50410Y8504D01*
X-50458Y8543D01*
X-50478Y8560D01*
X-50496Y8578D01*
X-50511Y8590D01*
X-50523Y8599D01*
X-50529Y8605D01*
X-50532Y8608D01*
X-50579Y8649D01*
X-50626Y8688D01*
X-50668Y8726D01*
X-50706Y8759D01*
X-50742Y8791D01*
X-50771Y8821D01*
X-50801Y8847D01*
X-50825Y8871D01*
X-50848Y8895D01*
X-50866Y8913D01*
X-50881Y8927D01*
X-50896Y8942D01*
X-50911Y8960D01*
X-50916Y8966D01*
X-50958Y9016D01*
X-50993Y9061D01*
X-51023Y9105D01*
X-51047Y9140D01*
X-51064Y9173D01*
X-51076Y9197D01*
X-51082Y9212D01*
X-51085Y9217D01*
X-51103Y9262D01*
X-51115Y9306D01*
X-51127Y9348D01*
X-51133Y9383D01*
X-51135Y9416D01*
X-51138Y9439D01*
Y9454D01*
Y9460D01*
X-51135Y9505D01*
X-51130Y9546D01*
X-51124Y9588D01*
X-51112Y9623D01*
X-51082Y9694D01*
X-51053Y9750D01*
X-51035Y9777D01*
X-51020Y9798D01*
X-51005Y9818D01*
X-50990Y9833D01*
X-50979Y9845D01*
X-50973Y9857D01*
X-50967Y9860D01*
X-50964Y9863D01*
X-50931Y9892D01*
X-50896Y9919D01*
X-50857Y9940D01*
X-50819Y9957D01*
X-50742Y9987D01*
X-50665Y10008D01*
X-50632Y10014D01*
X-50600Y10020D01*
X-50570Y10023D01*
X-50546Y10026D01*
X-50526Y10029D01*
X-50496D01*
X-50443Y10026D01*
D02*
G37*
G36*
X-47859Y7971D02*
X-48131D01*
Y8880D01*
X-48480D01*
X-48513Y8877D01*
X-48537D01*
X-48557Y8874D01*
X-48572Y8871D01*
X-48584D01*
X-48590Y8868D01*
X-48593D01*
X-48640Y8853D01*
X-48661Y8845D01*
X-48679Y8836D01*
X-48696Y8827D01*
X-48708Y8821D01*
X-48714Y8818D01*
X-48717Y8815D01*
X-48741Y8797D01*
X-48765Y8777D01*
X-48809Y8732D01*
X-48830Y8711D01*
X-48844Y8694D01*
X-48853Y8682D01*
X-48856Y8679D01*
X-48886Y8637D01*
X-48918Y8593D01*
X-48951Y8546D01*
X-48984Y8501D01*
X-49010Y8460D01*
X-49031Y8427D01*
X-49040Y8415D01*
X-49046Y8406D01*
X-49052Y8400D01*
Y8398D01*
X-49321Y7971D01*
X-49658D01*
X-49306Y8528D01*
X-49265Y8587D01*
X-49226Y8640D01*
X-49188Y8685D01*
X-49155Y8726D01*
X-49126Y8756D01*
X-49102Y8779D01*
X-49087Y8794D01*
X-49081Y8800D01*
X-49057Y8818D01*
X-49031Y8839D01*
X-48978Y8871D01*
X-48954Y8883D01*
X-48936Y8895D01*
X-48924Y8901D01*
X-48918Y8904D01*
X-48972Y8913D01*
X-49022Y8922D01*
X-49066Y8936D01*
X-49111Y8948D01*
X-49149Y8963D01*
X-49185Y8981D01*
X-49217Y8996D01*
X-49247Y9010D01*
X-49271Y9028D01*
X-49294Y9043D01*
X-49312Y9055D01*
X-49327Y9066D01*
X-49339Y9075D01*
X-49348Y9084D01*
X-49351Y9087D01*
X-49354Y9090D01*
X-49377Y9120D01*
X-49401Y9149D01*
X-49436Y9212D01*
X-49460Y9274D01*
X-49478Y9333D01*
X-49490Y9383D01*
X-49493Y9404D01*
Y9425D01*
X-49496Y9439D01*
Y9451D01*
Y9457D01*
Y9460D01*
X-49493Y9522D01*
X-49484Y9579D01*
X-49469Y9632D01*
X-49454Y9676D01*
X-49436Y9715D01*
X-49425Y9744D01*
X-49413Y9762D01*
X-49410Y9765D01*
Y9768D01*
X-49374Y9815D01*
X-49339Y9857D01*
X-49300Y9892D01*
X-49265Y9919D01*
X-49232Y9940D01*
X-49205Y9952D01*
X-49188Y9961D01*
X-49185Y9963D01*
X-49182D01*
X-49155Y9972D01*
X-49123Y9981D01*
X-49057Y9996D01*
X-48987Y10005D01*
X-48921Y10014D01*
X-48859Y10017D01*
X-48833D01*
X-48809Y10020D01*
X-47859D01*
Y7971D01*
D02*
G37*
G36*
X-29735Y52978D02*
X-29702Y52931D01*
X-29664Y52884D01*
X-29628Y52842D01*
X-29593Y52807D01*
X-29566Y52777D01*
X-29554Y52768D01*
X-29545Y52759D01*
X-29542Y52756D01*
X-29539Y52753D01*
X-29477Y52703D01*
X-29415Y52656D01*
X-29356Y52614D01*
X-29297Y52582D01*
X-29247Y52552D01*
X-29226Y52540D01*
X-29208Y52531D01*
X-29193Y52522D01*
X-29181Y52520D01*
X-29175Y52514D01*
X-29173D01*
Y52271D01*
X-29217Y52289D01*
X-29261Y52309D01*
X-29306Y52330D01*
X-29347Y52351D01*
X-29383Y52368D01*
X-29412Y52383D01*
X-29430Y52395D01*
X-29433Y52398D01*
X-29436D01*
X-29489Y52431D01*
X-29537Y52463D01*
X-29578Y52493D01*
X-29611Y52520D01*
X-29640Y52540D01*
X-29658Y52558D01*
X-29673Y52570D01*
X-29676Y52573D01*
Y50971D01*
X-29927D01*
Y53029D01*
X-29765D01*
X-29735Y52978D01*
D02*
G37*
G36*
X-27018Y50971D02*
X-27755D01*
X-27823Y50974D01*
X-27885Y50977D01*
X-27941Y50983D01*
X-27988Y50989D01*
X-28030Y50995D01*
X-28060Y50998D01*
X-28068Y51001D01*
X-28077Y51004D01*
X-28083D01*
X-28137Y51019D01*
X-28184Y51037D01*
X-28225Y51051D01*
X-28261Y51069D01*
X-28290Y51084D01*
X-28311Y51096D01*
X-28323Y51105D01*
X-28329Y51108D01*
X-28367Y51134D01*
X-28400Y51167D01*
X-28433Y51196D01*
X-28459Y51226D01*
X-28483Y51253D01*
X-28501Y51273D01*
X-28512Y51288D01*
X-28515Y51294D01*
X-28545Y51341D01*
X-28575Y51392D01*
X-28598Y51439D01*
X-28616Y51486D01*
X-28634Y51528D01*
X-28646Y51560D01*
X-28649Y51572D01*
X-28651Y51581D01*
X-28655Y51587D01*
Y51590D01*
X-28672Y51661D01*
X-28687Y51732D01*
X-28696Y51800D01*
X-28705Y51865D01*
X-28708Y51922D01*
Y51945D01*
X-28711Y51966D01*
Y51981D01*
Y51996D01*
Y52002D01*
Y52004D01*
X-28708Y52105D01*
X-28699Y52197D01*
X-28684Y52280D01*
X-28678Y52318D01*
X-28669Y52351D01*
X-28660Y52383D01*
X-28655Y52410D01*
X-28649Y52434D01*
X-28640Y52454D01*
X-28637Y52472D01*
X-28631Y52484D01*
X-28628Y52490D01*
Y52493D01*
X-28595Y52570D01*
X-28557Y52638D01*
X-28515Y52697D01*
X-28477Y52747D01*
X-28441Y52789D01*
X-28412Y52818D01*
X-28400Y52827D01*
X-28391Y52836D01*
X-28388Y52839D01*
X-28385Y52842D01*
X-28338Y52881D01*
X-28287Y52910D01*
X-28237Y52937D01*
X-28190Y52958D01*
X-28148Y52972D01*
X-28116Y52981D01*
X-28104Y52987D01*
X-28095D01*
X-28089Y52990D01*
X-28086D01*
X-28036Y52999D01*
X-27977Y53008D01*
X-27917Y53014D01*
X-27858Y53017D01*
X-27805Y53020D01*
X-27018D01*
Y50971D01*
D02*
G37*
G36*
X30321Y54054D02*
X30416Y54039D01*
X30499Y54021D01*
X30538Y54009D01*
X30573Y53997D01*
X30606Y53986D01*
X30635Y53974D01*
X30659Y53965D01*
X30683Y53956D01*
X30697Y53947D01*
X30709Y53941D01*
X30718Y53938D01*
X30721Y53935D01*
X30801Y53885D01*
X30869Y53826D01*
X30928Y53767D01*
X30979Y53707D01*
X31017Y53654D01*
X31032Y53631D01*
X31044Y53610D01*
X31056Y53595D01*
X31061Y53583D01*
X31064Y53574D01*
X31067Y53571D01*
X31109Y53479D01*
X31138Y53385D01*
X31159Y53290D01*
X31174Y53204D01*
X31180Y53166D01*
X31183Y53127D01*
X31186Y53098D01*
Y53068D01*
X31189Y53047D01*
Y53030D01*
Y53018D01*
Y53015D01*
X31183Y52908D01*
X31171Y52805D01*
X31156Y52713D01*
X31144Y52668D01*
X31135Y52630D01*
X31126Y52595D01*
X31115Y52562D01*
X31106Y52532D01*
X31100Y52509D01*
X31091Y52491D01*
X31088Y52476D01*
X31082Y52467D01*
Y52464D01*
X31038Y52375D01*
X30987Y52296D01*
X30934Y52227D01*
X30907Y52201D01*
X30884Y52174D01*
X30860Y52150D01*
X30836Y52130D01*
X30816Y52112D01*
X30798Y52100D01*
X30786Y52088D01*
X30774Y52079D01*
X30768Y52077D01*
X30765Y52074D01*
X30724Y52050D01*
X30683Y52029D01*
X30594Y51997D01*
X30505Y51973D01*
X30419Y51958D01*
X30378Y51952D01*
X30342Y51946D01*
X30310Y51943D01*
X30283D01*
X30259Y51940D01*
X30227D01*
X30167Y51943D01*
X30111Y51949D01*
X30058Y51955D01*
X30008Y51967D01*
X29960Y51982D01*
X29916Y51997D01*
X29874Y52011D01*
X29836Y52029D01*
X29803Y52044D01*
X29771Y52059D01*
X29747Y52074D01*
X29724Y52088D01*
X29709Y52100D01*
X29694Y52106D01*
X29688Y52112D01*
X29685Y52115D01*
X29644Y52150D01*
X29608Y52186D01*
X29575Y52227D01*
X29543Y52269D01*
X29490Y52352D01*
X29448Y52435D01*
X29430Y52473D01*
X29416Y52509D01*
X29404Y52541D01*
X29395Y52568D01*
X29386Y52592D01*
X29380Y52609D01*
X29377Y52621D01*
Y52624D01*
X29649Y52692D01*
X29661Y52645D01*
X29676Y52600D01*
X29691Y52559D01*
X29706Y52521D01*
X29724Y52485D01*
X29741Y52455D01*
X29762Y52426D01*
X29780Y52399D01*
X29794Y52375D01*
X29812Y52358D01*
X29827Y52340D01*
X29839Y52325D01*
X29851Y52316D01*
X29860Y52307D01*
X29863Y52304D01*
X29866Y52301D01*
X29895Y52278D01*
X29928Y52260D01*
X29993Y52227D01*
X30055Y52204D01*
X30117Y52189D01*
X30170Y52177D01*
X30191Y52174D01*
X30212D01*
X30230Y52171D01*
X30250D01*
X30318Y52174D01*
X30384Y52186D01*
X30443Y52201D01*
X30496Y52219D01*
X30538Y52236D01*
X30555Y52245D01*
X30570Y52251D01*
X30582Y52257D01*
X30591Y52263D01*
X30597Y52266D01*
X30600D01*
X30656Y52307D01*
X30703Y52352D01*
X30745Y52402D01*
X30777Y52449D01*
X30804Y52491D01*
X30822Y52526D01*
X30828Y52541D01*
X30834Y52550D01*
X30836Y52556D01*
Y52559D01*
X30860Y52636D01*
X30878Y52713D01*
X30893Y52790D01*
X30902Y52861D01*
X30904Y52893D01*
X30907Y52923D01*
Y52950D01*
X30910Y52970D01*
Y52988D01*
Y53003D01*
Y53012D01*
Y53015D01*
X30907Y53092D01*
X30902Y53163D01*
X30890Y53228D01*
X30878Y53287D01*
X30869Y53337D01*
X30863Y53358D01*
X30857Y53376D01*
X30854Y53391D01*
X30851Y53400D01*
X30848Y53405D01*
Y53408D01*
X30819Y53477D01*
X30786Y53539D01*
X30751Y53589D01*
X30712Y53633D01*
X30680Y53669D01*
X30653Y53693D01*
X30632Y53707D01*
X30629Y53713D01*
X30626D01*
X30564Y53752D01*
X30496Y53781D01*
X30431Y53802D01*
X30369Y53814D01*
X30312Y53823D01*
X30289Y53826D01*
X30268D01*
X30253Y53829D01*
X30230D01*
X30156Y53826D01*
X30088Y53814D01*
X30031Y53796D01*
X29981Y53778D01*
X29943Y53758D01*
X29913Y53743D01*
X29895Y53731D01*
X29889Y53725D01*
X29842Y53681D01*
X29798Y53631D01*
X29762Y53577D01*
X29732Y53524D01*
X29709Y53477D01*
X29700Y53453D01*
X29694Y53435D01*
X29688Y53420D01*
X29682Y53408D01*
X29679Y53403D01*
Y53400D01*
X29413Y53462D01*
X29430Y53515D01*
X29448Y53562D01*
X29472Y53607D01*
X29493Y53651D01*
X29516Y53690D01*
X29543Y53725D01*
X29567Y53761D01*
X29590Y53790D01*
X29614Y53814D01*
X29635Y53838D01*
X29655Y53858D01*
X29670Y53873D01*
X29685Y53888D01*
X29697Y53897D01*
X29703Y53900D01*
X29706Y53903D01*
X29747Y53929D01*
X29789Y53956D01*
X29830Y53977D01*
X29874Y53995D01*
X29963Y54021D01*
X30043Y54039D01*
X30082Y54048D01*
X30114Y54051D01*
X30147Y54054D01*
X30173Y54057D01*
X30194Y54060D01*
X30224D01*
X30321Y54054D01*
D02*
G37*
G36*
X29232Y52698D02*
Y52467D01*
X28341D01*
Y51976D01*
X28090D01*
Y52467D01*
X27811D01*
Y52698D01*
X28090D01*
Y54024D01*
X28294D01*
X29232Y52698D01*
D02*
G37*
G36*
X26094Y37527D02*
X26174Y37512D01*
X26242Y37489D01*
X26301Y37465D01*
X26328Y37450D01*
X26349Y37438D01*
X26370Y37426D01*
X26384Y37415D01*
X26396Y37406D01*
X26405Y37400D01*
X26411Y37397D01*
X26414Y37394D01*
X26470Y37338D01*
X26515Y37275D01*
X26550Y37210D01*
X26580Y37145D01*
X26597Y37089D01*
X26606Y37065D01*
X26612Y37045D01*
X26615Y37027D01*
X26618Y37015D01*
X26621Y37006D01*
Y37003D01*
X26370Y36959D01*
X26358Y37024D01*
X26340Y37080D01*
X26319Y37128D01*
X26298Y37166D01*
X26278Y37196D01*
X26260Y37216D01*
X26248Y37231D01*
X26245Y37234D01*
X26207Y37264D01*
X26165Y37287D01*
X26127Y37302D01*
X26088Y37314D01*
X26053Y37320D01*
X26026Y37326D01*
X26002D01*
X25949Y37323D01*
X25902Y37311D01*
X25860Y37296D01*
X25825Y37281D01*
X25798Y37264D01*
X25778Y37249D01*
X25763Y37237D01*
X25760Y37234D01*
X25727Y37199D01*
X25703Y37160D01*
X25689Y37122D01*
X25677Y37086D01*
X25671Y37053D01*
X25665Y37030D01*
Y37012D01*
Y37009D01*
Y37006D01*
Y36974D01*
X25671Y36944D01*
X25686Y36894D01*
X25706Y36849D01*
X25730Y36811D01*
X25754Y36784D01*
X25775Y36763D01*
X25789Y36752D01*
X25792Y36749D01*
X25795D01*
X25846Y36722D01*
X25893Y36701D01*
X25943Y36687D01*
X25988Y36678D01*
X26026Y36672D01*
X26059Y36666D01*
X26097D01*
X26109Y36669D01*
X26124D01*
X26153Y36447D01*
X26115Y36456D01*
X26079Y36461D01*
X26050Y36467D01*
X26023Y36470D01*
X26002Y36473D01*
X25976D01*
X25914Y36467D01*
X25857Y36456D01*
X25807Y36438D01*
X25766Y36417D01*
X25733Y36396D01*
X25709Y36379D01*
X25695Y36367D01*
X25689Y36361D01*
X25650Y36316D01*
X25621Y36269D01*
X25600Y36222D01*
X25588Y36174D01*
X25579Y36136D01*
X25576Y36103D01*
X25573Y36092D01*
Y36083D01*
Y36077D01*
Y36074D01*
X25579Y36009D01*
X25594Y35949D01*
X25612Y35899D01*
X25635Y35855D01*
X25659Y35819D01*
X25677Y35793D01*
X25692Y35775D01*
X25698Y35769D01*
X25745Y35727D01*
X25795Y35698D01*
X25846Y35677D01*
X25893Y35662D01*
X25934Y35653D01*
X25967Y35651D01*
X25979Y35647D01*
X25997D01*
X26050Y35651D01*
X26100Y35662D01*
X26145Y35677D01*
X26180Y35695D01*
X26210Y35710D01*
X26233Y35724D01*
X26245Y35736D01*
X26251Y35739D01*
X26287Y35781D01*
X26316Y35828D01*
X26343Y35878D01*
X26364Y35932D01*
X26378Y35976D01*
X26384Y35997D01*
X26387Y36015D01*
X26390Y36029D01*
X26393Y36041D01*
X26396Y36047D01*
Y36050D01*
X26648Y36018D01*
X26642Y35970D01*
X26633Y35926D01*
X26606Y35843D01*
X26574Y35772D01*
X26556Y35742D01*
X26538Y35713D01*
X26520Y35686D01*
X26503Y35665D01*
X26488Y35645D01*
X26473Y35630D01*
X26464Y35618D01*
X26455Y35609D01*
X26449Y35603D01*
X26447Y35600D01*
X26411Y35574D01*
X26375Y35547D01*
X26340Y35526D01*
X26301Y35508D01*
X26227Y35479D01*
X26156Y35461D01*
X26124Y35455D01*
X26094Y35449D01*
X26068Y35446D01*
X26044Y35443D01*
X26026Y35440D01*
X26000D01*
X25943Y35443D01*
X25893Y35449D01*
X25843Y35458D01*
X25795Y35470D01*
X25751Y35485D01*
X25712Y35500D01*
X25674Y35517D01*
X25641Y35535D01*
X25609Y35550D01*
X25582Y35568D01*
X25559Y35582D01*
X25541Y35597D01*
X25526Y35609D01*
X25514Y35618D01*
X25508Y35624D01*
X25505Y35627D01*
X25470Y35662D01*
X25440Y35701D01*
X25413Y35739D01*
X25390Y35778D01*
X25372Y35813D01*
X25354Y35852D01*
X25331Y35923D01*
X25325Y35955D01*
X25319Y35985D01*
X25313Y36012D01*
X25310Y36035D01*
X25307Y36053D01*
Y36068D01*
Y36077D01*
Y36080D01*
X25310Y36151D01*
X25322Y36216D01*
X25339Y36272D01*
X25357Y36319D01*
X25375Y36358D01*
X25393Y36388D01*
X25405Y36405D01*
X25407Y36411D01*
X25449Y36456D01*
X25493Y36494D01*
X25541Y36524D01*
X25588Y36547D01*
X25629Y36565D01*
X25662Y36577D01*
X25674Y36580D01*
X25683Y36583D01*
X25689Y36586D01*
X25692D01*
X25641Y36612D01*
X25600Y36639D01*
X25564Y36669D01*
X25535Y36695D01*
X25511Y36719D01*
X25493Y36740D01*
X25484Y36752D01*
X25482Y36757D01*
X25458Y36799D01*
X25440Y36840D01*
X25425Y36882D01*
X25416Y36920D01*
X25411Y36953D01*
X25407Y36977D01*
Y36994D01*
Y37000D01*
X25411Y37051D01*
X25419Y37101D01*
X25431Y37145D01*
X25446Y37184D01*
X25461Y37216D01*
X25473Y37243D01*
X25482Y37258D01*
X25484Y37264D01*
X25514Y37308D01*
X25550Y37347D01*
X25585Y37379D01*
X25621Y37409D01*
X25650Y37429D01*
X25677Y37447D01*
X25695Y37456D01*
X25698Y37459D01*
X25701D01*
X25754Y37483D01*
X25807Y37501D01*
X25860Y37515D01*
X25908Y37524D01*
X25946Y37530D01*
X25979Y37533D01*
X26053D01*
X26094Y37527D01*
D02*
G37*
G36*
X27826Y37554D02*
X27921Y37539D01*
X28003Y37521D01*
X28042Y37509D01*
X28077Y37497D01*
X28110Y37486D01*
X28140Y37474D01*
X28163Y37465D01*
X28187Y37456D01*
X28202Y37447D01*
X28214Y37441D01*
X28223Y37438D01*
X28225Y37435D01*
X28305Y37385D01*
X28373Y37326D01*
X28433Y37267D01*
X28483Y37207D01*
X28521Y37154D01*
X28536Y37130D01*
X28548Y37110D01*
X28560Y37095D01*
X28566Y37083D01*
X28569Y37074D01*
X28572Y37071D01*
X28613Y36979D01*
X28643Y36885D01*
X28664Y36790D01*
X28678Y36704D01*
X28684Y36666D01*
X28687Y36627D01*
X28690Y36598D01*
Y36568D01*
X28693Y36547D01*
Y36530D01*
Y36518D01*
Y36515D01*
X28687Y36408D01*
X28675Y36305D01*
X28661Y36213D01*
X28649Y36169D01*
X28640Y36130D01*
X28631Y36094D01*
X28619Y36062D01*
X28610Y36032D01*
X28604Y36009D01*
X28595Y35991D01*
X28593Y35976D01*
X28587Y35967D01*
Y35964D01*
X28542Y35875D01*
X28492Y35796D01*
X28439Y35727D01*
X28412Y35701D01*
X28388Y35674D01*
X28365Y35651D01*
X28341Y35630D01*
X28320Y35612D01*
X28302Y35600D01*
X28291Y35588D01*
X28279Y35579D01*
X28273Y35577D01*
X28270Y35574D01*
X28228Y35550D01*
X28187Y35529D01*
X28098Y35497D01*
X28009Y35473D01*
X27924Y35458D01*
X27882Y35452D01*
X27847Y35446D01*
X27814Y35443D01*
X27787D01*
X27764Y35440D01*
X27731D01*
X27672Y35443D01*
X27616Y35449D01*
X27562Y35455D01*
X27512Y35467D01*
X27465Y35482D01*
X27420Y35497D01*
X27379Y35511D01*
X27340Y35529D01*
X27308Y35544D01*
X27275Y35559D01*
X27252Y35574D01*
X27228Y35588D01*
X27213Y35600D01*
X27198Y35606D01*
X27192Y35612D01*
X27189Y35615D01*
X27148Y35651D01*
X27112Y35686D01*
X27080Y35727D01*
X27047Y35769D01*
X26994Y35852D01*
X26953Y35935D01*
X26935Y35973D01*
X26920Y36009D01*
X26908Y36041D01*
X26899Y36068D01*
X26891Y36092D01*
X26885Y36109D01*
X26882Y36121D01*
Y36124D01*
X27154Y36192D01*
X27166Y36145D01*
X27181Y36100D01*
X27195Y36059D01*
X27210Y36020D01*
X27228Y35985D01*
X27246Y35955D01*
X27266Y35926D01*
X27284Y35899D01*
X27299Y35875D01*
X27317Y35858D01*
X27332Y35840D01*
X27343Y35825D01*
X27355Y35816D01*
X27364Y35807D01*
X27367Y35804D01*
X27370Y35801D01*
X27400Y35778D01*
X27432Y35760D01*
X27497Y35727D01*
X27559Y35704D01*
X27622Y35689D01*
X27675Y35677D01*
X27696Y35674D01*
X27716D01*
X27734Y35671D01*
X27755D01*
X27823Y35674D01*
X27888Y35686D01*
X27947Y35701D01*
X28001Y35719D01*
X28042Y35736D01*
X28060Y35745D01*
X28074Y35751D01*
X28086Y35757D01*
X28095Y35763D01*
X28101Y35766D01*
X28104D01*
X28160Y35807D01*
X28208Y35852D01*
X28249Y35902D01*
X28282Y35949D01*
X28308Y35991D01*
X28326Y36026D01*
X28332Y36041D01*
X28338Y36050D01*
X28341Y36056D01*
Y36059D01*
X28365Y36136D01*
X28382Y36213D01*
X28397Y36290D01*
X28406Y36361D01*
X28409Y36393D01*
X28412Y36423D01*
Y36450D01*
X28415Y36470D01*
Y36488D01*
Y36503D01*
Y36512D01*
Y36515D01*
X28412Y36592D01*
X28406Y36663D01*
X28394Y36728D01*
X28382Y36787D01*
X28373Y36837D01*
X28367Y36858D01*
X28362Y36876D01*
X28359Y36891D01*
X28356Y36900D01*
X28353Y36906D01*
Y36909D01*
X28323Y36977D01*
X28291Y37039D01*
X28255Y37089D01*
X28217Y37133D01*
X28184Y37169D01*
X28157Y37193D01*
X28137Y37207D01*
X28134Y37213D01*
X28131D01*
X28069Y37252D01*
X28001Y37281D01*
X27935Y37302D01*
X27873Y37314D01*
X27817Y37323D01*
X27793Y37326D01*
X27773D01*
X27758Y37329D01*
X27734D01*
X27660Y37326D01*
X27592Y37314D01*
X27536Y37296D01*
X27485Y37279D01*
X27447Y37258D01*
X27417Y37243D01*
X27400Y37231D01*
X27394Y37225D01*
X27346Y37181D01*
X27302Y37130D01*
X27266Y37077D01*
X27237Y37024D01*
X27213Y36977D01*
X27204Y36953D01*
X27198Y36935D01*
X27192Y36920D01*
X27187Y36909D01*
X27183Y36903D01*
Y36900D01*
X26917Y36962D01*
X26935Y37015D01*
X26953Y37062D01*
X26976Y37107D01*
X26997Y37151D01*
X27021Y37190D01*
X27047Y37225D01*
X27071Y37261D01*
X27095Y37290D01*
X27118Y37314D01*
X27139Y37338D01*
X27160Y37358D01*
X27175Y37373D01*
X27189Y37388D01*
X27201Y37397D01*
X27207Y37400D01*
X27210Y37403D01*
X27252Y37429D01*
X27293Y37456D01*
X27334Y37477D01*
X27379Y37495D01*
X27468Y37521D01*
X27548Y37539D01*
X27586Y37548D01*
X27619Y37551D01*
X27651Y37554D01*
X27678Y37557D01*
X27699Y37560D01*
X27728D01*
X27826Y37554D01*
D02*
G37*
G36*
X31016Y47530D02*
X31066Y47527D01*
X31113Y47518D01*
X31158Y47509D01*
X31199Y47497D01*
X31238Y47486D01*
X31273Y47471D01*
X31306Y47456D01*
X31335Y47441D01*
X31359Y47427D01*
X31380Y47415D01*
X31398Y47403D01*
X31412Y47394D01*
X31421Y47385D01*
X31427Y47382D01*
X31430Y47379D01*
X31460Y47350D01*
X31486Y47317D01*
X31513Y47281D01*
X31534Y47246D01*
X31569Y47175D01*
X31593Y47104D01*
X31602Y47071D01*
X31611Y47039D01*
X31617Y47012D01*
X31623Y46988D01*
X31626Y46968D01*
Y46953D01*
X31629Y46944D01*
Y46941D01*
X31371Y46914D01*
X31365Y46982D01*
X31353Y47042D01*
X31335Y47095D01*
X31315Y47136D01*
X31297Y47172D01*
X31279Y47196D01*
X31267Y47210D01*
X31262Y47216D01*
X31217Y47252D01*
X31170Y47278D01*
X31119Y47299D01*
X31075Y47311D01*
X31034Y47320D01*
X30998Y47323D01*
X30986Y47326D01*
X30968D01*
X30906Y47323D01*
X30850Y47311D01*
X30803Y47293D01*
X30761Y47276D01*
X30729Y47255D01*
X30708Y47240D01*
X30693Y47228D01*
X30687Y47222D01*
X30652Y47181D01*
X30625Y47139D01*
X30604Y47098D01*
X30593Y47056D01*
X30584Y47024D01*
X30581Y46994D01*
X30578Y46977D01*
Y46974D01*
Y46971D01*
X30584Y46917D01*
X30595Y46861D01*
X30616Y46811D01*
X30637Y46763D01*
X30661Y46725D01*
X30681Y46692D01*
X30687Y46681D01*
X30693Y46672D01*
X30699Y46669D01*
Y46666D01*
X30723Y46633D01*
X30752Y46601D01*
X30785Y46565D01*
X30820Y46530D01*
X30894Y46459D01*
X30968Y46387D01*
X31007Y46355D01*
X31040Y46325D01*
X31072Y46299D01*
X31099Y46275D01*
X31119Y46257D01*
X31137Y46242D01*
X31149Y46234D01*
X31152Y46231D01*
X31226Y46169D01*
X31294Y46109D01*
X31350Y46056D01*
X31395Y46012D01*
X31433Y45973D01*
X31460Y45946D01*
X31475Y45929D01*
X31481Y45926D01*
Y45923D01*
X31522Y45873D01*
X31554Y45825D01*
X31584Y45778D01*
X31608Y45736D01*
X31626Y45701D01*
X31637Y45674D01*
X31643Y45656D01*
X31646Y45653D01*
Y45651D01*
X31658Y45618D01*
X31664Y45588D01*
X31670Y45559D01*
X31673Y45532D01*
X31676Y45508D01*
Y45491D01*
Y45479D01*
Y45476D01*
X30317D01*
Y45719D01*
X31327D01*
X31291Y45769D01*
X31273Y45790D01*
X31258Y45810D01*
X31244Y45828D01*
X31232Y45840D01*
X31223Y45849D01*
X31220Y45852D01*
X31205Y45867D01*
X31187Y45881D01*
X31146Y45920D01*
X31099Y45964D01*
X31048Y46009D01*
X31001Y46047D01*
X30980Y46065D01*
X30962Y46083D01*
X30948Y46095D01*
X30936Y46103D01*
X30930Y46109D01*
X30927Y46112D01*
X30880Y46154D01*
X30832Y46192D01*
X30791Y46231D01*
X30752Y46263D01*
X30717Y46296D01*
X30687Y46325D01*
X30658Y46352D01*
X30634Y46376D01*
X30610Y46399D01*
X30593Y46417D01*
X30578Y46432D01*
X30563Y46447D01*
X30548Y46464D01*
X30542Y46470D01*
X30501Y46521D01*
X30465Y46565D01*
X30436Y46610D01*
X30412Y46645D01*
X30394Y46678D01*
X30382Y46701D01*
X30376Y46716D01*
X30373Y46722D01*
X30356Y46766D01*
X30344Y46811D01*
X30332Y46852D01*
X30326Y46888D01*
X30323Y46920D01*
X30320Y46944D01*
Y46959D01*
Y46965D01*
X30323Y47009D01*
X30329Y47051D01*
X30335Y47092D01*
X30347Y47128D01*
X30376Y47199D01*
X30406Y47255D01*
X30424Y47281D01*
X30439Y47302D01*
X30453Y47323D01*
X30468Y47338D01*
X30480Y47350D01*
X30486Y47361D01*
X30492Y47364D01*
X30495Y47367D01*
X30527Y47397D01*
X30563Y47423D01*
X30601Y47444D01*
X30640Y47462D01*
X30717Y47492D01*
X30794Y47512D01*
X30826Y47518D01*
X30859Y47524D01*
X30889Y47527D01*
X30912Y47530D01*
X30933Y47533D01*
X30962D01*
X31016Y47530D01*
D02*
G37*
G36*
X32816Y47554D02*
X32910Y47539D01*
X32993Y47521D01*
X33032Y47509D01*
X33067Y47497D01*
X33100Y47486D01*
X33129Y47474D01*
X33153Y47465D01*
X33177Y47456D01*
X33191Y47447D01*
X33203Y47441D01*
X33212Y47438D01*
X33215Y47435D01*
X33295Y47385D01*
X33363Y47326D01*
X33422Y47267D01*
X33473Y47207D01*
X33511Y47154D01*
X33526Y47131D01*
X33538Y47110D01*
X33550Y47095D01*
X33555Y47083D01*
X33558Y47074D01*
X33561Y47071D01*
X33603Y46979D01*
X33632Y46885D01*
X33653Y46790D01*
X33668Y46704D01*
X33674Y46666D01*
X33677Y46627D01*
X33680Y46598D01*
Y46568D01*
X33683Y46547D01*
Y46530D01*
Y46518D01*
Y46515D01*
X33677Y46408D01*
X33665Y46305D01*
X33650Y46213D01*
X33638Y46169D01*
X33630Y46130D01*
X33621Y46095D01*
X33609Y46062D01*
X33600Y46032D01*
X33594Y46009D01*
X33585Y45991D01*
X33582Y45976D01*
X33576Y45967D01*
Y45964D01*
X33532Y45875D01*
X33481Y45796D01*
X33428Y45727D01*
X33402Y45701D01*
X33378Y45674D01*
X33354Y45651D01*
X33331Y45630D01*
X33310Y45612D01*
X33292Y45600D01*
X33280Y45588D01*
X33268Y45579D01*
X33262Y45577D01*
X33259Y45573D01*
X33218Y45550D01*
X33177Y45529D01*
X33088Y45497D01*
X32999Y45473D01*
X32913Y45458D01*
X32872Y45452D01*
X32836Y45446D01*
X32804Y45443D01*
X32777D01*
X32753Y45440D01*
X32721D01*
X32662Y45443D01*
X32605Y45449D01*
X32552Y45455D01*
X32502Y45467D01*
X32454Y45482D01*
X32410Y45497D01*
X32368Y45511D01*
X32330Y45529D01*
X32298Y45544D01*
X32265Y45559D01*
X32241Y45573D01*
X32218Y45588D01*
X32203Y45600D01*
X32188Y45606D01*
X32182Y45612D01*
X32179Y45615D01*
X32138Y45651D01*
X32102Y45686D01*
X32070Y45727D01*
X32037Y45769D01*
X31984Y45852D01*
X31942Y45935D01*
X31925Y45973D01*
X31910Y46009D01*
X31898Y46041D01*
X31889Y46068D01*
X31880Y46091D01*
X31874Y46109D01*
X31871Y46121D01*
Y46124D01*
X32144Y46192D01*
X32155Y46145D01*
X32170Y46100D01*
X32185Y46059D01*
X32200Y46020D01*
X32218Y45985D01*
X32235Y45955D01*
X32256Y45926D01*
X32274Y45899D01*
X32289Y45875D01*
X32306Y45858D01*
X32321Y45840D01*
X32333Y45825D01*
X32345Y45816D01*
X32354Y45807D01*
X32357Y45804D01*
X32360Y45801D01*
X32389Y45778D01*
X32422Y45760D01*
X32487Y45727D01*
X32549Y45704D01*
X32611Y45689D01*
X32664Y45677D01*
X32685Y45674D01*
X32706D01*
X32724Y45671D01*
X32744D01*
X32812Y45674D01*
X32878Y45686D01*
X32937Y45701D01*
X32990Y45719D01*
X33032Y45736D01*
X33049Y45745D01*
X33064Y45751D01*
X33076Y45757D01*
X33085Y45763D01*
X33091Y45766D01*
X33094D01*
X33150Y45807D01*
X33197Y45852D01*
X33239Y45902D01*
X33271Y45949D01*
X33298Y45991D01*
X33316Y46026D01*
X33322Y46041D01*
X33328Y46050D01*
X33331Y46056D01*
Y46059D01*
X33354Y46136D01*
X33372Y46213D01*
X33387Y46290D01*
X33396Y46361D01*
X33399Y46393D01*
X33402Y46423D01*
Y46450D01*
X33404Y46470D01*
Y46488D01*
Y46503D01*
Y46512D01*
Y46515D01*
X33402Y46592D01*
X33396Y46663D01*
X33384Y46728D01*
X33372Y46787D01*
X33363Y46837D01*
X33357Y46858D01*
X33351Y46876D01*
X33348Y46891D01*
X33345Y46900D01*
X33342Y46905D01*
Y46909D01*
X33313Y46977D01*
X33280Y47039D01*
X33245Y47089D01*
X33206Y47133D01*
X33174Y47169D01*
X33147Y47193D01*
X33126Y47207D01*
X33123Y47213D01*
X33120D01*
X33058Y47252D01*
X32990Y47281D01*
X32925Y47302D01*
X32863Y47314D01*
X32807Y47323D01*
X32783Y47326D01*
X32762D01*
X32747Y47329D01*
X32724D01*
X32650Y47326D01*
X32582Y47314D01*
X32525Y47296D01*
X32475Y47278D01*
X32437Y47258D01*
X32407Y47243D01*
X32389Y47231D01*
X32383Y47225D01*
X32336Y47181D01*
X32292Y47131D01*
X32256Y47077D01*
X32226Y47024D01*
X32203Y46977D01*
X32194Y46953D01*
X32188Y46935D01*
X32182Y46920D01*
X32176Y46909D01*
X32173Y46903D01*
Y46900D01*
X31907Y46962D01*
X31925Y47015D01*
X31942Y47062D01*
X31966Y47107D01*
X31987Y47151D01*
X32010Y47190D01*
X32037Y47225D01*
X32061Y47261D01*
X32084Y47290D01*
X32108Y47314D01*
X32129Y47338D01*
X32149Y47358D01*
X32164Y47373D01*
X32179Y47388D01*
X32191Y47397D01*
X32197Y47400D01*
X32200Y47403D01*
X32241Y47429D01*
X32283Y47456D01*
X32324Y47477D01*
X32368Y47495D01*
X32457Y47521D01*
X32537Y47539D01*
X32576Y47548D01*
X32608Y47551D01*
X32641Y47554D01*
X32667Y47557D01*
X32688Y47560D01*
X32718D01*
X32816Y47554D01*
D02*
G37*
G36*
X25698Y33483D02*
X25730Y33435D01*
X25769Y33388D01*
X25804Y33347D01*
X25840Y33311D01*
X25866Y33281D01*
X25878Y33273D01*
X25887Y33264D01*
X25890Y33261D01*
X25893Y33258D01*
X25955Y33207D01*
X26017Y33160D01*
X26076Y33119D01*
X26136Y33086D01*
X26186Y33057D01*
X26207Y33045D01*
X26224Y33036D01*
X26239Y33027D01*
X26251Y33024D01*
X26257Y33018D01*
X26260D01*
Y32775D01*
X26216Y32793D01*
X26171Y32814D01*
X26127Y32835D01*
X26085Y32855D01*
X26050Y32873D01*
X26020Y32888D01*
X26002Y32900D01*
X26000Y32903D01*
X25997D01*
X25943Y32935D01*
X25896Y32968D01*
X25855Y32997D01*
X25822Y33024D01*
X25792Y33045D01*
X25775Y33062D01*
X25760Y33074D01*
X25757Y33077D01*
Y31476D01*
X25505D01*
Y33533D01*
X25668D01*
X25698Y33483D01*
D02*
G37*
G36*
X27628Y33554D02*
X27722Y33539D01*
X27805Y33521D01*
X27844Y33509D01*
X27879Y33498D01*
X27912Y33486D01*
X27941Y33474D01*
X27965Y33465D01*
X27989Y33456D01*
X28003Y33447D01*
X28015Y33441D01*
X28024Y33438D01*
X28027Y33435D01*
X28107Y33385D01*
X28175Y33326D01*
X28234Y33267D01*
X28285Y33207D01*
X28323Y33154D01*
X28338Y33130D01*
X28350Y33110D01*
X28362Y33095D01*
X28367Y33083D01*
X28370Y33074D01*
X28373Y33071D01*
X28415Y32980D01*
X28444Y32885D01*
X28465Y32790D01*
X28480Y32704D01*
X28486Y32666D01*
X28489Y32627D01*
X28492Y32598D01*
Y32568D01*
X28495Y32547D01*
Y32530D01*
Y32518D01*
Y32515D01*
X28489Y32408D01*
X28477Y32305D01*
X28462Y32213D01*
X28450Y32168D01*
X28442Y32130D01*
X28433Y32094D01*
X28421Y32062D01*
X28412Y32032D01*
X28406Y32009D01*
X28397Y31991D01*
X28394Y31976D01*
X28388Y31967D01*
Y31964D01*
X28344Y31875D01*
X28293Y31795D01*
X28240Y31727D01*
X28214Y31701D01*
X28190Y31674D01*
X28166Y31651D01*
X28143Y31630D01*
X28122Y31612D01*
X28104Y31600D01*
X28092Y31588D01*
X28080Y31579D01*
X28074Y31576D01*
X28071Y31574D01*
X28030Y31550D01*
X27989Y31529D01*
X27900Y31497D01*
X27811Y31473D01*
X27725Y31458D01*
X27684Y31452D01*
X27648Y31446D01*
X27616Y31443D01*
X27589D01*
X27565Y31440D01*
X27533D01*
X27474Y31443D01*
X27417Y31449D01*
X27364Y31455D01*
X27314Y31467D01*
X27266Y31482D01*
X27222Y31497D01*
X27181Y31511D01*
X27142Y31529D01*
X27110Y31544D01*
X27077Y31559D01*
X27053Y31574D01*
X27030Y31588D01*
X27015Y31600D01*
X27000Y31606D01*
X26994Y31612D01*
X26991Y31615D01*
X26950Y31651D01*
X26914Y31686D01*
X26882Y31727D01*
X26849Y31769D01*
X26796Y31852D01*
X26754Y31935D01*
X26737Y31973D01*
X26722Y32009D01*
X26710Y32041D01*
X26701Y32068D01*
X26692Y32092D01*
X26686Y32109D01*
X26683Y32121D01*
Y32124D01*
X26956Y32192D01*
X26967Y32145D01*
X26982Y32100D01*
X26997Y32059D01*
X27012Y32021D01*
X27030Y31985D01*
X27047Y31955D01*
X27068Y31926D01*
X27086Y31899D01*
X27101Y31875D01*
X27118Y31858D01*
X27133Y31840D01*
X27145Y31825D01*
X27157Y31816D01*
X27166Y31807D01*
X27169Y31804D01*
X27172Y31801D01*
X27201Y31778D01*
X27234Y31760D01*
X27299Y31727D01*
X27361Y31704D01*
X27423Y31689D01*
X27477Y31677D01*
X27497Y31674D01*
X27518D01*
X27536Y31671D01*
X27556D01*
X27625Y31674D01*
X27690Y31686D01*
X27749Y31701D01*
X27802Y31719D01*
X27844Y31736D01*
X27861Y31745D01*
X27876Y31751D01*
X27888Y31757D01*
X27897Y31763D01*
X27903Y31766D01*
X27906D01*
X27962Y31807D01*
X28009Y31852D01*
X28051Y31902D01*
X28083Y31949D01*
X28110Y31991D01*
X28128Y32026D01*
X28134Y32041D01*
X28140Y32050D01*
X28143Y32056D01*
Y32059D01*
X28166Y32136D01*
X28184Y32213D01*
X28199Y32290D01*
X28208Y32361D01*
X28211Y32393D01*
X28214Y32423D01*
Y32450D01*
X28217Y32470D01*
Y32488D01*
Y32503D01*
Y32512D01*
Y32515D01*
X28214Y32592D01*
X28208Y32663D01*
X28196Y32728D01*
X28184Y32787D01*
X28175Y32837D01*
X28169Y32858D01*
X28163Y32876D01*
X28160Y32891D01*
X28157Y32900D01*
X28154Y32906D01*
Y32908D01*
X28125Y32977D01*
X28092Y33039D01*
X28057Y33089D01*
X28018Y33133D01*
X27986Y33169D01*
X27959Y33193D01*
X27938Y33207D01*
X27935Y33213D01*
X27932D01*
X27870Y33252D01*
X27802Y33281D01*
X27737Y33302D01*
X27675Y33314D01*
X27619Y33323D01*
X27595Y33326D01*
X27574D01*
X27559Y33329D01*
X27536D01*
X27462Y33326D01*
X27394Y33314D01*
X27337Y33296D01*
X27287Y33279D01*
X27249Y33258D01*
X27219Y33243D01*
X27201Y33231D01*
X27195Y33225D01*
X27148Y33181D01*
X27104Y33130D01*
X27068Y33077D01*
X27038Y33024D01*
X27015Y32977D01*
X27006Y32953D01*
X27000Y32935D01*
X26994Y32920D01*
X26988Y32908D01*
X26985Y32903D01*
Y32900D01*
X26719Y32962D01*
X26737Y33015D01*
X26754Y33062D01*
X26778Y33107D01*
X26799Y33151D01*
X26822Y33190D01*
X26849Y33225D01*
X26873Y33261D01*
X26896Y33290D01*
X26920Y33314D01*
X26941Y33338D01*
X26961Y33358D01*
X26976Y33373D01*
X26991Y33388D01*
X27003Y33397D01*
X27009Y33400D01*
X27012Y33403D01*
X27053Y33429D01*
X27095Y33456D01*
X27136Y33477D01*
X27181Y33495D01*
X27269Y33521D01*
X27349Y33539D01*
X27388Y33548D01*
X27420Y33551D01*
X27453Y33554D01*
X27479Y33557D01*
X27500Y33560D01*
X27530D01*
X27628Y33554D01*
D02*
G37*
%LPC*%
G36*
X40379Y38310D02*
X39734D01*
X39654Y38307D01*
X39586Y38295D01*
X39527Y38280D01*
X39483Y38262D01*
X39444Y38244D01*
X39420Y38230D01*
X39406Y38218D01*
X39400Y38215D01*
X39364Y38176D01*
X39337Y38138D01*
X39320Y38096D01*
X39305Y38061D01*
X39299Y38025D01*
X39296Y37999D01*
X39293Y37981D01*
Y37978D01*
Y37975D01*
X39296Y37940D01*
X39302Y37904D01*
X39311Y37874D01*
X39320Y37848D01*
X39331Y37824D01*
X39340Y37806D01*
X39346Y37795D01*
X39349Y37792D01*
X39370Y37762D01*
X39397Y37735D01*
X39423Y37715D01*
X39450Y37697D01*
X39474Y37685D01*
X39491Y37676D01*
X39503Y37670D01*
X39509Y37667D01*
X39551Y37655D01*
X39598Y37646D01*
X39645Y37641D01*
X39693Y37638D01*
X39734Y37635D01*
X39770Y37632D01*
X40379D01*
Y38310D01*
D02*
G37*
G36*
X-48131Y9792D02*
X-48776D01*
X-48856Y9789D01*
X-48924Y9777D01*
X-48984Y9762D01*
X-49028Y9744D01*
X-49066Y9727D01*
X-49090Y9712D01*
X-49105Y9700D01*
X-49111Y9697D01*
X-49146Y9658D01*
X-49173Y9620D01*
X-49191Y9579D01*
X-49205Y9543D01*
X-49211Y9508D01*
X-49214Y9481D01*
X-49217Y9463D01*
Y9460D01*
Y9457D01*
X-49214Y9422D01*
X-49209Y9386D01*
X-49200Y9357D01*
X-49191Y9330D01*
X-49179Y9306D01*
X-49170Y9289D01*
X-49164Y9277D01*
X-49161Y9274D01*
X-49140Y9244D01*
X-49114Y9217D01*
X-49087Y9197D01*
X-49060Y9179D01*
X-49037Y9167D01*
X-49019Y9158D01*
X-49007Y9152D01*
X-49001Y9149D01*
X-48960Y9138D01*
X-48913Y9129D01*
X-48865Y9123D01*
X-48818Y9120D01*
X-48776Y9117D01*
X-48741Y9114D01*
X-48131D01*
Y9792D01*
D02*
G37*
G36*
X-27290Y52777D02*
X-27764D01*
X-27802Y52774D01*
X-27841D01*
X-27876Y52771D01*
X-27935Y52762D01*
X-27983Y52756D01*
X-28021Y52747D01*
X-28048Y52738D01*
X-28062Y52736D01*
X-28068Y52733D01*
X-28122Y52706D01*
X-28172Y52673D01*
X-28216Y52635D01*
X-28255Y52596D01*
X-28284Y52561D01*
X-28308Y52531D01*
X-28314Y52520D01*
X-28320Y52511D01*
X-28326Y52505D01*
Y52502D01*
X-28344Y52469D01*
X-28361Y52431D01*
X-28388Y52354D01*
X-28406Y52271D01*
X-28421Y52191D01*
X-28424Y52155D01*
X-28427Y52120D01*
X-28429Y52090D01*
Y52064D01*
X-28433Y52040D01*
Y52025D01*
Y52013D01*
Y52010D01*
X-28429Y51928D01*
X-28424Y51850D01*
X-28415Y51782D01*
X-28406Y51723D01*
X-28400Y51700D01*
X-28394Y51679D01*
X-28388Y51658D01*
X-28385Y51643D01*
X-28382Y51631D01*
X-28379Y51623D01*
X-28376Y51617D01*
Y51614D01*
X-28356Y51557D01*
X-28332Y51507D01*
X-28305Y51463D01*
X-28282Y51424D01*
X-28261Y51395D01*
X-28243Y51374D01*
X-28231Y51362D01*
X-28228Y51356D01*
X-28199Y51332D01*
X-28169Y51312D01*
X-28139Y51294D01*
X-28110Y51276D01*
X-28083Y51264D01*
X-28062Y51256D01*
X-28048Y51253D01*
X-28042Y51250D01*
X-27997Y51238D01*
X-27944Y51229D01*
X-27891Y51223D01*
X-27841Y51220D01*
X-27796Y51217D01*
X-27775Y51214D01*
X-27290D01*
Y52777D01*
D02*
G37*
G36*
X28341Y53616D02*
Y52698D01*
X28986D01*
X28341Y53616D01*
D02*
G37*
%LPD*%
D10*
X43992Y4126D02*
G03*
X43992Y4126I-492J0D01*
G01*
X13748Y39779D02*
G03*
X13748Y39779I-492J0D01*
G01*
D11*
X7547Y-9760D02*
G03*
X7547Y-9760I-79J0D01*
G01*
X4039Y1347D02*
X11961D01*
X4039Y-5347D02*
X11961D01*
X-2059Y-10744D02*
Y-7791D01*
X1697D01*
X-2059Y-19209D02*
X1697D01*
X3059Y-14484D02*
Y-12516D01*
X-2059Y-19209D02*
Y-16256D01*
X49756Y4819D02*
Y7181D01*
X45286Y8822D02*
X51979D01*
X45307Y15149D02*
X52000D01*
X22043Y-21282D02*
Y-12989D01*
X14957Y-21282D02*
Y-12989D01*
X33680Y-20945D02*
X41587D01*
X33680Y-14055D02*
X41587D01*
X52969Y-7055D02*
Y-3590D01*
X46295Y-8472D02*
X48224D01*
X41551Y-7055D02*
Y-3590D01*
X-21917Y49441D02*
X-15028D01*
X-21917Y54559D02*
X-11827D01*
D12*
X20638Y32000D02*
X21032D01*
X19457D02*
X19850D01*
Y31213D02*
Y32787D01*
X20638Y31213D02*
Y32787D01*
Y36213D02*
Y37787D01*
X19850Y36213D02*
Y37787D01*
X19457Y37000D02*
X19850D01*
X20638D02*
X21032D01*
D13*
X16209Y29835D02*
X24378D01*
X16209Y34165D02*
X24280D01*
X16209Y39165D02*
X24280D01*
X16209Y34835D02*
X24378D01*
D14*
X-31499Y12500D02*
X-24500D01*
X-31499Y7834D02*
X-24500D01*
X-28166Y12500D02*
Y7834D01*
X-31499Y3902D02*
X-31165Y4902D01*
X-30165Y5568D01*
X-28499Y5901D01*
X-27499D01*
X-25833Y5568D01*
X-24833Y4902D01*
X-24500Y3902D01*
Y3235D01*
X-24833Y2235D01*
X-25833Y1569D01*
X-27499Y1236D01*
X-28499D01*
X-30165Y1569D01*
X-31165Y2235D01*
X-31499Y3235D01*
Y3902D01*
Y-331D02*
X-24500D01*
X-31499D02*
Y-2663D01*
X-31165Y-3663D01*
X-30499Y-4330D01*
X-29832Y-4663D01*
X-28832Y-4996D01*
X-27166D01*
X-26166Y-4663D01*
X-25500Y-4330D01*
X-24833Y-3663D01*
X-24500Y-2663D01*
Y-331D01*
X-31499Y-6563D02*
X-24500D01*
X-31499D02*
Y-9562D01*
X-31165Y-10562D01*
X-30832Y-10895D01*
X-30165Y-11228D01*
X-29499D01*
X-28832Y-10895D01*
X-28499Y-10562D01*
X-28166Y-9562D01*
Y-6563D01*
Y-8895D02*
X-24500Y-11228D01*
X-29166Y-17127D02*
X-28166Y-16794D01*
X-27499Y-16127D01*
X-27166Y-15127D01*
Y-14794D01*
X-27499Y-13794D01*
X-28166Y-13128D01*
X-29166Y-12795D01*
X-29499D01*
X-30499Y-13128D01*
X-31165Y-13794D01*
X-31499Y-14794D01*
Y-15127D01*
X-31165Y-16127D01*
X-30499Y-16794D01*
X-29166Y-17127D01*
X-27499D01*
X-25833Y-16794D01*
X-24833Y-16127D01*
X-24500Y-15127D01*
Y-14461D01*
X-24833Y-13461D01*
X-25500Y-13128D01*
X-2500Y-44480D02*
X-5756D01*
X-6842Y-44118D01*
X-7204Y-43756D01*
X-7566Y-43033D01*
Y-41947D01*
X-7204Y-41224D01*
X-6842Y-40862D01*
X-5756Y-40500D01*
X-2500D01*
Y-48098D01*
X-9990Y-40500D02*
X-13970D01*
X-11799Y-43395D01*
X-12884D01*
X-13608Y-43756D01*
X-13970Y-44118D01*
X-14332Y-45204D01*
Y-45927D01*
X-13970Y-47013D01*
X-13246Y-47736D01*
X-12161Y-48098D01*
X-11075D01*
X-9990Y-47736D01*
X-9628Y-47375D01*
X-9266Y-46651D01*
X42000Y-36480D02*
X38743D01*
X37658Y-36118D01*
X37296Y-35756D01*
X36934Y-35033D01*
Y-33947D01*
X37296Y-33224D01*
X37658Y-32862D01*
X38743Y-32500D01*
X42000D01*
Y-40098D01*
X34872Y-34309D02*
Y-33947D01*
X34510Y-33224D01*
X34148Y-32862D01*
X33425Y-32500D01*
X31977D01*
X31254Y-32862D01*
X30892Y-33224D01*
X30530Y-33947D01*
Y-34671D01*
X30892Y-35395D01*
X31616Y-36480D01*
X35234Y-40098D01*
X30168D01*
X26658Y-32500D02*
Y-36842D01*
X28468Y-33586D02*
X24849Y-35756D01*
Y-33586D02*
X28468Y-35756D01*
X5000Y46520D02*
X1744D01*
X658Y46882D01*
X296Y47244D01*
X-66Y47967D01*
Y49053D01*
X296Y49776D01*
X658Y50138D01*
X1744Y50500D01*
X5000D01*
Y42902D01*
X-6108Y49415D02*
X-5746Y50138D01*
X-4661Y50500D01*
X-3937D01*
X-2852Y50138D01*
X-2128Y49053D01*
X-1766Y47244D01*
Y45434D01*
X-2128Y43987D01*
X-2852Y43264D01*
X-3937Y42902D01*
X-4299D01*
X-5384Y43264D01*
X-6108Y43987D01*
X-6470Y45073D01*
Y45434D01*
X-6108Y46520D01*
X-5384Y47244D01*
X-4299Y47605D01*
X-3937D01*
X-2852Y47244D01*
X-2128Y46520D01*
X-1766Y45434D01*
X-27500Y-34480D02*
X-30757D01*
X-31842Y-34118D01*
X-32204Y-33756D01*
X-32566Y-33033D01*
Y-31947D01*
X-32204Y-31224D01*
X-31842Y-30862D01*
X-30757Y-30500D01*
X-27500D01*
Y-38098D01*
X-37884Y-30500D02*
X-34266Y-35566D01*
X-39694D01*
X-37884Y-30500D02*
Y-38098D01*
X-31500Y25020D02*
X-34756D01*
X-35842Y25382D01*
X-36204Y25744D01*
X-36566Y26467D01*
Y27553D01*
X-36204Y28276D01*
X-35842Y28638D01*
X-34756Y29000D01*
X-31500D01*
Y21402D01*
X-42608Y29000D02*
X-38990D01*
X-38628Y25744D01*
X-38990Y26105D01*
X-40075Y26467D01*
X-41161D01*
X-42246Y26105D01*
X-42970Y25382D01*
X-43332Y24296D01*
Y23573D01*
X-42970Y22487D01*
X-42246Y21764D01*
X-41161Y21402D01*
X-40075D01*
X-38990Y21764D01*
X-38628Y22125D01*
X-38266Y22849D01*
D15*
X55757Y1067D02*
X56214Y915D01*
X55300D01*
X55757Y1067D01*
X55452Y1372D01*
X55300Y1829D01*
Y2134D01*
X55452Y2591D01*
X55757Y2895D01*
X56062Y3048D01*
X56519Y3200D01*
X57280D01*
X57738Y3048D01*
X58042Y2895D01*
X58347Y2591D01*
X58499Y2134D01*
Y1829D01*
X58347Y1372D01*
X58042Y1067D01*
X55300Y2134D02*
X55452Y2438D01*
X55757Y2743D01*
X56062Y2895D01*
X56519Y3048D01*
X57280D01*
X57738Y2895D01*
X58042Y2743D01*
X58347Y2438D01*
X58499Y2134D01*
X57280Y1067D02*
X58499D01*
X57280Y915D02*
X58499D01*
X57280Y1524D02*
Y458D01*
X55300Y-411D02*
X58499D01*
X55300Y-563D02*
X58195Y-2391D01*
X55605Y-563D02*
X58499Y-2391D01*
X55300D02*
X58499D01*
X55300Y46D02*
Y-563D01*
Y-1934D02*
Y-2848D01*
X58499Y46D02*
Y-868D01*
X55300Y-3701D02*
X58499D01*
X55300Y-3854D02*
X58499D01*
X55300Y-3244D02*
Y-4768D01*
X55452Y-5225D01*
X55757Y-5530D01*
X56062Y-5682D01*
X56519Y-5834D01*
X57280D01*
X57738Y-5682D01*
X58042Y-5530D01*
X58347Y-5225D01*
X58499Y-4768D01*
Y-3244D01*
X55300Y-4768D02*
X55452Y-5073D01*
X55757Y-5377D01*
X56062Y-5530D01*
X56519Y-5682D01*
X57280D01*
X57738Y-5530D01*
X58042Y-5377D01*
X58347Y-5073D01*
X58499Y-4768D01*
X23567Y57243D02*
X23415Y56786D01*
Y57700D01*
X23567Y57243D01*
X23872Y57548D01*
X24329Y57700D01*
X24634D01*
X25091Y57548D01*
X25395Y57243D01*
X25548Y56938D01*
X25700Y56481D01*
Y55720D01*
X25548Y55262D01*
X25395Y54958D01*
X25091Y54653D01*
X24634Y54501D01*
X24329D01*
X23872Y54653D01*
X23567Y54958D01*
X24634Y57700D02*
X24938Y57548D01*
X25243Y57243D01*
X25395Y56938D01*
X25548Y56481D01*
Y55720D01*
X25395Y55262D01*
X25243Y54958D01*
X24938Y54653D01*
X24634Y54501D01*
X23567Y55720D02*
Y54501D01*
X23415Y55720D02*
Y54501D01*
X24024Y55720D02*
X22958D01*
X22089Y57700D02*
Y54501D01*
X21937Y57700D02*
X20109Y54805D01*
X21937Y57395D02*
X20109Y54501D01*
Y57700D02*
Y54501D01*
X22546Y57700D02*
X21937D01*
X20566D02*
X19652D01*
X22546Y54501D02*
X21632D01*
X18799Y57700D02*
Y54501D01*
X18646Y57700D02*
Y54501D01*
X19256Y57700D02*
X17732D01*
X17275Y57548D01*
X16970Y57243D01*
X16818Y56938D01*
X16666Y56481D01*
Y55720D01*
X16818Y55262D01*
X16970Y54958D01*
X17275Y54653D01*
X17732Y54501D01*
X19256D01*
X17732Y57700D02*
X17427Y57548D01*
X17123Y57243D01*
X16970Y56938D01*
X16818Y56481D01*
Y55720D01*
X16970Y55262D01*
X17123Y54958D01*
X17427Y54653D01*
X17732Y54501D01*
X-26933Y-46757D02*
X-27085Y-47214D01*
Y-46300D01*
X-26933Y-46757D01*
X-26628Y-46452D01*
X-26171Y-46300D01*
X-25866D01*
X-25409Y-46452D01*
X-25105Y-46757D01*
X-24952Y-47062D01*
X-24800Y-47519D01*
Y-48281D01*
X-24952Y-48738D01*
X-25105Y-49042D01*
X-25409Y-49347D01*
X-25866Y-49499D01*
X-26171D01*
X-26628Y-49347D01*
X-26933Y-49042D01*
X-25866Y-46300D02*
X-25562Y-46452D01*
X-25257Y-46757D01*
X-25105Y-47062D01*
X-24952Y-47519D01*
Y-48281D01*
X-25105Y-48738D01*
X-25257Y-49042D01*
X-25562Y-49347D01*
X-25866Y-49499D01*
X-26933Y-48281D02*
Y-49499D01*
X-27085Y-48281D02*
Y-49499D01*
X-26476Y-48281D02*
X-27542D01*
X-28411Y-46300D02*
Y-49499D01*
X-28563Y-46300D02*
X-30391Y-49195D01*
X-28563Y-46605D02*
X-30391Y-49499D01*
Y-46300D02*
Y-49499D01*
X-27954Y-46300D02*
X-28563D01*
X-29934D02*
X-30848D01*
X-27954Y-49499D02*
X-28868D01*
X-31701Y-46300D02*
Y-49499D01*
X-31854Y-46300D02*
Y-49499D01*
X-31244Y-46300D02*
X-32768D01*
X-33225Y-46452D01*
X-33530Y-46757D01*
X-33682Y-47062D01*
X-33834Y-47519D01*
Y-48281D01*
X-33682Y-48738D01*
X-33530Y-49042D01*
X-33225Y-49347D01*
X-32768Y-49499D01*
X-31244D01*
X-32768Y-46300D02*
X-33073Y-46452D01*
X-33377Y-46757D01*
X-33530Y-47062D01*
X-33682Y-47519D01*
Y-48281D01*
X-33530Y-48738D01*
X-33377Y-49042D01*
X-33073Y-49347D01*
X-32768Y-49499D01*
X33067Y-45757D02*
X32915Y-46214D01*
Y-45300D01*
X33067Y-45757D01*
X33372Y-45452D01*
X33829Y-45300D01*
X34134D01*
X34591Y-45452D01*
X34895Y-45757D01*
X35048Y-46062D01*
X35200Y-46519D01*
Y-47280D01*
X35048Y-47738D01*
X34895Y-48042D01*
X34591Y-48347D01*
X34134Y-48499D01*
X33829D01*
X33372Y-48347D01*
X33067Y-48042D01*
X34134Y-45300D02*
X34438Y-45452D01*
X34743Y-45757D01*
X34895Y-46062D01*
X35048Y-46519D01*
Y-47280D01*
X34895Y-47738D01*
X34743Y-48042D01*
X34438Y-48347D01*
X34134Y-48499D01*
X33067Y-47280D02*
Y-48499D01*
X32915Y-47280D02*
Y-48499D01*
X33524Y-47280D02*
X32458D01*
X31589Y-45300D02*
Y-48499D01*
X31437Y-45300D02*
X29609Y-48195D01*
X31437Y-45605D02*
X29609Y-48499D01*
Y-45300D02*
Y-48499D01*
X32046Y-45300D02*
X31437D01*
X30066D02*
X29152D01*
X32046Y-48499D02*
X31132D01*
X28299Y-45300D02*
Y-48499D01*
X28146Y-45300D02*
Y-48499D01*
X28756Y-45300D02*
X27232D01*
X26775Y-45452D01*
X26470Y-45757D01*
X26318Y-46062D01*
X26166Y-46519D01*
Y-47280D01*
X26318Y-47738D01*
X26470Y-48042D01*
X26775Y-48347D01*
X27232Y-48499D01*
X28756D01*
X27232Y-45300D02*
X26928Y-45452D01*
X26623Y-45757D01*
X26470Y-46062D01*
X26318Y-46519D01*
Y-47280D01*
X26470Y-47738D01*
X26623Y-48042D01*
X26928Y-48347D01*
X27232Y-48499D01*
X-32933Y45243D02*
X-33085Y44786D01*
Y45700D01*
X-32933Y45243D01*
X-32628Y45548D01*
X-32171Y45700D01*
X-31866D01*
X-31409Y45548D01*
X-31105Y45243D01*
X-30952Y44938D01*
X-30800Y44481D01*
Y43720D01*
X-30952Y43262D01*
X-31105Y42958D01*
X-31409Y42653D01*
X-31866Y42501D01*
X-32171D01*
X-32628Y42653D01*
X-32933Y42958D01*
X-31866Y45700D02*
X-31562Y45548D01*
X-31257Y45243D01*
X-31105Y44938D01*
X-30952Y44481D01*
Y43720D01*
X-31105Y43262D01*
X-31257Y42958D01*
X-31562Y42653D01*
X-31866Y42501D01*
X-32933Y43720D02*
Y42501D01*
X-33085Y43720D02*
Y42501D01*
X-32476Y43720D02*
X-33542D01*
X-34411Y45700D02*
Y42501D01*
X-34563Y45700D02*
X-36391Y42805D01*
X-34563Y45395D02*
X-36391Y42501D01*
Y45700D02*
Y42501D01*
X-33954Y45700D02*
X-34563D01*
X-35934D02*
X-36848D01*
X-33954Y42501D02*
X-34868D01*
X-37701Y45700D02*
Y42501D01*
X-37854Y45700D02*
Y42501D01*
X-37244Y45700D02*
X-38768D01*
X-39225Y45548D01*
X-39530Y45243D01*
X-39682Y44938D01*
X-39834Y44481D01*
Y43720D01*
X-39682Y43262D01*
X-39530Y42958D01*
X-39225Y42653D01*
X-38768Y42501D01*
X-37244D01*
X-38768Y45700D02*
X-39072Y45548D01*
X-39377Y45243D01*
X-39530Y44938D01*
X-39682Y44481D01*
Y43720D01*
X-39530Y43262D01*
X-39377Y42958D01*
X-39072Y42653D01*
X-38768Y42501D01*
X-59243Y3567D02*
X-58786Y3415D01*
X-59700D01*
X-59243Y3567D01*
X-59548Y3872D01*
X-59700Y4329D01*
Y4634D01*
X-59548Y5091D01*
X-59243Y5395D01*
X-58938Y5548D01*
X-58481Y5700D01*
X-57719D01*
X-57262Y5548D01*
X-56958Y5395D01*
X-56653Y5091D01*
X-56501Y4634D01*
Y4329D01*
X-56653Y3872D01*
X-56958Y3567D01*
X-59700Y4634D02*
X-59548Y4938D01*
X-59243Y5243D01*
X-58938Y5395D01*
X-58481Y5548D01*
X-57719D01*
X-57262Y5395D01*
X-56958Y5243D01*
X-56653Y4938D01*
X-56501Y4634D01*
X-57719Y3567D02*
X-56501D01*
X-57719Y3415D02*
X-56501D01*
X-57719Y4024D02*
Y2958D01*
X-59700Y2089D02*
X-56501D01*
X-59700Y1937D02*
X-56805Y109D01*
X-59395Y1937D02*
X-56501Y109D01*
X-59700D02*
X-56501D01*
X-59700Y2546D02*
Y1937D01*
Y566D02*
Y-348D01*
X-56501Y2546D02*
Y1632D01*
X-59700Y-1201D02*
X-56501D01*
X-59700Y-1354D02*
X-56501D01*
X-59700Y-744D02*
Y-2268D01*
X-59548Y-2725D01*
X-59243Y-3030D01*
X-58938Y-3182D01*
X-58481Y-3334D01*
X-57719D01*
X-57262Y-3182D01*
X-56958Y-3030D01*
X-56653Y-2725D01*
X-56501Y-2268D01*
Y-744D01*
X-59700Y-2268D02*
X-59548Y-2572D01*
X-59243Y-2877D01*
X-58938Y-3030D01*
X-58481Y-3182D01*
X-57719D01*
X-57262Y-3030D01*
X-56958Y-2877D01*
X-56653Y-2572D01*
X-56501Y-2268D01*
D16*
X42750Y30608D02*
X40179D01*
X39322Y30893D01*
X39037Y31179D01*
X38751Y31750D01*
Y32607D01*
X39037Y33179D01*
X39322Y33464D01*
X40179Y33750D01*
X42750D01*
Y27751D01*
X37408Y32607D02*
X36837Y32893D01*
X35980Y33750D01*
Y27751D01*
D62*
X40850Y2161D02*
Y2839D01*
X34150Y2161D02*
Y2839D01*
X13307Y53740D02*
X21181D01*
X13307Y46260D02*
Y53740D01*
Y46260D02*
X26693D01*
Y53740D01*
X21181D02*
X26693D01*
X15445Y39260D02*
X20957D01*
X15445D02*
Y46740D01*
X28831D01*
Y39260D02*
Y46740D01*
X20957Y39260D02*
X28831D01*
D63*
X1712Y-25500D02*
X3287D01*
D64*
X26850Y-8666D02*
X33149D01*
D65*
X58499Y-8501D02*
Y-11000D01*
X57999Y-11500D01*
X57000D01*
X56500Y-11000D01*
Y-8501D01*
X53501Y-11500D02*
X55500D01*
X53501Y-9500D01*
Y-9000D01*
X54001Y-8501D01*
X55000D01*
X55500Y-9000D01*
X11499Y3001D02*
Y5999D01*
X10000D01*
X9500Y5500D01*
Y4500D01*
X10000Y4000D01*
X11499D01*
X10499D02*
X9500Y3001D01*
X8500Y5999D02*
X6501D01*
Y5500D01*
X8500Y3500D01*
Y3001D01*
X50999Y16500D02*
Y19500D01*
X49500D01*
X49000Y19000D01*
Y18000D01*
X49500Y17500D01*
X50999D01*
X49999D02*
X49000Y16500D01*
X46001Y19500D02*
X47001Y19000D01*
X48000Y18000D01*
Y17000D01*
X47500Y16500D01*
X46501D01*
X46001Y17000D01*
Y17500D01*
X46501Y18000D01*
X48000D01*
X5499Y-33999D02*
Y-31001D01*
X4000D01*
X3500Y-31500D01*
Y-32500D01*
X4000Y-33000D01*
X5499D01*
X4499D02*
X3500Y-33999D01*
X501Y-31001D02*
X2500D01*
Y-32500D01*
X1500Y-32000D01*
X1001D01*
X501Y-32500D01*
Y-33500D01*
X1001Y-33999D01*
X2000D01*
X2500Y-33500D01*
X30999Y-22500D02*
Y-19500D01*
X29500D01*
X29000Y-20000D01*
Y-21000D01*
X29500Y-21500D01*
X30999D01*
X30000D02*
X29000Y-22500D01*
X26501D02*
Y-19500D01*
X28000Y-21000D01*
X26001D01*
X-6500Y-20500D02*
Y-18500D01*
X-6000Y-18000D01*
X-5001D01*
X-4501Y-18500D01*
Y-20500D01*
X-5001Y-21000D01*
X-6000D01*
X-5500Y-20000D02*
X-6500Y-21000D01*
X-6000D02*
X-6500Y-20500D01*
X-7500Y-21000D02*
X-8499D01*
X-7999D01*
Y-18000D01*
X-7500Y-18500D01*
X37999Y12500D02*
Y9500D01*
X36000D01*
X35000D02*
X34001D01*
X34501D01*
Y12500D01*
X35000Y12000D01*
X32499Y13999D02*
Y11000D01*
X31000D01*
X30500Y11500D01*
Y13500D01*
X31000Y13999D01*
X32499D01*
X27501Y11000D02*
X29500D01*
X27501Y13000D01*
Y13500D01*
X28001Y13999D01*
X29000D01*
X29500Y13500D01*
X11000Y-18636D02*
X11500Y-18136D01*
X12499D01*
X12999Y-18636D01*
Y-20635D01*
X12499Y-21135D01*
X11500D01*
X11000Y-20635D01*
X10000Y-18136D02*
X8001D01*
Y-18636D01*
X10000Y-20635D01*
Y-21135D01*
X57500Y10500D02*
X58000Y11000D01*
X58999D01*
X59499Y10500D01*
Y8500D01*
X58999Y8000D01*
X58000D01*
X57500Y8500D01*
X54501Y11000D02*
X55501Y10500D01*
X56500Y9500D01*
Y8500D01*
X56000Y8000D01*
X55001D01*
X54501Y8500D01*
Y9000D01*
X55001Y9500D01*
X56500D01*
M02*
